<?xml version="1.0" encoding="UTF-8"?>
<svg xmlns="http://www.w3.org/2000/svg" version="1.1" viewBox="0 0 850.4 850.4">
  <defs>
    <style>
      .cls-1 {
        fill: #5f9ea0;
      }

      .cls-2 {
        fill: #37387d;
      }

      .cls-3 {
        fill: #fff;
      }

      .cls-4 {
        fill: #4d6f70;
      }
    </style>
  </defs>
  <!-- Generator: Adobe Illustrator 28.7.1, SVG Export Plug-In . SVG Version: 1.2.0 Build 142)  -->
  <g>
    <g id="Layer_1">
      <g id="Layer_4">
        <rect class="cls-1" width="283.5" height="283.5"/>
        <rect class="cls-4" x="283.5" width="283.5" height="283.5"/>
        <rect class="cls-1" x="566.9" width="283.5" height="283.5"/>
        <rect class="cls-2" x="566.9" y="283.5" width="283.5" height="566.9"/>
        <rect class="cls-2" y="283.5" width="283.5" height="566.9"/>
      </g>
      <g id="Layer_6">
        <rect class="cls-3" x="35.4" y="35.4" width="42.5" height="42.5"/>
        <rect class="cls-3" x="163" y="78" width="42.5" height="42.5"/>
        <rect class="cls-3" x="78" y="78" width="42.5" height="42.5"/>
        <rect class="cls-3" x="35.4" y="120.5" width="42.5" height="42.5"/>
        <rect class="cls-3" x="78" y="163" width="41.6" height="42.5"/>
        <rect class="cls-3" x="35.4" y="205.5" width="42.5" height="42.5"/>
        <rect class="cls-3" x="729.9" y="35.4" width="42.5" height="42.5"/>
        <rect class="cls-3" x="772.4" y="78" width="42.5" height="42.5"/>
        <rect class="cls-3" x="729.9" y="120.5" width="42.5" height="42.5"/>
        <rect class="cls-3" x="772.4" y="163" width="41.6" height="42.5"/>
        <rect class="cls-3" x="729.9" y="205.5" width="42.5" height="42.5"/>
        <rect class="cls-3" x="163" y="163" width="42.5" height="42.5"/>
        <rect class="cls-3" x="205.5" y="120.5" width="42.5" height="42.5"/>
        <rect class="cls-3" x="602.4" y="78" width="42.5" height="42.5"/>
        <rect class="cls-3" x="602.4" y="163" width="42.5" height="42.5"/>
        <rect class="cls-3" x="644.9" y="120.5" width="42.5" height="42.5"/>
        <rect class="cls-3" x="403.9" y="121" width="42.5" height="42.5"/>
        <rect class="cls-3" x="489" y="35.5" width="42.5" height="42.5"/>
        <rect class="cls-3" x="318.9" y="35.5" width="42.5" height="42.5"/>
        <rect class="cls-3" x="489" y="205.5" width="42.5" height="42.5"/>
        <rect class="cls-3" x="318.9" y="205.5" width="42.5" height="42.5"/>
        <rect class="cls-3" x="120.5" y="404.5" width="42.5" height="42.5"/>
        <rect class="cls-3" x="205.5" y="318.9" width="42.5" height="42.5"/>
        <rect class="cls-3" x="35.5" y="318.9" width="42.5" height="42.5"/>
        <rect class="cls-3" x="205.5" y="489" width="42.5" height="42.5"/>
        <rect class="cls-3" x="35.5" y="489" width="42.5" height="42.5"/>
        <rect class="cls-3" x="120.5" y="687.9" width="42.5" height="42.5"/>
        <rect class="cls-3" x="205.5" y="602.3" width="42.5" height="42.5"/>
        <rect class="cls-3" x="35.5" y="602.3" width="42.5" height="42.5"/>
        <rect class="cls-3" x="205.5" y="772.5" width="42.5" height="42.5"/>
        <rect class="cls-3" x="35.5" y="772.5" width="42.5" height="42.5"/>
        <rect class="cls-3" x="687.4" y="404.5" width="42.5" height="42.5"/>
        <rect class="cls-3" x="772.5" y="318.9" width="42.5" height="42.5"/>
        <rect class="cls-3" x="602.3" y="318.9" width="42.5" height="42.5"/>
        <rect class="cls-3" x="772.5" y="489" width="42.5" height="42.5"/>
        <rect class="cls-3" x="602.3" y="489" width="42.5" height="42.5"/>
        <rect class="cls-3" x="687.4" y="687.9" width="42.5" height="42.5"/>
        <rect class="cls-3" x="772.5" y="602.3" width="42.5" height="42.5"/>
        <rect class="cls-3" x="602.3" y="602.3" width="42.5" height="42.5"/>
        <rect class="cls-3" x="772.5" y="772.5" width="42.5" height="42.5"/>
        <rect class="cls-3" x="602.3" y="772.5" width="42.5" height="42.5"/>
      </g>
    </g>
  </g>
</svg>