<?xml version="1.0" encoding="UTF-8"?>
<svg id="Layer_2" xmlns="http://www.w3.org/2000/svg" viewBox="0 0 845.53 850.5">
  <defs>
    <style>
      .cls-1 {
        fill: #dedb4c;
      }

      .cls-2 {
        fill: none;
      }

      .cls-3 {
        fill: #ebb44e;
      }

      .cls-4 {
        fill: #59a855;
      }

      .cls-5 {
        fill: #f7ed51;
      }

      .cls-6 {
        fill: #9cbf52;
      }

      .cls-7 {
        fill: #e8993d;
      }

      .cls-8 {
        fill: #ae312f;
      }

      .cls-9 {
        fill: #d85a34;
      }

      .cls-10 {
        fill: #d74837;
      }
    </style>
  </defs>
  <g>
    <path class="cls-3" d="M596.91,671.23c-17.21,12.07-35.64,22.29-55.16,30.54-35.24,14.91-72.65,22.78-111.26,23.46v119.03c87.98-1.13,169.42-29.38,236.36-76.77l-69.94-96.27Z"/>
    <path class="cls-8" d="M430.5,6.24v119.03c38.61.68,76.01,8.56,111.26,23.46,19.52,8.26,37.95,18.48,55.16,30.54l69.94-96.27C599.92,35.62,518.48,7.37,430.5,6.24Z"/>
    <path class="cls-2" d="M253.09,179.27c17.21-12.07,35.64-22.29,55.16-30.54,35.24-14.91,72.65-22.78,111.26-23.46V6.24c-87.98,1.13-169.42,29.38-236.36,76.77l69.94,96.27Z"/>
    <path class="cls-9" d="M825.31,549.54c12.18-39.27,18.74-81.01,18.74-124.29s-6.56-85.02-18.74-124.29l-113.19,36.78c8.58,28.18,12.93,57.49,12.93,87.51s-4.35,59.33-12.93,87.51l113.19,36.78Z"/>
    <path class="cls-5" d="M419.5,844.26v-119.03c-38.61-.68-76.01-8.56-111.26-23.46-19.52-8.26-37.95-18.48-55.16-30.54l-69.94,96.27c66.93,47.39,148.38,75.64,236.36,76.77Z"/>
    <path class="cls-1" d="M244.2,664.75c-11-8.33-21.48-17.44-31.36-27.33-27.59-27.59-49.25-59.7-64.35-95.41-2.62-6.2-5.01-12.47-7.19-18.79l-113.2,36.78c27.48,80.97,79.04,150.83,146.16,201.03l69.95-96.28Z"/>
    <path class="cls-7" d="M708.71,523.22c-2.19,6.32-4.57,12.59-7.19,18.79-15.11,35.72-36.76,67.82-64.35,95.41-9.89,9.89-20.36,19-31.36,27.33l69.95,96.28c67.12-50.2,118.68-120.06,146.16-201.03l-113.2-36.78Z"/>
    <path class="cls-4" d="M141.29,327.28c2.19-6.32,4.57-12.59,7.19-18.79,15.11-35.72,36.76-67.82,64.35-95.41,9.89-9.89,20.36-19,31.36-27.33l-69.95-96.28c-67.12,50.2-118.68,120.06-146.16,201.03l113.2,36.78Z"/>
    <path class="cls-10" d="M605.8,185.75c11,8.33,21.48,17.44,31.36,27.33,27.59,27.59,49.25,59.7,64.35,95.41,2.62,6.2,5.01,12.47,7.19,18.79l113.2-36.78c-27.48-80.97-79.04-150.83-146.16-201.03l-69.95,96.28Z"/>
    <path class="cls-6" d="M137.88,512.76c-8.58-28.18-12.93-57.49-12.93-87.51s4.35-59.33,12.93-87.51l-113.19-36.78c-12.18,39.27-18.74,81.01-18.74,124.29s6.56,85.02,18.74,124.29l113.19-36.78Z"/>
  </g>
  <g>
    <path class="cls-3" d="M321.21,281.55c10.21-7.16,21.15-13.23,32.73-18.13,20.91-8.85,43.11-13.52,66.02-13.92v-70.64c-52.21.67-100.54,17.44-140.26,45.56l41.51,57.13Z"/>
    <path class="cls-8" d="M419.97,676.17v-70.64c-22.91-.41-45.11-5.08-66.02-13.92-11.58-4.9-22.52-10.97-32.73-18.13l-41.51,57.13c39.72,28.12,88.05,44.88,140.26,45.56Z"/>
    <path class="cls-2" d="M525.25,573.49c-10.21,7.16-21.15,13.23-32.73,18.13-20.91,8.85-43.11,13.52-66.02,13.92v70.64c52.21-.67,100.54-17.43,140.26-45.56l-41.51-57.13Z"/>
    <path class="cls-9" d="M185.68,353.77c-7.23,23.3-11.12,48.07-11.12,73.75s3.89,50.45,11.12,73.75l67.17-21.82c-5.09-16.72-7.67-34.12-7.67-51.93s2.58-35.21,7.67-51.93l-67.17-21.82Z"/>
    <path class="cls-5" d="M426.49,178.87v70.64c22.91.41,45.11,5.08,66.02,13.92,11.58,4.9,22.52,10.97,32.73,18.13l41.51-57.13c-39.72-28.12-88.05-44.88-140.26-45.56Z"/>
    <path class="cls-1" d="M530.52,285.4c6.53,4.95,12.75,10.35,18.61,16.22,16.38,16.38,29.22,35.42,38.19,56.62,1.56,3.68,2.97,7.4,4.27,11.15l67.18-21.83c-16.31-48.05-46.91-89.5-86.73-119.29l-41.51,57.13Z"/>
    <path class="cls-7" d="M254.87,369.38c1.3-3.75,2.71-7.47,4.27-11.15,8.96-21.19,21.81-40.24,38.19-56.62,5.87-5.87,12.08-11.27,18.61-16.22l-41.51-57.13c-39.83,29.79-70.43,71.24-86.73,119.29l67.18,21.83Z"/>
    <path class="cls-4" d="M591.59,485.66c-1.3,3.75-2.71,7.47-4.27,11.15-8.96,21.19-21.81,40.24-38.19,56.62-5.87,5.87-12.08,11.27-18.61,16.22l41.51,57.13c39.83-29.79,70.43-71.24,86.73-119.29l-67.18-21.83Z"/>
    <path class="cls-10" d="M315.94,569.64c-6.53-4.95-12.75-10.35-18.61-16.22-16.38-16.38-29.22-35.42-38.19-56.62-1.56-3.68-2.97-7.4-4.27-11.15l-67.18,21.83c16.31,48.05,46.91,89.5,86.73,119.29l41.51-57.13Z"/>
    <path class="cls-6" d="M593.61,375.59c5.09,16.72,7.67,34.12,7.67,51.93s-2.58,35.21-7.67,51.93l67.17,21.82c7.23-23.3,11.12-48.07,11.12-73.75s-3.89-50.45-11.12-73.75l-67.17,21.82Z"/>
  </g>
</svg>