<svg xmlns="http://www.w3.org/2000/svg" viewBox="0 0 140 140"><defs><style>.cls-1{fill:#231f20;}.cls-2{fill:#f30b02;}.cls-3{fill:#fff;}.cls-4{font-size:4.41px;font-family:FuturaStd-Heavy, Futura Std;font-weight:800;letter-spacing:0.02em;}.cls-5{font-size:7.35px;font-family:FuturaStd-Medium, Futura Std;font-weight:500;letter-spacing:0.1em;}</style></defs><g id="Face_Increments" data-name="Face Increments"><rect class="cls-1" x="67.56" y="1.08" width="4.89" height="17.01"/><rect class="cls-1" x="37.24" y="9.18" width="4.89" height="17.01" transform="translate(-3.53 22.21) rotate(-30)"/><rect class="cls-1" x="15.03" y="31.36" width="4.89" height="17.01" transform="matrix(0.5, -0.87, 0.87, 0.5, -25.78, 35.07)"/><rect class="cls-1" x="6.89" y="61.66" width="4.89" height="17.01" transform="translate(-60.83 79.51) rotate(-90)"/><rect class="cls-1" x="14.99" y="91.98" width="4.89" height="17.01" transform="translate(-60.87 165.84) rotate(-120)"/><rect class="cls-1" x="37.17" y="114.19" width="4.89" height="17.01" transform="translate(12.57 248.76) rotate(-150)"/><rect class="cls-1" x="67.47" y="122.33" width="4.89" height="17.01" transform="translate(139.84 261.68) rotate(-180)"/><rect class="cls-1" x="97.79" y="114.23" width="4.89" height="17.01" transform="translate(248.41 178.91) rotate(150)"/><rect class="cls-1" x="120" y="92.06" width="4.89" height="17.01" transform="translate(270.75 44.81) rotate(120)"/><rect class="cls-1" x="128.14" y="61.75" width="4.89" height="17.01" transform="translate(200.84 -60.33) rotate(90)"/><rect class="cls-1" x="120.04" y="31.43" width="4.89" height="17.01" transform="translate(95.83 -86.11) rotate(60)"/><rect class="cls-1" x="97.86" y="9.23" width="4.89" height="17.01" transform="translate(22.31 -47.78) rotate(30)"/><rect class="cls-1" x="62.1" y="2.18" width="1.91" height="4.7" transform="translate(-0.13 6.62) rotate(-6)"/><rect class="cls-1" x="55.27" y="3.26" width="1.91" height="4.7" transform="translate(0.06 11.81) rotate(-12)"/><rect class="cls-1" x="48.6" y="5.05" width="1.91" height="4.7" transform="translate(0.14 15.67) rotate(-18)"/><rect class="cls-1" x="42.14" y="7.53" width="1.91" height="4.7" transform="translate(-0.29 18.38) rotate(-24)"/><rect class="cls-1" x="30.19" y="14.43" width="1.91" height="4.7" transform="translate(-3.92 21.51) rotate(-36)"/><rect class="cls-1" x="24.81" y="18.78" width="1.91" height="4.7" transform="translate(-7.52 22.67) rotate(-42)"/><rect class="cls-1" x="19.93" y="23.67" width="1.91" height="4.7" transform="translate(-12.43 24.13) rotate(-48)"/><rect class="cls-1" x="15.57" y="29.04" width="1.91" height="4.7" transform="translate(-18.58 26.31) rotate(-54)"/><rect class="cls-1" x="8.67" y="41" width="1.91" height="4.7" transform="translate(-33.89 34.51) rotate(-66)"/><rect class="cls-1" x="6.19" y="47.45" width="1.91" height="4.7" transform="translate(-42.43 41.21) rotate(-72)"/><rect class="cls-1" x="4.4" y="54.13" width="1.91" height="4.7" transform="translate(-51 49.98) rotate(-78)"/><rect class="cls-1" x="3.32" y="60.96" width="1.91" height="4.7" transform="translate(-59.13 60.95) rotate(-84)"/><rect class="cls-1" x="3.32" y="74.77" width="1.91" height="4.7" transform="translate(-71.97 89.43) rotate(-96)"/><rect class="cls-1" x="4.4" y="81.59" width="1.91" height="4.7" transform="translate(-75.64 106.64) rotate(-102)"/><rect class="cls-1" x="6.19" y="88.27" width="1.91" height="4.7" transform="translate(-76.83 125.43) rotate(-108)"/><rect class="cls-1" x="8.67" y="94.72" width="1.91" height="4.7" transform="translate(-75.14 145.36) rotate(-114)"/><rect class="cls-1" x="15.57" y="106.68" width="1.91" height="4.7" transform="translate(-61.96 186.5) rotate(-126)"/><rect class="cls-1" x="19.93" y="112.05" width="1.91" height="4.7" transform="translate(-50.17 206.48) rotate(-132)"/><rect class="cls-1" x="24.81" y="116.94" width="1.91" height="4.7" transform="translate(-34.9 225.19) rotate(-138)"/><rect class="cls-1" x="30.19" y="121.29" width="1.91" height="4.7" transform="translate(-16.34 241.98) rotate(-144)"/><rect class="cls-1" x="42.14" y="128.2" width="1.91" height="4.7" transform="translate(29.37 267.34) rotate(-156)"/><rect class="cls-1" x="48.6" y="130.67" width="1.91" height="4.7" transform="translate(55.57 274.86) rotate(-162)"/><rect class="cls-1" x="55.27" y="132.46" width="1.91" height="4.7" transform="translate(83.2 278.38) rotate(-168)"/><rect class="cls-1" x="62.1" y="133.55" width="1.91" height="4.7" transform="translate(111.57 277.64) rotate(-174)"/><rect class="cls-1" x="75.91" y="133.55" width="1.91" height="4.7" transform="translate(167.51 263.02) rotate(174)"/><rect class="cls-1" x="82.74" y="132.46" width="1.91" height="4.7" transform="translate(193.59 249.29) rotate(168)"/><rect class="cls-1" x="89.42" y="130.67" width="1.91" height="4.7" transform="matrix(-0.95, 0.31, -0.31, -0.95, 217.43, 231.62)"/><rect class="cls-1" x="95.87" y="128.2" width="1.91" height="4.7" transform="translate(238.38 210.43) rotate(156)"/><rect class="cls-1" x="107.83" y="121.29" width="1.91" height="4.7" transform="translate(269.47 159.74) rotate(144)"/><rect class="cls-1" x="113.2" y="116.94" width="1.91" height="4.7" transform="translate(278.81 131.56) rotate(138)"/><rect class="cls-1" x="118.09" y="112.05" width="1.91" height="4.7" transform="translate(283.72 102.49) rotate(132)"/><rect class="cls-1" x="122.44" y="106.68" width="1.91" height="4.7" transform="translate(284.13 73.3) rotate(126)"/><rect class="cls-1" x="129.34" y="94.72" width="1.91" height="4.7" transform="translate(271.98 17.53) rotate(114)"/><rect class="cls-1" x="131.82" y="88.27" width="1.91" height="4.7" transform="translate(259.99 -7.65) rotate(108)"/><rect class="cls-1" x="133.61" y="81.59" width="1.91" height="4.7" transform="translate(244.65 -30.22) rotate(102)"/><rect class="cls-1" x="134.69" y="74.77" width="1.91" height="4.7" transform="translate(226.52 -49.72) rotate(96)"/><rect class="cls-1" x="134.69" y="60.96" width="1.91" height="4.7" transform="translate(184.43 -78.21) rotate(84)"/><rect class="cls-1" x="133.61" y="54.13" width="1.91" height="4.7" transform="translate(161.83 -86.88) rotate(78)"/><rect class="cls-1" x="131.82" y="47.45" width="1.91" height="4.7" transform="translate(139.11 -91.86) rotate(72)"/><rect class="cls-1" x="129.34" y="41" width="1.91" height="4.7" transform="translate(116.9 -93.31) rotate(66)"/><rect class="cls-1" x="122.44" y="29.04" width="1.91" height="4.7" transform="translate(76.26 -86.89) rotate(54)"/><rect class="cls-1" x="118.09" y="23.67" width="1.91" height="4.7" transform="translate(58.73 -79.86) rotate(48)"/><rect class="cls-1" x="113.2" y="18.78" width="1.91" height="4.7" transform="translate(43.46 -70.96) rotate(42)"/><rect class="cls-1" x="107.83" y="14.43" width="1.91" height="4.7" transform="translate(30.64 -60.74) rotate(36)"/><rect class="cls-1" x="95.87" y="7.53" width="1.91" height="4.7" transform="translate(12.39 -38.53) rotate(24)"/><rect class="cls-1" x="89.42" y="5.05" width="1.91" height="4.7" transform="translate(6.71 -27.56) rotate(18)"/><rect class="cls-1" x="82.74" y="3.26" width="1.91" height="4.7" transform="translate(3 -17.28) rotate(12)"/><rect class="cls-1" x="75.91" y="2.18" width="1.91" height="4.7" transform="translate(0.89 -8.01) rotate(6)"/></g><g id="Badge_and_Logo" data-name="Badge and Logo"><rect class="cls-2" x="50.63" y="45.21" width="12" height="4.71"/><polygon class="cls-3" points="60.38 45.78 59.38 45.78 60.66 47.12 58.81 47.12 58.81 45.78 58.81 45.78 57.85 45.78 57.84 45.78 57.84 47.12 56 47.12 57.27 45.78 56.28 45.78 54.54 47.52 56.35 49.33 57.4 49.33 55.99 47.92 57.81 47.92 57.81 49.33 57.84 49.33 58.81 49.33 58.84 49.33 58.84 47.92 60.66 47.92 59.25 49.33 60.3 49.33 62.12 47.52 60.38 45.78"/><text class="cls-4" transform="translate(65.5 49.41)">SBB CFF FFS</text><text class="cls-5" transform="translate(47.66 42.13)">MONDAINE</text></g></svg>