<?xml version="1.0" encoding="UTF-8"?>
<svg id="Layer_1" data-name="Layer 1" xmlns="http://www.w3.org/2000/svg" version="1.1" viewBox="0 0 292 292">
  <defs>
    <style>
      .cls-1 {
        fill: #4c688c;
      }

      .cls-1, .cls-2, .cls-3, .cls-4, .cls-5 {
        stroke-width: 0px;
      }

      .cls-2 {
        fill: #ec8f70;
      }

      .cls-3 {
        fill: #cee3f0;
      }

      .cls-6 {
        stroke: #4c688c;
        stroke-linejoin: round;
        stroke-width: 5px;
      }

      .cls-6, .cls-5 {
        fill: #fff;
      }

      .cls-4 {
        fill: #f9da74;
      }
    </style>
  </defs>
  <path class="cls-4" d="M230.3,165.1c8.3,0,12.6,4.3,12.6,12.5v54.8c0,2.3.3,18.6,3,19.1v5.3c-1,.1-2.1.2-3.1.2H46.5c-1,0-2.1-.1-3.1-.2v-5.2c2.5-.4,2.7-16.6,2.7-18.7v-56c0-7,4.7-11.6,11.6-11.6h172.6Z"/>
  <path class="cls-5" d="M68.6,202.4l117.5-112,15,3-14,22.6-38.5,53.7-29.4,29.6-26.9,10.6s-17.5,1.3-23.8-7.5Z"/>
  <path class="cls-1" d="M73.1,202.4c7.8,5.5,16,5,24.4,1.7,5-1.9,9.4-4.4,13.7-7.4,2.3-1.6,4.3-1.6,6.2.5.8,2.4.1,4.3-2.1,5.6-2.8,1.6-5.4,3.5-8.3,5-7.9,4-16,7-25.2,5.5-7.8-1.2-14-5.5-19.5-10.7-4.3-4-4.3-5,0-9,12.5-11.8,152-143.9,188.7-178.7,2.4-2.4,13.4-9.4,22.8-1.2s7.4,19.9-.4,26.2l-60.7,49c-4.7,3.2-7.5,7.4-10.1,12.2-8.3,15.8-32.6,47.4-43.6,61.4-1.5,1.9-3.6,3.1-5.9,1.5-2.1-1.6-1.3-4,.3-6,10.2-13,33.7-43.8,41.8-58.3q2.3-4.2-2.4-5.2c-1.9-.4-3.9-1.1-5.8-1.6-2.4-.8-79.1,67-114.9,101q-4.7,4.8,1.2,8.6Z"/>
  <path class="cls-3" d="M73.1,202.4q-5.9-3.8-.9-8.6c35.9-34,71.8-67.9,107.7-102,3.4-3.2,5,.3,7.3,1.1-.3,1.3-107,103-114,109.6Z"/>
  <path class="cls-2" d="M197.1,87.7c-4.7,0-7.8-.5-8.7-3-.7-1.9,3.5-4.8,4.8-6.1s62.5-58.5,62.5-58.5c4.6-4.3,10.6-4.2,14.5.1,3.8,4.2,3.4,10.3-1.3,14.2l-59.6,48.2c-3.5,2.8-7.4,5-12.1,5Z"/>
  <rect class="cls-4" x="104.6" y="161.6" width="67" height="48.3"/>
  <path class="cls-1" d="M245.9,259c-1.7,0-3-.9-3-3.2v-78.1c0-8.3-4.3-12.5-12.6-12.5-43.7,0-77,0-120.8-.1-2.5,0-3.1.7-3.1,3.1v43.6c.1,1.1.3,2.4-.7,3.3-.8.7-1.9.8-2.9.4-1.2-.5-1.6-1.7-1.6-3v-48.5c0-3.7.6-4.4,4.4-4.4,19.1,0,38.2,0,57.4-.1,25.9,0,41.5-.1,67.3-.2,11.1,0,18.1,7,18.1,18v78.3c0,2.3-.8,3.4-2.5,3.4Z"/>
  <path class="cls-1" d="M94.3,165.1h-36.5c-7,0-11.6,4.7-11.6,11.6v78c0,2.1-.2,3.8-2.7,4.3-2-.3-2.7-1.6-2.7-3.4,0-19.3,0-60.8.1-80.1.1-8.3,7-15.4,15.3-15.6,7.7-.2,29.6-.1,37.2-.1h.9c1.5,0,2.7,1.1,2.7,2.7s-1.2,2.6-2.7,2.6Z"/>
  <path class="cls-6" d="M287.1,236.1c0,10.3-21.4,43.7-32.7,43.7H39.1c-11.4,0-32.9-33.5-32.9-43.7h281Z"/>
</svg>