<?xml version="1.0" encoding="utf-8"?>
<!-- Generator: Adobe Illustrator 26.5.0, SVG Export Plug-In . SVG Version: 6.00 Build 0)  -->
<svg version="1.1" id="Layer_1" xmlns="http://www.w3.org/2000/svg" xmlns:xlink="http://www.w3.org/1999/xlink" x="0px" y="0px"
	 viewBox="0 0 384 384" style="enable-background:new 0 0 384 384;" xml:space="preserve">
<style type="text/css">
	.st0{fill:#F85D48;}
	.st1{fill:#E3EDF8;}
	.st2{fill:#E64A5E;}
	.st3{fill:#415C6D;}
	.st4{fill:#00AADF;}
	.st5{fill:#304557;}
	.st6{fill:#D5DEF0;}
	.st7{fill:#FEDB65;}
	.st8{fill:#FEC847;}
</style>
<circle class="st0" cx="191.5" cy="192.4" r="182.6"/>
<circle class="st1" cx="191.5" cy="192.4" r="158.6"/>
<g>
	<g>
		<path class="st2" d="M382,195.7c0-0.5,0-1,0-1.5C382,194.7,382,195.2,382,195.7z"/>
		<path class="st3" d="M210,166.2c-0.7-0.4-1.5-0.7-2.3-1.1c20.1-18,40.2-36,60.4-54c5.9-5.3,12.8-5.1,17.4,0.2
			c4.4,5.1,3.5,12-2.2,17c-10.5,9.4-21.1,18.8-31.6,28.2c-9.8,8.7-19.7,17.4-29.5,26C219.2,176.3,216.2,170.1,210,166.2z"/>
		<path class="st3" d="M164.5,175.5c-1.1,1.6-1.8,3.5-2.7,5.3c-9.5-9.6-29-29-38.4-38.7c-4.3-4.5-3.8-11.5,0.5-15.8
			c4.4-4.3,11.5-4.5,16.1,0.1c9.3,9.3,28.3,28.7,37.5,38C171.2,165.8,167.7,170.5,164.5,175.5z"/>
		<path class="st4" d="M180.5,208.5c-2.6,2.3-5.1,4.7-7.7,6.9c-13.4,11.3-26.9,22.5-40.3,33.8c-6.2,5.2-12.4,10.6-18.8,15.6
			c-1.4,1.1-4.5,1.4-6,0.6s-3.2-3.6-2.9-5.2c0.4-2.2,2.1-4.6,3.9-6.2c14.7-12.5,29.5-24.8,44.3-37.2c6.8-5.7,13.7-11.3,20.6-16.9
			C175.8,202.8,178.1,205.7,180.5,208.5z"/>
		<path class="st3" d="M197.4,70c0,0.2,0,0.5,0,0.7c-0.3,3.9-2.5,6.2-6,6.1c-3.3-0.1-5.6-2.3-5.7-6c-0.1-5.7-0.1-11.4,0-17
			c0.1-3.9,2.5-6.2,6-6.1c3.3,0.1,5.5,2.4,5.7,6c0.1,2.8,0,5.7,0,8.5C197.4,64.8,197.4,67.4,197.4,70z"/>
		<path class="st3" d="M312.7,197.8c-3.7-0.2-6-2.4-6-5.7c-0.1-3.5,2.2-5.9,6.1-5.9c5.7-0.1,11.4-0.1,17,0c3.7,0.1,6,2.4,6,5.6
			c0.1,3.5-2.3,5.8-6.1,6c-2.8,0.1-5.7,0-8.5,0S315.6,197.9,312.7,197.8z"/>
		<path class="st3" d="M70.3,186.2c3.9,0.2,6.2,2.5,6.1,5.9c-0.1,3.3-2.3,5.6-6,5.7c-5.7,0.1-11.4,0.1-17,0
			c-3.9-0.1-6.2-2.5-6.1-5.9c0.1-3.3,2.4-5.5,6-5.7c2.8-0.1,5.7,0,8.5,0C64.6,186.2,67.4,186.1,70.3,186.2z"/>
		<path class="st3" d="M185.8,328.7c-0.4-5.1-0.2-10.4-0.1-15.5c0-4.3,2.1-6.7,5.6-6.8c3.7-0.1,6,2.4,6,6.8
			c0.1,5.2,0.3,10.4-0.1,15.5c-0.2,2.2,0.2,7.1-5.7,7.1C185.6,335.8,186,330.9,185.8,328.7z"/>
		<path class="st5" d="M197.81,173.89l9.89-8.79l0,0c6.69,2.88,11.14,8.56,14.5,17.4l-10.9,10.2c-0.4-2.2-0.8-4.4-1.2-6.6
			C208.5,179.7,203.31,176.59,197.81,173.89z"/>
		<path class="st5" d="M171.8,191.1c-3.4-3.5-6.7-6.9-10-10.3c0.9-1.8,1.6-3.6,2.7-5.3c3.2-5,6.8-9.7,13.1-11.1
			c2.8,2.8,6.8,6.6,9.6,9.4L171.8,191.1z"/>
	</g>
</g>
<path class="st6" d="M194.3,335.8"/>
<circle class="st7" cx="191.5" cy="192.4" r="20"/>
<path class="st8" d="M191.5,212.4c11.1,0,20-9,20-20c0-2-0.3-3.9-0.8-5.7c-4,5.6-8.9,9.8-16.2,11.1c-8.1,1.5-19.1-4.4-21.9-11.8
	c-0.7,2-1.1,4.2-1.1,6.5C171.4,203.5,180.4,212.4,191.5,212.4z"/>
</svg>
