<?xml version="1.0" encoding="UTF-8"?>
<svg xmlns="http://www.w3.org/2000/svg" viewBox="0 0 485.32 479.88">
  <defs>
    <style>
      .cls-1 {
        fill: #9d9d9d;
      }

      .cls-2 {
        fill: #1fdb28;
      }

      .cls-3 {
        fill: #c2c2c2;
      }

      .cls-4 {
        fill: #94dd98;
      }
    </style>
  </defs>
  <g id="Layer_1" data-name="Layer 1">
    <g>
      <path d="M3.3,267.6c.27-5.5,1.05-11.21,7.39-11.33l20.77-.38-.07-139.73c0-6.59,2.53-12.66,7.03-17.1l37.77-37.28c7.82-7.71,22.57-7.71,30.41.01l37.29,36.73c5.08,5.01,7.53,11.26,7.53,18.64l-.08,138.75,19.21.19c2.18.02,5.71,1.14,6.82,2.58,1.65,2.15,1.82,5.39,2.03,8.31,1.74,24.13-15.6,44.76-40.03,44.95l-23.95.19-.07,24.71,99.74-21.18c11.2-10.92,26.69-14.59,41.77-8.74l114.58-24.34-.05-26.46-23.9-.19c-24.69-.19-41.78-20.66-40.14-44.98.32-4.72.92-10.59,7.35-10.7l20.76-.38-.07-139.73c0-6.59,2.53-12.66,7.03-17.1l37.77-37.28c7.82-7.72,22.57-7.71,30.4,0l37.3,36.75c4.71,4.64,7.5,10.73,7.5,17.65l-.07,139.72,19.22.19c2.18.02,5.7,1.17,6.83,2.59,1.61,2.02,1.79,5.48,2,8.28,1.81,24.28-15.48,44.76-40.05,44.97l-23.94.2.04,16.17c10.58-2.02,20.34-4.82,31.02-6.24,17.27-2.28,32.53,11.31,34.6,27.66,2.15,17-9.26,32.39-26.71,35.59l-182.93,38.98-.02,55.77,60.97.02c15.21,1.07,26.76,12.85,26.91,27.63.14,14.58-11.2,28.16-27.26,28.16h-185.2c-15.76,0-26.95-13.06-27.27-27.27-.34-15.16,11.38-27.44,26.9-28.52l60.98-.02-.03-42.26-172.57,36.69c-17.83,3.88-34.22-7.48-38.05-24.46-3.85-17.06,7.19-34.17,24.77-37.95l41.86-9v-34.95s-23.93-.19-23.93-.19c-24.1-.19-41.35-20.05-40.16-44.35ZM435.82,200.06c1.62,0,3.59-2.73,3.59-4.13l-.04-139.31-38.21-38.27c-3.68-3.11-8.62-2.89-12.02.5l-37.72,37.75-.03,139.33c0,2.69,2.66,4.17,4.97,4.17l79.45-.04ZM131.82,256.06c1.62,0,3.59-2.73,3.59-4.13l-.04-139.31-38.21-38.27c-3.68-3.11-8.62-2.89-12.02.5l-37.72,37.75-.03,139.33c0,2.69,2.66,4.17,4.97,4.17l79.45-.04Z"/>
      <path class="cls-2" d="M435.82,200.06l-79.45.04c-2.31,0-4.97-1.47-4.97-4.17l.03-139.33,37.72-37.75c3.4-3.39,8.34-3.61,12.02-.5l38.21,38.27.04,139.31c0,1.4-1.98,4.13-3.59,4.13Z"/>
      <path class="cls-4" d="M131.82,256.06l-79.45.04c-2.31,0-4.97-1.47-4.97-4.17l.03-139.33,37.72-37.75c3.4-3.39,8.34-3.62,12.02-.5l38.21,38.27.04,139.31c0,1.4-1.98,4.13-3.59,4.13Z"/>
      <path class="cls-3" d="M251.33,344.07c0-4.38-3.55-7.93-7.93-7.93s-7.93,3.55-7.93,7.93,3.55,7.93,7.93,7.93,7.93-3.55,7.93-7.93Z"/>
    </g>
  </g>
  <g id="Layer_2" data-name="Layer 2">
    <path d="M403.35,169.58c-.13,5.13-3.48,8.2-7.54,8.41-4.31.23-8.25-3.04-8.32-7.96l-.12-8.26c-9.61-1.07-17.22-8.78-17.94-18.65-.36-4.97,3.11-8.74,7.52-8.92,10.34-.41,6.67,12.21,12.2,12.02l10.2-.35c4.36-.15,6.55-4.78,5.85-8.16-.77-3.71-4.5-6.14-8.77-5.68-12.66,1.38-23.85-5.92-26.4-18.16-2.43-11.66,4.49-24.18,17.19-27.11l.23-8.65c.12-4.58,3.5-7.73,7.53-7.92,4.33-.21,8.29,3,8.35,7.93l.1,8.28c9.95,1.16,17.79,9.32,17.85,19.6.03,4.57-3.53,7.86-7.44,7.98-10.34.3-6.49-11.92-12.15-11.94l-8.3-.03c-4.9-.02-8.07,3.21-7.9,7.59.16,4.29,4.21,6.96,8.85,6.56,12.88-1.1,23.89,5.84,26.46,18.16,2.44,11.7-4.53,23.91-17.22,27.16l-.21,8.1Z"/>
    <path d="M99.35,225.58c-.13,5.13-3.48,8.2-7.54,8.41-4.31.23-8.25-3.04-8.32-7.96l-.12-8.26c-9.61-1.07-17.22-8.78-17.94-18.65-.36-4.97,3.11-8.74,7.52-8.92,10.34-.41,6.67,12.21,12.2,12.02l10.2-.35c4.36-.15,6.55-4.78,5.85-8.16-.77-3.71-4.5-6.14-8.77-5.68-12.66,1.38-23.85-5.92-26.4-18.16-2.43-11.66,4.49-24.18,17.19-27.11l.23-8.65c.12-4.58,3.5-7.73,7.53-7.92,4.33-.21,8.29,3,8.35,7.93l.1,8.28c9.95,1.16,17.79,9.32,17.85,19.6.03,4.57-3.53,7.86-7.44,7.98-10.32.3-6.53-11.94-12.12-11.94h-8.34c-4.9-.02-8.07,3.19-7.91,7.56.16,4.29,4.21,6.96,8.84,6.56,12.88-1.1,23.89,5.84,26.46,18.16,2.44,11.7-4.53,23.91-17.22,27.16l-.21,8.1Z"/>
    <circle cx="395.4" cy="40.07" r="7.93"/>
    <circle cx="91.4" cy="96.07" r="7.93"/>
    <path class="cls-1" d="M209.85,365.88l-174.29,37.15c-9.5,2.02-17.65-4.02-19.35-12.99-1.5-7.9,3.65-16.62,12.75-18.55l175.8-37.17c-3.08,11.51-1,21.36,5.09,31.56Z"/>
    <path class="cls-1" d="M282.92,350.33c1.44-11.82-1.3-22.36-8.47-30.99l175.71-37.3c8.93-1.9,16.75,5.45,18.12,12.57,1.64,8.57-3.3,17.15-12.41,19.08l-172.95,36.65Z"/>
    <path class="cls-3" d="M335.81,464.06l-184.29.03c-7.11,0-11.85-5.42-12.1-11.55-.26-6.47,4.64-12.45,12.11-12.45h183.75c7.09,0,11.92,5.46,12.11,11.53.17,5.73-3.98,12.44-11.57,12.44Z"/>
    <path class="cls-3" d="M443.96,240.07h-95.52c-13.86.37-24.91-10.25-25.01-24h143.93c-.12,12.91-9.85,23.43-23.4,24Z"/>
    <path class="cls-3" d="M139.96,296.07H44.44c-13.86.37-24.91-10.25-25.01-24h143.93c-.12,12.91-9.85,23.43-23.4,24Z"/>
    <path class="cls-1" d="M259.43,424.04l-32.04.06.04-43.83c10.46,5.01,21.49,5.03,31.95-.01l.05,43.78Z"/>
    <polygon class="cls-3" points="99.46 340.26 83.42 343.69 83.4 312.08 99.39 312.06 99.46 340.26"/>
    <polygon class="cls-3" points="403.51 275.5 387.39 279.12 387.4 256.08 403.37 256.06 403.51 275.5"/>
    <circle class="cls-3" cx="243.4" cy="344.07" r="23.98"/>
  </g>
  <g id="Layer_3" data-name="Layer 3">
    <circle cx="243.4" cy="344.07" r="7.93"/>
  </g>
</svg>