<?xml version="1.0" encoding="UTF-8"?>
<svg id="Layer_1" xmlns="http://www.w3.org/2000/svg" version="1.1" viewBox="0 0 386.7 386.4">
  <!-- Generator: Adobe Illustrator 30.3.0, SVG Export Plug-In . SVG Version: 2.1.3 Build 182)  -->
  <defs>
    <style>
      .st0 {
        fill: #fff;
      }

      .st1 {
        fill: #456e89;
      }
    </style>
  </defs>
  <path class="st1" d="M344.2.3L42.5,0C19.1,0,0,19.1,0,42.5v301c0,16.1,9.1,30.2,22.3,37.4,6.2,3.5,13.3,5.5,20.9,5.5h301c23.4,0,42.5-19.1,42.5-42.5V42.8c0-23.4-19.1-42.5-42.5-42.5Z"/>
  <g>
    <path class="st0" d="M40.5,108.9h.4c2.1-3.4,4.5-7.1,6.9-10.1l21.1-27.8h26.3l-32.2,35.4,36.7,51.4h-26.9l-25-38.4-7.4,8.8v29.6h-21.9V31h21.9v77.9h.1Z"/>
    <path class="st0" d="M183.5,70.9c-.4,5.9-.7,13-.7,25v49.2c0,18.2-3.7,31.1-12.9,39.3-9,8.1-21.7,10.6-33.6,10.6s-22.8-2.5-30.2-6.9l4.7-16.7c5.6,3.3,14.8,6.7,25.4,6.7s25-7.5,25-26.2v-7.4h-.4c-4.9,7.5-13.8,12.8-25.2,12.8-21.5,0-36.9-17.8-36.9-42.4s18.5-45.9,39.2-45.9,21.1,6.3,25.2,13.6h.4l.8-11.5h19.2v-.2ZM160.9,105.7c0-2.1-.1-4.1-.7-5.9-2.3-8.1-8.6-14.1-18-14.1s-21.4,10.7-21.4,28.4,7.4,26.7,21.2,26.7,15.2-5.3,17.7-13.3c.7-2.3,1-5.2,1-7.7v-14.1h.2Z"/>
  </g>
  <g>
    <path class="st0" d="M232.7,32.9h24.4v141.1h-24.4V32.9h0Z"/>
    <path class="st0" d="M277,173.9c.5-6.6.8-17.3.8-27.2V32.9h24.4v57.6h.5c6-9.5,16.5-15.6,30.9-15.6,23.5,0,40.5,19.6,40.3,49,0,34.8-22,52.1-44,52.1s-23.5-4.7-30.5-16.8h-.5l-1.1,14.5h-20.8v.2h0ZM302.2,134c0,2,.2,4,.6,5.8,2.6,9.9,11,17.1,21.5,17.1,15.3,0,24.6-12.2,24.6-31.8s-8.2-31-24.3-31-19.1,7-21.7,17.9c-.5,1.8-.8,4-.8,6.4v15.6h0Z"/>
  </g>
  <g>
    <path class="st0" d="M270.1,246c0,18.5-15.1,31.3-31.9,31.3s-31.4-13.8-31.4-30.4,14.1-31.6,31.8-31.6c19.2.2,31.6,14.4,31.6,30.8h-.1ZM222,246.8c0,9.7,7,17.3,16.5,17.3s16.5-7.6,16.5-17.8-5.3-17.8-16.7-17.8-16.3,9-16.3,18.4h0Z"/>
    <path class="st0" d="M280.1,217.7h86.1v22.4h-59v41.1h54.7v22.3h-54.7v63.2h-27.2v-149h.1Z"/>
  </g>
  <g>
    <path class="st0" d="M74.2,248.4c0,18.5-15.1,31.3-31.9,31.3s-31.4-13.8-31.4-30.4c-.2-17.7,14.1-31.6,31.8-31.6,19,.2,31.6,14.4,31.6,30.8h0ZM25.9,249.3c0,9.7,7,17.3,16.5,17.3s16.5-7.6,16.5-17.8-5.3-17.8-16.7-17.8-16.3,9-16.3,18.4h0Z"/>
    <path class="st0" d="M187.1,364.8c-6.5,3.2-20.6,6.8-38.7,6.8-47.2,0-76-29.7-76-74.9s34.2-78.5,79.7-78.5,30.6,3.6,36,6.6l-5.9,21.7c-7-3.2-16.8-5.8-29.1-5.8-30.4,0-52.2,19-52.2,54.7s19.2,53.5,51.8,53.5,22.4-2.2,29.7-5.4l4.6,21.2h0Z"/>
  </g>
</svg>