<?xml version="1.0" encoding="UTF-8"?>
<svg id="Layer_1" xmlns="http://www.w3.org/2000/svg" version="1.1" viewBox="0 0 1920 1920">
  <!-- Generator: Adobe Illustrator 30.4.0, SVG Export Plug-In . SVG Version: 2.1.4 Build 226)  -->
  <defs>
    <style>
      .st0 {
        fill: #ccc;
      }

      .st1 {
        fill: #fff;
      }

      .st2 {
        fill: #dd9a05;
      }

      .st3 {
        fill: #e8e8e8;
      }
    </style>
  </defs>
  <path d="M1830.86,590.71l-.09,866.11c0,43.04-38.08,81.97-81.18,81.97l-1563.63.09c-44.5,0-83.26-38.38-83.26-83.1l-.04-864.53c0-46.08,40.16-82.34,84.17-82.77l17.09-.17v-25.3c3.05-54.8,47.05-99.05,102.05-101.88l575.56.31c33.89.02,64.73,20.73,83.27,47.05l1.75,2.49c.32.45.93-.68,1.75-1.86,18.76-27.13,50.1-47.73,84.62-47.74l576.4-.22c54.57,3.9,97.92,48.22,100.25,102.82v22.16c.01.53.21,2.11.69,2.12l2.33.03,20.67.59c40.68,2.94,77.6,38.3,77.59,81.85ZM950.21,1441.55V486.26c-1.84-40.53-35.1-72.42-75.63-72.4l-562.67.03c-39.84,0-75.03,32.66-75.05,73.35l-.44,846.55c-.02,40.44,29.26,75.26,70.16,78.69l572.93.18c27.1,0,49.98,11.82,70.7,28.89ZM1696.91,1337.3l-.25-851.06c-.01-40.32-36-72.35-74.94-72.36l-562.86-.03c-39.19-.05-75.29,31.92-75.3,72.39l-.27,955.64c20.22-17.45,44.07-29.23,70.71-29.24l573.11-.18c37.9-3.18,69.82-35.8,69.81-75.17ZM949.49,1484.67c-.01-.43-1.55-1.91-1.46-1.68-6.64-.65-10.64-3.85-13.93-9.65-13.08-14.94-32.13-27.47-53.53-27.48l-571.34-.48c-55.96-.05-101.42-45.48-105.32-100.7v-803.23s-17.89.13-17.89.13c-28.08.2-50.48,24.3-50.48,52.65l.13,860.58c0,28.67,25.25,51.35,53.28,51.35l761.23.02-.7-21.49ZM983.24,1485.83l.2,20.33h761.1c28.36.23,50.94-21.19,53.44-49.41l-.16-865.56c0-27.6-25.14-49.26-50.72-49.68l-15.96-.26-1.5,2.02v800.46c-3.32,56.16-49.1,100.63-105.33,101.87l-569.36.12c-22.64,0-43.61,12.39-56.66,29.49-7.42,9.72-15.07,7.47-15.07,8.68v1.94Z"/>
  <path class="st0" d="M983.24,1485.83v-1.94c-.02-1.2,7.63,1.05,15.05-8.68,13.05-17.1,34.03-29.48,56.66-29.49l569.36-.12c56.23-1.24,102.01-45.72,105.34-101.87v-800.46s1.49-2.02,1.49-2.02l15.96.26c25.58.42,50.71,22.08,50.72,49.68l.16,865.56c-2.5,28.22-25.07,49.64-53.44,49.4h-761.1s-.2-20.32-.2-20.32Z"/>
  <g>
    <path class="st1" d="M1696.91,1337.3c.01,39.37-31.9,72-69.81,75.17l-573.11.18c-26.64,0-50.49,11.79-70.71,29.24l.27-955.64c.01-40.47,36.11-72.44,75.3-72.39l562.86.03c38.94,0,74.93,32.03,74.94,72.36l.25,851.06ZM1598,779.05c10.55,0,17.29-5.15,18.44-14.88.89-7.5-4.67-17.54-13.86-17.61l-41.91-.34c-8.09-99.38-85.6-178.51-185.08-187.07l-.22-48.07c-.04-9.25-9.07-15.25-16.95-14.85-8.96.46-15.98,7.32-15.99,16.77l-.04,46.18c-98.85,8.45-176.87,87.31-184.93,187.06l-41.65.29c-9.28.06-15.09,10.1-14.17,17.78,1.16,9.76,8.48,14.75,18.37,14.75h477.99ZM1435.6,913.94c9.8,0,16.76-7.69,16.74-16.55-.02-8.09-6.24-16.52-15.71-16.51l-346.67.04c-9.52,0-15.41,9.72-14.86,17.33.64,8.79,7.32,15.69,16.88,15.69h343.62ZM1603.25,913.95c10.41,0,16.99-8.27,16.85-16.65-.16-9.91-7.65-16.48-17.32-16.48l-91,.04c-9.5,0-16.54,7.78-16.46,16.61.08,8.77,6.83,16.44,16.55,16.44l91.38.03ZM1183.28,1007.99c10.04,0,16.35-9.04,15.88-17.44s-7.26-15.64-16.4-15.63l-91.9.07c-9.76,0-16.26,8.82-15.82,17.29s7.28,15.78,16.8,15.77l91.44-.07ZM1602.08,1008.07c10.66,0,17.25-7.57,17.28-16.6.03-8.72-6.82-16.55-16.78-16.55h-343.63c-9.96,0-16.73,7.67-16.76,16.58-.02,8.95,6.82,16.56,16.76,16.56h343.13ZM1438.08,1102.11c9.8-1.66,15.02-9.73,14.12-18.19-.84-7.85-7.47-14.91-16.61-14.91h-343.59c-9.59,0-16.29,7.09-16.9,15.75-.54,7.69,5.4,17.3,14.84,17.31l348.14.05ZM1602.29,1102.21c10.51,0,17.77-6.92,17.79-16.74.02-9.14-7.25-16.48-17.4-16.48l-90.8.06c-10.15,0-17.01,8.46-16.53,17.38.5,9.36,7.76,15.71,17.45,15.72l89.48.05ZM1185.26,1195.92c9.17,0,14.4-9.89,13.87-17.29-.5-6.97-6.19-15.04-14.36-15.03l-95.64.05c-8.38,0-13.94,8.8-14.06,15.97s5.32,16.35,13.71,16.35l96.48-.04ZM1606.06,1196.04c9.26,0,13.73-11.07,13.24-17.43-.51-6.74-5.9-15.08-14.3-15.08l-347.27-.06c-8.81,0-14.92,7.37-15.54,15.5-.52,6.8,4.82,17.1,13.82,17.1l350.04-.03ZM1437.13,1257.52l-347.18.06c-9.27,0-15.03,9.15-14.9,16.78s6.2,16.19,15.31,16.19l345.86.03c9.44,0,16.03-8,16.1-16.22.07-8.4-5.32-15.79-15.18-16.83ZM1605.28,1257.71l-94.5-.1c-9.62,0-16.11,9.08-15.4,17.74.69,8.43,7.33,15.27,16.7,15.26l92.25-.07c9.29,0,15.51-7.98,15.74-16.11.22-7.72-5.2-16.71-14.79-16.72Z"/>
    <path d="M1598,779.05h-477.99c-9.89,0-17.21-4.99-18.37-14.75-.92-7.68,4.89-17.72,14.17-17.78l41.65-.29c8.07-99.74,86.08-178.61,184.93-187.06l.04-46.18c0-9.45,7.02-16.31,15.99-16.77,7.88-.4,16.91,5.59,16.95,14.85l.22,48.07c99.48,8.56,176.98,87.69,185.08,187.07l41.91.34c9.2.07,14.75,10.11,13.86,17.61-1.16,9.73-7.89,14.88-18.44,14.88ZM1527.51,746.33c-3.75-39-20.16-73.76-45.42-100.92-63.81-68.62-170.23-72.18-238.37-7.76-29.83,28.2-49.13,66.4-53.11,108.7h336.89Z"/>
    <path d="M1437.13,1257.52c9.86,1.05,15.25,8.43,15.18,16.83-.07,8.22-6.66,16.22-16.1,16.22l-345.86-.03c-9.1,0-15.19-8.67-15.31-16.19s5.63-16.78,14.9-16.78l347.18-.06Z"/>
    <path d="M1435.6,913.94h-343.62c-9.57,0-16.24-6.9-16.88-15.69-.55-7.61,5.34-17.33,14.86-17.33l346.67-.04c9.47,0,15.69,8.42,15.71,16.51.02,8.86-6.94,16.55-16.74,16.55Z"/>
    <path d="M1438.08,1102.11l-348.14-.05c-9.43,0-15.38-9.62-14.84-17.31.61-8.66,7.31-15.75,16.9-15.75h343.59c9.14,0,15.77,7.07,16.61,14.92.91,8.46-4.31,16.53-14.12,18.19Z"/>
    <path d="M1602.08,1008.07h-343.13c-9.94,0-16.78-7.62-16.76-16.57.02-8.91,6.8-16.59,16.76-16.59h343.63c9.96,0,16.81,7.83,16.78,16.55-.03,9.03-6.63,16.6-17.28,16.6Z"/>
    <path d="M1606.06,1196.04l-350.04.03c-9,0-14.34-10.29-13.82-17.1.62-8.13,6.73-15.5,15.54-15.5l347.27.06c8.41,0,13.79,8.33,14.3,15.08.48,6.36-3.98,17.43-13.24,17.43Z"/>
    <path d="M1605.28,1257.71c9.59,0,15.01,9,14.79,16.72-.23,8.13-6.45,16.1-15.74,16.11l-92.25.07c-9.37,0-16-6.83-16.7-15.26-.71-8.65,5.78-17.75,15.4-17.74l94.5.1Z"/>
    <path d="M1603.25,913.95l-91.38-.03c-9.72,0-16.47-7.67-16.55-16.44-.08-8.83,6.95-16.6,16.46-16.61l91-.04c9.67,0,17.16,6.57,17.32,16.48.14,8.38-6.44,16.65-16.85,16.65Z"/>
    <path d="M1602.29,1102.21l-89.48-.05c-9.69,0-16.95-6.36-17.45-15.72-.48-8.92,6.38-17.38,16.53-17.38l90.8-.06c10.14,0,17.42,7.34,17.4,16.48-.02,9.81-7.28,16.74-17.79,16.74Z"/>
    <path d="M1183.28,1007.99l-91.44.07c-9.53,0-16.35-7-16.8-15.77s6.06-17.28,15.82-17.29l91.9-.07c9.14,0,15.93,7.33,16.4,15.63s-5.83,17.43-15.88,17.44Z"/>
    <path d="M1185.26,1195.92l-96.48.04c-8.39,0-13.84-9.26-13.71-16.35s5.68-15.97,14.06-15.97l95.64-.05c8.17,0,13.86,8.07,14.36,15.03.53,7.41-4.7,17.29-13.87,17.29Z"/>
    <path class="st3" d="M1527.51,746.33h-336.89c3.98-42.28,23.28-80.48,53.11-108.69,68.13-64.41,174.56-60.86,238.37,7.76,25.26,27.17,41.67,61.92,45.42,100.92Z"/>
  </g>
  <g>
    <path class="st1" d="M950.21,1441.55c-20.72-17.08-43.6-28.89-70.7-28.89l-572.93-.18c-40.9-3.43-70.18-38.25-70.16-78.69l.44-846.55c.02-40.7,35.21-73.35,75.05-73.35l562.67-.03c40.54-.02,73.8,31.88,75.65,72.4v955.29ZM704.3,814.03c44.05-8.96,83.79-39.06,103.52-82.21,26.85-58.74,12.93-129.14-34.96-172.72-54.94-50-139.11-50.61-194.71-2.02l-24.85-10.47c-14.44-6.09-30.38-.93-41.44,10.02l-40.49-17.29c-.06-28.01-22.3-48.91-49.1-48.62-26.75.29-48.21,21.69-48.34,49.68-12.11,11.78-17.39,28.83-14.02,45.76,4.32,17.26,14.5,29.68,30.89,35.95,17.18,6.58,36.4,2.44,50.3-10.21l40.38,17.06c-.54,16.33,8.25,31.14,23.55,37.76l23.06,9.98c5.9,92.16,88.47,155.16,176.22,137.31ZM421.25,913.94c10.58,0,17.39-8.25,16.94-17.42s-7.94-15.75-17.44-15.74l-90.98.14c-9.67.01-16.06,8.85-15.58,17.51s7.26,15.49,16.64,15.5l90.42.02ZM843,913.9c10.19,0,16.02-8.37,16.13-16.46.09-7.27-5.38-16.52-14.54-16.52l-347.67-.05c-9.78,0-16.08,8.92-15.68,17.33s7.22,15.73,16.72,15.73l345.04-.04ZM675.09,1008.05c10.48,0,16.69-8.97,16.23-17.34s-7.06-15.8-16.73-15.8h-343.64c-10.03,0-16.93,7.83-16.79,17.08.12,8.42,6.93,16.08,16.81,16.08l344.12-.02ZM842.29,1008.08c10.57,0,17.33-8.34,16.84-17.55s-7.76-15.69-17.39-15.68l-91.91.15c-9.48.02-15.97,9.14-15.45,17.41.53,8.36,7.17,15.62,16.43,15.63l91.48.04ZM421.3,1102.14c10.16.02,16.94-7.61,16.91-16.65-.03-8.57-6.79-16.42-16.56-16.42l-90.76-.02c-9.42,0-16.07,7.08-16.65,15.54-.54,8.01,5.16,17.34,14.59,17.36l92.47.19ZM845.02,1101.98c10.19,0,14.86-11.1,14.03-18.27-1.01-8.7-7.89-14.73-17.49-14.73l-343.6.02c-9.51,0-16.15,7.38-16.72,15.82-.5,7.48,5.43,17.21,14.7,17.21l349.08-.06ZM677.96,1196.18c9.24-2.32,13.94-9.4,13.34-17.57-.51-6.92-6.13-15.11-14.64-15.11h-347.69c-8.97.01-14.53,8.57-14.76,16.02-.21,6.72,4.98,16.58,13.74,16.58l350.02.08ZM846.08,1195.79c8.81-.01,13.16-9.96,13.07-16.29-.09-6.8-5.11-15.76-13.49-15.77l-96.88-.13c-8.5-.01-14.24,8.53-14.39,15.99-.13,6.92,5.14,16.32,13.52,16.31l98.16-.11ZM330.65,1290.57l90.86.04c10.16,0,17.34-8.22,16.69-17.88s-8.57-15.4-18.47-15.36l-90.93.36c-9.45.04-15.17,9.46-14.55,17.67.6,7.85,6.87,15.16,16.4,15.17ZM844.11,1257.6h-348.17c-9.53,0-15.17,9.81-14.69,17.38.52,8.17,6.91,15.61,16.08,15.61l345,.02c9.49,0,16.14-6.9,16.75-15.26.57-7.82-4.67-17.75-14.98-17.75Z"/>
    <path class="st0" d="M949.49,1484.67l.7,21.49-761.23-.02c-28.03,0-53.28-22.68-53.28-51.35l-.13-860.58c0-28.34,22.4-52.45,50.48-52.65l17.88-.13v803.23c3.91,55.21,49.37,100.65,105.33,100.7l571.34.48c21.4.02,40.45,12.55,53.53,27.48,3.29,5.8,7.29,8.99,13.93,9.65-.1-.23,1.44,1.25,1.46,1.68Z"/>
    <path d="M844.11,1257.6c10.31,0,15.55,9.93,14.98,17.75-.61,8.36-7.26,15.26-16.75,15.26l-345-.02c-9.17,0-15.56-7.44-16.08-15.61-.48-7.57,5.16-17.38,14.69-17.38h348.17Z"/>
    <path d="M845.02,1101.98l-349.08.06c-9.27,0-15.2-9.73-14.7-17.21.57-8.44,7.21-15.82,16.72-15.82l343.6-.02c9.6,0,16.48,6.03,17.49,14.73.83,7.17-3.84,18.27-14.03,18.27Z"/>
    <path d="M843,913.9l-345.04.04c-9.5,0-16.31-7.22-16.72-15.73s5.9-17.34,15.68-17.33l347.67.05c9.16,0,14.64,9.25,14.54,16.52-.11,8.09-5.94,16.46-16.13,16.46Z"/>
    <path d="M675.09,1008.05l-344.12.02c-9.88,0-16.69-7.66-16.81-16.08-.13-9.25,6.77-17.07,16.79-17.07h343.64c9.66,0,16.24,7.06,16.73,15.79s-5.75,17.34-16.23,17.34Z"/>
    <path d="M677.96,1196.18l-350.02-.08c-8.76,0-13.94-9.86-13.74-16.58.23-7.45,5.79-16.01,14.76-16.01h347.69c8.51-.01,14.13,8.18,14.64,15.1.6,8.17-4.09,15.24-13.34,17.57Z"/>
    <path d="M842.29,1008.08l-91.48-.04c-9.26,0-15.9-7.26-16.43-15.63-.52-8.27,5.97-17.39,15.45-17.41l91.91-.15c9.62-.02,16.9,6.67,17.39,15.68s-6.27,17.55-16.84,17.55Z"/>
    <path d="M846.08,1195.79l-98.16.11c-8.38,0-13.66-9.39-13.52-16.31.14-7.46,5.88-16,14.39-15.99l96.88.13c8.38.01,13.4,8.97,13.49,15.77.09,6.33-4.26,16.28-13.07,16.29Z"/>
    <path d="M330.65,1290.57c-9.53,0-15.8-7.32-16.4-15.17-.62-8.21,5.1-17.63,14.55-17.67l90.93-.36c9.9-.04,17.83,5.89,18.47,15.36s-6.53,17.88-16.69,17.88l-90.86-.04Z"/>
    <path d="M421.25,913.94l-90.42-.02c-9.38,0-16.17-7.17-16.64-15.5s5.91-17.5,15.58-17.51l90.98-.14c9.5-.01,16.99,6.55,17.44,15.74s-6.36,17.42-16.94,17.42Z"/>
    <path d="M421.3,1102.14l-92.47-.19c-9.43-.02-15.13-9.35-14.59-17.36.58-8.46,7.23-15.55,16.65-15.54l90.76.02c9.77,0,16.52,7.85,16.56,16.42.03,9.04-6.74,16.67-16.91,16.65Z"/>
    <g>
      <path d="M704.3,814.03c-87.75,17.85-170.31-45.15-176.22-137.31l-23.06-9.98c-15.3-6.62-24.09-21.44-23.55-37.76l-40.38-17.06c-13.9,12.65-33.12,16.79-50.3,10.21-16.39-6.27-26.57-18.69-30.89-35.95-3.37-16.94,1.91-33.98,14.02-45.76.13-27.99,21.59-49.39,48.34-49.68,26.8-.29,49.04,20.6,49.1,48.62l40.49,17.29c11.06-10.96,27-16.11,41.44-10.02l24.85,10.47c55.6-48.59,139.77-47.97,194.71,2.02,47.89,43.58,61.81,113.98,34.96,172.72-19.73,43.15-59.47,73.25-103.52,82.21ZM441.33,576.04l50.3,21.28,4.64-11.36-50.71-21.72c-7.15-3.06-9.93-11.53-8.16-18.62s1.02-13.95-4.96-18.55c-4.78-3.68-12.19-4.89-18.33-.63-4.65,3.22-8.21,9.9-6.58,16.59,2.01,8.23-1.65,14.96-8.33,19.4-5.98,3.97-8.53,11.51-6.6,18.05,1.77,6.01,7.09,11.23,14.15,11.63,6.33.36,11.67-3.03,14.82-8.49,3.61-6.24,11.96-10.89,19.74-7.6ZM518.56,636.59l32.76,13.96c5.4,2.3,9.53,8.23,9.47,14.48-.33,31.01,10.54,60.72,31.54,83.1,38.92,41.46,101.39,47.64,147.75,15.01,43.87-30.88,59.78-88.24,39.63-137.82-14.05-34.58-43.89-59.57-77.94-67.82-39.38-9.55-78.41,1.67-106.37,28.78-5.89,5.71-12.53,8.62-20.3,5.33l-33.68-14.26c-2.15-.91-6.16,2.29-6.98,4.24l-19.76,47.43c-1.15,2.77,1.27,6.45,3.89,7.57Z"/>
      <path class="st2" d="M518.56,636.59c-2.62-1.12-5.04-4.8-3.89-7.57l19.76-47.43c.81-1.95,4.82-5.15,6.98-4.24l33.68,14.26c7.77,3.29,14.41.38,20.3-5.33,27.97-27.11,66.99-38.33,106.37-28.78,34.04,8.25,63.88,33.24,77.94,67.82,20.15,49.59,4.24,106.95-39.63,137.82-46.36,32.63-108.83,26.45-147.75-15.01-21.01-22.38-31.88-52.1-31.54-83.1.07-6.26-4.07-12.18-9.47-14.48l-32.76-13.96Z"/>
      <path class="st1" d="M441.33,576.04c-7.79-3.29-16.14,1.35-19.74,7.6-3.15,5.46-8.49,8.85-14.82,8.49-7.06-.4-12.38-5.62-14.15-11.63-1.93-6.54.62-14.09,6.6-18.05,6.69-4.44,10.34-11.17,8.33-19.4-1.63-6.69,1.94-13.37,6.58-16.59,6.14-4.26,13.54-3.05,18.33.63,5.98,4.6,6.71,11.54,4.96,18.55s1.01,15.56,8.16,18.62l50.71,21.72-4.64,11.36-50.3-21.28Z"/>
    </g>
  </g>
</svg>