<?xml version="1.0" encoding="utf-8"?>
<!-- Generator: Adobe Illustrator 28.1.0, SVG Export Plug-In . SVG Version: 6.00 Build 0)  -->
<svg version="1.1" id="Layer_1" xmlns="http://www.w3.org/2000/svg" xmlns:xlink="http://www.w3.org/1999/xlink" x="0px" y="0px"
	 viewBox="0 0 300 300" style="enable-background:new 0 0 300 300;" xml:space="preserve">
<style type="text/css">
	.st0{fill:none;stroke:#FFFFFF;stroke-width:6;stroke-miterlimit:10;}
	.st1{fill:#BA79AE;}
	.st2{fill:#B63D96;}
	.st3{fill:#F7921E;}
	.st4{fill:#3E6FC6;}
	.st5{fill:#459B70;}
	.st6{fill:#68C193;}
	.st7{fill:#DBB67C;}
</style>
<line class="st0" x1="242.7" y1="146.9" x2="193.8" y2="226"/>
<ellipse transform="matrix(0.1602 -0.9871 0.9871 0.1602 58.7219 363.0193)" class="st1" cx="242.7" cy="147" rx="18" ry="18"/>
<line class="st0" x1="193.8" y1="226" x2="268.3" y2="199.5"/>
<line class="st0" x1="177.3" y1="43.3" x2="105.7" y2="37.5"/>
<line class="st0" x1="70.5" y1="147" x2="72.7" y2="84.6"/>
<line class="st0" x1="70.5" y1="147" x2="20.7" y2="181.2"/>
<line class="st0" x1="90.7" y1="212.4" x2="70.5" y2="147"/>
<line class="st0" x1="193.8" y1="226" x2="131.3" y2="261.3"/>
<line class="st0" x1="221.8" y1="279.3" x2="193.8" y2="226"/>
<polyline class="st0" points="227.3,94.4 151,151.3 70.5,147 "/>
<line class="st0" x1="151" y1="151.3" x2="193.8" y2="226"/>
<path class="st0" d="M70.5,147"/>
<line class="st0" x1="227.3" y1="94.4" x2="177.3" y2="43.3"/>
<circle class="st2" cx="193.8" cy="226" r="26.5"/>
<path class="st2" d="M270.9,173.1c15.9,1.6,26.7,16.5,23.3,32c-2.8,13-15.2,22.1-28.5,20.8c-15.9-1.6-26.7-16.5-23.3-32
	C245.2,180.9,257.6,171.8,270.9,173.1z"/>
<circle class="st3" cx="227.3" cy="94.4" r="26.5"/>
<circle class="st4" cx="151.9" cy="152.2" r="39.8"/>
<circle class="st3" cx="177.3" cy="43.3" r="26.5"/>
<circle class="st5" cx="70.5" cy="146.9" r="26.5"/>
<circle class="st1" cx="221.8" cy="279.3" r="18"/>
<ellipse class="st1" cx="131.3" cy="261.3" rx="18" ry="18"/>
<circle class="st6" cx="90.7" cy="212.4" r="18"/>
<ellipse class="st6" cx="20.7" cy="181.2" rx="18" ry="18"/>
<circle class="st6" cx="72.7" cy="84.6" r="18"/>
<circle class="st7" cx="105.7" cy="37.5" r="18"/>
</svg>
