<svg version="1.1" id="Layer_1" xmlns="http://www.w3.org/2000/svg" xmlns:xlink="http://www.w3.org/1999/xlink" x="0px" y="0px"
	 viewBox="0 0 384 384" style="height:50px; width:auto; enable-background:new 0 0 50 50;" xml:space="preserve">
<style type="text/css">
	.backRedCircle{fill:#F85D48;}
	.clockFace{fill:#E3EDF8;}
	.minuteHand {fill: #415C6D;}
	.hourHand {fill: #415C6D;}
	.secondHand {fill: #415C6D;}
	.tickMarks{fill:#00AADF;}
	.centerCircle {fill:#415C6D;}
</style>
<circle class="backRedCircle" cx="192" cy="192" r="182"/>
<circle class="clockFace" cx="192" cy="192" r="158"/>
<path class="tickMarks" d="M197.4,70c0,0.2,0,0.5,0,0.7c-0.3,3.9-2.5,6.2-6,6.1c-3.3-0.1-5.6-2.3-5.7-6c-0.1-5.7-0.1-11.4,0-17
	c0.1-3.9,2.5-6.2,6-6.1c3.3,0.1,5.5,2.4,5.7,6c0.1,2.8,0,5.7,0,8.5C197.4,64.8,197.4,67.4,197.4,70z"/>
<path class="tickMarks" d="M312.7,197.8c-3.7-0.2-6-2.4-6-5.7c-0.1-3.5,2.2-5.9,6.1-5.9c5.7-0.1,11.4-0.1,17,0c3.7,0.1,6,2.4,6,5.6
	c0.1,3.5-2.3,5.8-6.1,6c-2.8,0.1-5.7,0-8.5,0S315.6,197.9,312.7,197.8z"/>
<path class="tickMarks" d="M185.8,328.7c-0.4-5.1-0.2-10.4-0.1-15.5c0-4.3,2.1-6.7,5.6-6.8c3.7-0.1,6,2.4,6,6.8c0.1,5.2,0.3,10.4-0.1,15.5
	c-0.2,2.2,0.2,7.1-5.7,7.1C185.6,335.8,186,330.9,185.8,328.7z"/>
<path class="tickMarks" d="M70.3,186.2c3.9,0.2,6.2,2.5,6.1,5.9c-0.1,3.3-2.3,5.6-6,5.7c-5.7,0.1-11.4,0.1-17,0c-3.9-0.1-6.2-2.5-6.1-5.9
	c0.1-3.3,2.4-5.5,6-5.7c2.8-0.1,5.7,0,8.5,0C64.6,186.2,67.4,186.1,70.3,186.2z"/>
<path class="minuteHand" id="pMinuteHand" d="M202.85,192.4h-22.56c0.45-26.98-0.48-87.04,0.04-114.09c0.12-7.93,4.96-12.86,11.97-12.63
	c6.73,0.24,11.18,5.59,10.98,13.17L202.85,192.4z"/>
<path class = "hourHand" id="pHourHand" d = "M 180 192 l 0 -84 c 0 -6 5 -11 12 -11 c 7 0 12 5 12 11 l 0 84 z"/>
<path class = "secondHand" id="pSecondHand" d = "m 198 65 v 111 H 186 v -111 c 0 -3 2 -6 6 -6 c 4 0 6 3 6 6 z"/>

<circle class="centerCircle" cx="192" cy="192" r="20"/>
</svg>