<?xml version="1.0" encoding="UTF-8"?>
<svg id="Layer_1" xmlns="http://www.w3.org/2000/svg" version="1.1" viewBox="0 0 425.2 425.2">
  <!-- Generator: Adobe Illustrator 30.2.1, SVG Export Plug-In . SVG Version: 2.1.1 Build 1)  -->
  <defs>
    <style>
      .st0 {
        fill: #baa759;
      }

      .st1 {
        fill: #878887;
      }

      .st2 {
        fill: #f8f8f2;
      }

      .st3 {
        fill: #dfdfdf;
      }

      .st4 {
        fill: #a6a7a8;
      }

      .st5 {
        fill: #7e8088;
      }

      .st6 {
        fill: #a3a3a2;
      }

      .st7 {
        fill: #b8b8bb;
      }

      .st8 {
        fill: #a4a39f;
      }

      .st9 {
        fill: #cccdc9;
      }

      .st10 {
        fill: #4e7c06;
      }

      .st11 {
        fill: #fff;
      }

      .st12 {
        fill: #f0f0ec;
      }

      .st13 {
        fill: #d0d0cc;
      }

      .st14 {
        fill: #715234;
      }

      .st15 {
        fill: #eee;
      }

      .st16 {
        fill: #6d5229;
      }
    </style>
  </defs>
  <path class="st3" d="M278.7,124.6c-.4,0-1.8-2.2-3.5-5.8-.5,0-126.6.5-126.6.5l1.4,6.9,123.7-1.5h5Z"/>
  <path class="st0" d="M327.6,115.9c0-11.1-6.9-16.3-8.1-17.1-.5-.4-1.1-.8-1.7-1.2-.8-.4-5.5-3.9-20.5-3.7-15,.2-27.4,9.4-27.4,19.7s8.8,16.7,8.7,16.8c-14.2,0-30.3,3.7-30.3,20.5s16.2,26,22.5,26.7c.8.1,1.6.2,2.5.2,12.4,0,30.2.4,30.2-19.3s-7.7-13.9-5.9-15.7c.8-.8,13.8-2.4,16.2-2.4,10.3,0,13.8-19.7,13.8-24.5ZM274.8,132c3.2,0,5.8,1.7,5.8,3.8s-2.6,3.8-5.8,3.8-5.8-1.7-5.8-3.8,2.6-3.8,5.8-3.8Z"/>
  <path d="M248.2,156.8c-.2.2-.4.3-.6.5.2-.2.4-.3.6-.5Z"/>
  <path class="st11" d="M195.4,425.2h.3c-.1-1.8-.2-3.8-.3-5.7v5.7Z"/>
  <path class="st10" d="M308.4,197.4c-6,7.8-11.8,15.3-17.4,22.6"/>
  <path class="st15" d="M225.6,425.2h.5v-13.5c-.3,6.2-.5,10.9-.6,13.5h.1Z"/>
  <path class="st13" d="M237.1,294.2c-.3-.1,5.2-9.2,11.5-19.4-4.3,5.6-6.8,8.8-6.8,8.8l-3.6,6.7s-52.3.5-52.6.5c.4,3.2,9,116.1,9.8,128.6.1,2,.2,3.9.3,5.7h3.5l-2.5-54.4c-.2-37.7-8.3-68.7-9.6-74.7-.3-1.8-.6-3.7,1.8-4,2.3-.3,2.6,1.6,2.7,3.2,1.2,8.5,8.3,40,8.5,74.5,0,8.9.2,34.2.3,55.4h5.5c-2.6-44.3-7.6-128.3-7.6-128.3l24.3-.2s-5.3,79.9-8.3,128.5h3.1v-2.5c0-.8-.3-2,.4-2.6l-.9-5.3c.2-3.1,2.1-40,2-42.9.5-1.5,1.1,4.6,1.2,12.3,0-.5.2-1.1.2-1.6.6-13.5,1.1-25.5,1.2-25.8,3.4-46.3,7.8-57.2,9.3-63.5.3-1.1,2.4-2.6,3.7-2.7,2.6-.2,1.9,2.3,1.8,3.5-1,5.2-10.4,42.3-11.8,131.1h1.1c0-2.6.2-7.3.6-13.5.6-11.5,8.4-107.5,10.9-117.4h0Z"/>
  <polygon class="st13" points="218.7 425.2 219.6 425.2 218.9 421 218.7 425.2"/>
  <path class="st13" d="M261.5,253.4c-13.4,17.9-23.4,30.1-25.6,29.2-.1,0-.2-.1-.3-.2v.3c-.8.3-2.5,1-2.6,1.1h8.8l19.7-30.3h0Z"/>
  <path class="st13" d="M234.4,276.9l-.2.2s-1.5,4.1-2.5,6.7h1.3l1.2-6.6.2-.3h0Z"/>
  <path class="st12" d="M220.3,382.5c0,.5-.2,1.1-.2,1.6v2.9c0-1.5.1-3,.2-4.5Z"/>
  <path class="st1" d="M236.3,294c0-1.2.8-3.7-1.8-3.5-1.3,0-3.4,1.6-3.7,2.7-1.5,6.3-5.9,17.2-9.3,63.5,0,.2-.6,12.2-1.2,25.8,0,1.5-.1,3-.2,4.5v8.8c-.7,8.1-.7,16-.9,23.9,0,.3-.2.6-.2.9v.4l.7,4.2h5c1.3-88.9,10.8-125.9,11.8-131.1h-.2Z"/>
  <path class="st8" d="M200.1,369.7c-.2-34.5-7.3-66-8.5-74.5-.1-1.6-.4-3.5-2.7-3.2-2.4.3-2.1,2.2-1.8,4,1.3,6,9.4,37,9.6,74.7l2.5,54.4h1.2c-.1-21.2-.3-46.6-.3-55.4Z"/>
  <path class="st7" d="M218.9,420.6c-.3,1-.6,1.9-.6,2.8l-.6-3.3c-.7.7-.4,1.8-.4,2.6v2.5h1.3l.2-4.2v-.4h.1Z"/>
  <path class="st9" d="M218.3,423.3c0-.8.3-1.8.6-2.8,0-.3.2-.6.2-.9.2-7.9.2-15.8.9-23.9,0-2.8.1-5.9,0-8.8v-2.9c-.2-7.7-.7-13.8-1.2-12.3,0,2.9-1.8,39.8-2,42.9l.9,5.3.6,3.3h0Z"/>
  <path class="st4" d="M235.7,276.4c4.9-7.5,36.2-53.8,63.3-93.7-4.5,6.4-14.2,20.6-24.9,36-5.1,7.4-10.3,15.1-15.3,22.4-8.9,12.9-16.8,24.6-21.2,30.9-1.7,2.5-2.9,4.2-3.3,4.8-.1.2-.2.3-.2.3l-1.2,6.6h0c.1,0,1.8-.8,2.6-1.1v-.3c-2.5-1.9-1-4.3,0-5.9h.2,0Z"/>
  <path class="st6" d="M417.6,54.8h-49l16.7-17.5-4.6-4.2s-8,8.2-18.3,18.8l-16.6,16.9h0c-1.9,2-21.3,21.7-25.3,25.7-.3.3-.6.7-.9.9-.1,0-.2.2-.3.3-1,1-1.6,1.6-1.8,1.9,2,1.2,3.7,2.6,5.1,4.5.4.4.8.9,1.1,1.3h0c3.2,4.4,3.6,9.4,3.6,12.3,0,5.2-.3,6.8-.4,7,2.1-1,12.9-1.6,14-1.6s.5,0,.7-.2c2.8-1.5-46.1,86.3-80.4,132.3l-19.7,30.3s2.5-3.1,6.8-8.8c8.4-10.9,169.3-220,169.3-220h0ZM336.6,116.4l-10.8-15,30.3-32.6h26.5l-46,47.6Z"/>
  <path class="st3" d="M85.8,125.8l44.2.2c-.8-2.3-1.5-4.5-2.2-6.7l-47.8.2s-34-49.6-35-50.7l301.3-.6,34.7-35.1-9.4-4.2-21.7,26.4-336.2.2,171.9,235.3L85.8,125.8Z"/>
  <path class="st11" d="M233,283.7h-1.3l-38,.4-10.7-17.5-6.1-6.5-27-134.1-1.4-6.9-10.1-50.4h-27.5s14,41.8,16.9,50.5c.7,2.2,1.5,4.4,2.2,6.7,3.6,10.9,48.5,144.7,53.9,160.1.2.5.3,1,.5,1.4.7,2,1.1,3.1,1.2,3.2.3,0,52.6-.5,52.6-.5l3.6-6.7h-8.8v.3h0Z"/>
  <path class="st2" d="M222.6,296.6l-24.3.2s5,84.1,7.6,128.3h8.4c3-48.6,8.3-128.5,8.3-128.5h0Z"/>
  <path class="st5" d="M235.3,276.6c-1.1,1.5-2.6,4,0,5.9,0,0,.2.1.3.2,2.1.9,9.8-8.4,23.2-26.4,34.3-46.1,92.9-133.2,92.9-133.2,1.5-1.3,1.6-3.1-1.1-3.1s-6.2-.3-9,1.2c-.5.3-1.1.7-1.6,1.2-.2,0-104.6,154.2-104.6,154.2h0Z"/>
  <path class="st0" d="M260.9,198.5c0-9.1-8.5-23.5-31-23.5s-29.2,9.5-29.2,21.2,3.4,17.9,12.7,22.1c2.6,1.2,13.9,3.2,16.6,3.1,7.4-.2,30.9-2.5,30.9-22.9h0ZM222.6,179.3c0-2.1,2.6-3.8,5.8-3.8s5.8,1.7,5.8,3.8-2.6,3.8-5.8,3.8-5.8-1.7-5.8-3.8Z"/>
  <path class="st14" d="M273.3,141.6c-5.5,0-9.7,3.4-9.8,8,0,4.2,3.1,8.9,15.4,8.8,4.8,0,7.1-2.7,7.1-5.8-.1-6.4-8-11-12.7-11Z"/>
  <path class="st14" d="M300.2,121.6c7.5,0,11.2-2.9,11.2-8.2s-5.4-8.3-11.2-8.3-11,3.5-11.2,8c.1,4.2,3.7,8.5,11.2,8.5Z"/>
  <path class="st16" d="M239.1,195.7c0-6.4-6.2-8.6-13.3-8.6s-12.9,3.7-13.1,10.3c0,6.7,8.8,8.9,12.5,8.9,6.4-.1,13.9-2.5,13.9-10.6h0Z"/>
  <path class="st11" d="M228.4,183.1c3.2,0,5.8-1.7,5.8-3.8s-2.6-3.8-5.8-3.8-5.8,1.7-5.8,3.8,2.6,3.8,5.8,3.8Z"/>
  <path class="st11" d="M274.8,139.6c3.2,0,5.8-1.7,5.8-3.8s-2.6-3.8-5.8-3.8-5.8,1.7-5.8,3.8,2.6,3.8,5.8,3.8Z"/>
  <path class="st11" d="M304.4,96.6c.9.7,1.5,1.6,1.5,2.6,0,2.1-2.6,3.8-5.8,3.8s-5.8-1.7-5.8-3.8.9-2.2,2-2.9h0c1.1-.6,2.4-.8,3.8-.8s3.2.4,4.3,1.1Z"/>
</svg>