<?xml version="1.0" encoding="UTF-8"?>
<svg id="Layer_1" xmlns="http://www.w3.org/2000/svg" xmlns:xlink="http://www.w3.org/1999/xlink" version="1.1" viewBox="0 0 167 167">
  <!-- Generator: Adobe Illustrator 30.1.0, SVG Export Plug-In . SVG Version: 2.1.1 Build 136)  -->
  <defs>
    <style>
      .st0 {
        fill: url(#linear-gradient);
      }

      .st1 {
        isolation: isolate;
      }

      .st2 {
        fill: #141414;
      }

      .st3 {
        fill: #fff;
      }
    </style>
    <linearGradient id="linear-gradient" x1="83.5" y1="0" x2="83.5" y2="167" gradientUnits="userSpaceOnUse">
      <stop offset="0" stop-color="#9cb6c9"/>
      <stop offset="0" stop-color="#92b2c8"/>
      <stop offset=".2" stop-color="#79aac6"/>
      <stop offset=".3" stop-color="#4f9cc3"/>
      <stop offset=".5" stop-color="#1b8bbf"/>
      <stop offset="1" stop-color="#1ebfa8"/>
    </linearGradient>
  </defs>
  <rect class="st0" width="167" height="167"/>
  <g id="Layer_2">
    <g id="Layer_21" data-name="Layer_2">
      <g class="st1">
        <path class="st2" d="M50.7,110.6h-10.4l-19.9-34.6v34.6h-9.5v-48.8h10.7l19.5,34.1v-34.1h9.6s0,48.8,0,48.8Z"/>
        <path class="st2" d="M60.8,78.5c2.5-3.2,6.8-4.8,12.9-4.8s7.5.8,10.6,2.3c3.1,1.6,4.6,4.5,4.6,8.9v16.5c0,1.1,0,2.5,0,4.2,0,1.2.3,2.1.6,2.5.3.4.8.8,1.4,1.1v1.4h-10.4c-.3-.7-.5-1.4-.6-2.1s-.2-1.4-.3-2.2c-1.3,1.4-2.8,2.6-4.5,3.6-2,1.2-4.3,1.8-6.9,1.8s-6-.9-8.1-2.8-3.2-4.5-3.2-7.9,1.7-7.6,5.2-9.6c1.9-1.1,4.7-1.9,8.3-2.3l3.2-.4c1.8-.2,3-.5,3.8-.8,1.4-.6,2-1.5,2-2.7s-.5-2.5-1.5-3.1-2.5-.8-4.5-.8-3.8.6-4.8,1.7c-.7.8-1.1,1.9-1.3,3.3h-9.1c0-3.2.9-5.8,2.5-7.8ZM67.8,103.8c.9.7,2,1.1,3.3,1.1,2,0,3.9-.6,5.6-1.8s2.6-3.4,2.7-6.5v-3.5c-.6.4-1.2.7-1.8.9-.6.2-1.4.4-2.5.6l-2.1.4c-2,.4-3.4.8-4.3,1.3-1.5.9-2.2,2.2-2.2,4s.3,2.8,1.3,3.5Z"/>
        <path class="st2" d="M132.5,107c-3.7,3.3-8.3,5-14,5s-12.6-2.3-16.6-6.8-6-10.7-6-18.6,2.3-15.1,6.9-19.7c4-4,9.1-6,15.2-6s14.3,2.7,18.1,8.1c2.1,3,3.2,6.1,3.4,9.1h-10.2c-.7-2.3-1.5-4.1-2.6-5.3-1.9-2.1-4.6-3.2-8.3-3.2s-6.7,1.5-8.8,4.5c-2.2,3-3.2,7.2-3.2,12.7s1.1,9.6,3.4,12.3c2.3,2.7,5.2,4.1,8.7,4.1s6.3-1.2,8.2-3.5c1-1.3,1.9-3.1,2.6-5.7h10.1c-1,5.3-3.2,9.7-6.9,13Z"/>
        <path class="st2" d="M146.6,61.8h9.5v48.8h-9.5v-48.8Z"/>
      </g>
    </g>
    <g id="Layer_22" data-name="Layer_2">
      <g class="st1">
        <path class="st3" d="M50,108.7h-10.3l-20-34.6v34.6h-9.5v-48.8h10.7l19.5,34.1v-34.1h9.6v48.8Z"/>
        <path class="st3" d="M60.1,76.6c2.5-3.2,6.8-4.8,12.9-4.8s7.5.8,10.6,2.3c3.1,1.6,4.6,4.5,4.6,8.9v16.5c0,1.1,0,2.5,0,4.2,0,1.2.3,2.1.6,2.5.3.4.8.8,1.4,1.1v1.4h-10.4c-.3-.7-.5-1.4-.6-2.1s-.2-1.4-.3-2.2c-1.3,1.4-2.8,2.6-4.5,3.6-2,1.2-4.3,1.8-6.9,1.8s-6-.9-8.1-2.8-3.2-4.5-3.2-7.9,1.7-7.6,5.2-9.6c1.9-1.1,4.7-1.9,8.3-2.3l3.2-.4c1.8-.2,3-.5,3.8-.8,1.4-.6,2-1.5,2-2.7s-.5-2.5-1.5-3.1-2.5-.8-4.5-.8-3.8.6-4.8,1.7c-.7.8-1.1,1.9-1.3,3.3h-9.1c0-3.2.9-5.8,2.5-7.8ZM67.2,101.9c.9.7,2,1.1,3.3,1.1,2,0,3.9-.6,5.6-1.8s2.6-3.4,2.7-6.5v-3.5c-.6.4-1.2.7-1.8.9-.6.2-1.4.4-2.5.6l-2.1.4c-2,.4-3.4.8-4.3,1.3-1.5.9-2.2,2.2-2.2,4,0,1.6.3,2.8,1.3,3.5Z"/>
        <path class="st3" d="M131.9,105.1c-3.7,3.3-8.3,5-14,5s-12.6-2.3-16.6-6.8-6-10.7-6-18.6,2.3-15.1,6.9-19.7,9.1-6,15.2-6,14.3,2.7,18.1,8.1c2.1,3,3.2,6.1,3.4,9.1h-10.2c-.7-2.3-1.5-4.1-2.6-5.3-1.9-2.1-4.6-3.2-8.3-3.2s-6.7,1.5-8.8,4.5c-2.2,3-3.2,7.2-3.2,12.7s1.1,9.6,3.4,12.3c2.3,2.7,5.2,4.1,8.7,4.1s6.3-1.2,8.2-3.5c1-1.3,1.9-3.1,2.6-5.7h10.1c-1,5.3-3.2,9.7-6.9,13Z"/>
        <path class="st3" d="M146,59.9h9.5v48.8h-9.5v-48.8Z"/>
      </g>
    </g>
  </g>
</svg>