<?xml version="1.0" encoding="utf-8"?>
<!-- Generator: Adobe Illustrator 28.1.0, SVG Export Plug-In . SVG Version: 6.00 Build 0)  -->
<svg version="1.1" id="Layer_1" xmlns="http://www.w3.org/2000/svg" xmlns:xlink="http://www.w3.org/1999/xlink" x="0px" y="0px"
	 viewBox="0 0 383.9 383.9" style="enable-background:new 0 0 383.9 383.9;" xml:space="preserve">
<style type="text/css">
	.st0{display:none;}
	.st1{display:inline;fill:#00AADF;}
	.st2{display:inline;}
	.st3{fill:#FE7258;}
	.st4{fill:#FEDB65;}
	.st5{fill:#00AADF;}
	.st6{fill:none;}
	.st7{fill:#F85D48;}
	.st8{fill:#FEC847;}
	.st9{fill:#0A9DD0;}
</style>
<g id="Layer_1_00000079469581817521953160000005826292743193094017_" class="st0">
	<path class="st1" d="M192,0C192,0,191.9,0,192,0c-0.1,0-0.1,0-0.1,0H192z"/>
	<path class="st1" d="M383.8,192C383.8,192,383.8,191.9,383.8,192c0-0.1,0-0.1,0-0.1V192z"/>
	<g class="st2">
		<path class="st3" d="M315.7,177h67.6C376,82.9,301,7.8,206.9,0.6v67.6C263.8,75,308.9,120.1,315.7,177z"/>
		<path class="st4" d="M290.1,268.8l47.7,47.8c25.7-30,42.2-68,45.5-109.8h-67.6C312.9,230,303.8,251.3,290.1,268.8z"/>
		<path class="st5" d="M67.4,191.9c0-63.7,47.8-116.2,109.5-123.7V0.6C78,8.2,0,91,0,191.9c0,106,85.9,191.9,191.9,191.9
			c47.6,0,91.2-17.3,124.7-46L268.8,290c-21.2,16.6-47.8,26.5-76.8,26.5C123.2,316.5,67.4,260.7,67.4,191.9z"/>
		<path class="st6" d="M206.8,115.2v-25c44.8,6.6,80.3,42,86.8,86.8h-25C262.6,145.8,238,121.3,206.8,115.2z M256.7,235.6
			c5.8-8.5,9.9-18.3,11.9-28.7h25c-2.5,17.2-9.3,33.1-19.2,46.4L256.7,235.6z"/>
		<path class="st7" d="M293.6,177c-6.5-44.8-42-80.2-86.8-86.8v25c31.2,6.1,55.8,30.6,61.8,61.8H293.6z"/>
		<path class="st8" d="M268.6,206.9c-2,10.4-6.1,20.2-11.9,28.7l17.7,17.7c9.9-13.3,16.7-29.2,19.2-46.4H268.6z"/>
		<path class="st9" d="M89.1,191.9c0,56.8,46,102.8,102.8,102.8c22.9,0,44.2-7.5,61.3-20.3l0.2,0.2c0,0,0,0,0.1,0l-17.9-17.9
			c-12.5,8.5-27.5,13.4-43.7,13.4c-43.2,0-78.1-35-78.1-78.1c0-38,27.2-69.7,63.2-76.7V90h-0.1v0.2
			C127.3,97.4,89.1,140.2,89.1,191.9z"/>
		<path class="st9" d="M89,191.9c0,56.8,46.2,103,103,103c23,0,44.4-7.6,61.4-20.3l-0.2-0.2c-17.1,12.8-38.4,20.3-61.3,20.3
			C135.1,294.7,89.1,248.7,89,191.9c0.1-51.7,38.3-94.5,87.9-101.7V90C127.2,97.3,89,140.2,89,191.9z"/>
	</g>
</g>
<g id="Layer_2_00000080906802398306047840000013173065672934180031_">
</g>
<g id="Layer_4">
</g>
<g id="Layer_3">
	<g>
		<path class="st7" d="M205.1,100.8v43.1c16.9,4.7,30.3,18.1,34.8,35.1h43C277.3,138.7,245.4,106.7,205.1,100.8z"/>
		<g>
			<path class="st8" d="M282.9,205.6h-43.1c-1.2,4-2.8,7.9-4.9,11.4l30.4,30.4C274.4,235.4,280.6,221.1,282.9,205.6z"/>
			<path class="st9" d="M191.9,241.8c-27.5,0-49.8-22.3-49.8-49.8c0-22.9,15.5-42.2,36.5-48v-43.1c-44.5,6.5-78.7,44.9-78.7,91.1
				c0,50.8,41.3,92.1,92.1,92.1c20.4,0,39.2-6.7,54.5-17.9l-30.5-30.5C208.7,239.5,200.6,241.8,191.9,241.8z"/>
			<path class="st4" d="M382.7,207.3l-80.1-1.7c-2.6,20.9-10.9,40-23.4,55.7l57.8,55.4C362.7,286.9,379.4,249,382.7,207.3z"/>
			<path class="st5" d="M191.9,303.5c-61.5,0-111.6-50-111.6-111.6c0-57,43-104.2,98.2-110.8l-1.7-80.1C78.2,8.8,0.5,91.3,0.5,191.9
				c0,105.7,85.7,191.4,191.4,191.4c47.2,0,90.4-17.1,123.8-45.4L260.2,280C241.4,294.7,217.6,303.5,191.9,303.5z"/>
		</g>
		<path class="st3" d="M206.9,1.1l-1.8,80.1c51,6.1,91.6,46.7,97.5,97.8l80.1-1.7C375.6,83.3,300.8,8.4,206.9,1.1z"/>
	</g>
</g>
</svg>
