<?xml version="1.0" encoding="UTF-8"?>
<svg id="Layer_1" xmlns="http://www.w3.org/2000/svg" version="1.1" viewBox="0 0 514.6 514.6">
  <!-- Generator: Adobe Illustrator 30.3.0, SVG Export Plug-In . SVG Version: 2.1.3 Build 182)  -->
  <defs>
    <style>
      .st0 {
        fill: none;
      }

      .st1 {
        fill: #d4a05c;
      }

      .st2 {
        fill: #d9ac59;
      }

      .st3 {
        fill: #e49354;
      }

      .st4 {
        fill: #a0543f;
      }

      .st5 {
        fill: #ddeae4;
      }

      .st6 {
        fill: #c07c46;
      }

      .st7 {
        fill: #e8cc89;
      }

      .st8 {
        fill: #bb654c;
      }

      .st9 {
        fill: #fff;
      }

      .st10 {
        fill: #89a7ab;
      }

      .st11 {
        fill: #efdfb1;
      }

      .st12 {
        fill: #608478;
      }

      .st13 {
        fill: #e2c279;
      }
    </style>
  </defs>
  <path class="st9" d="M228.8,257.2c0-12.4,9.5-24.6,17.9-24.6V39.1c0-4.5,6.1-6.5,9-6,3.6.7,6.7,3.7,6.7,8.6v191.4c11,4.2,17.7,13.2,17.7,23.9s-6.3,20.5-17.6,24.1l-.2,194.1c0,5.8-8.5,6.6-11.8,5.7l-3.7-5.7v-18.8s0-175.6,0-175.6c-8.6,0-17.9-11.4-17.9-23.7h0ZM255,245.4c-6.5,0-11.8,5.3-11.8,11.8s5.3,11.8,11.8,11.8c6.5,0,11.8-5.3,11.8-11.8s-5.3-11.8-11.8-11.8Z"/>
  <g>
    <path class="st8" d="M159.3,259.2c0,8.6-10.3,12.3-19.4,12.4l-1.6-1.5c-4.4,0-9.2.6-13.2-.5-10.5-2.7-20.6-4.9-31.4-2.9-21.5,4-45.1,4.9-63.6-7.5-6.8-4.5-12.6-11.4-16-18.7-2.4-5.1-3.5-10.7-5.1-16.2l-.9-4.8c.7-2.5,1.2-6.3,2.8-8.3,10.3-13.5,30.7-19.7,48.2-17.3l-12.9,23.3c-5.7,10.2-10.4,20.5-13.3,32.5,3.7-1.5,5.8-4.3,7.9-7.2,10.8-14.9,19.4-30.6,27.4-47.3,5.7,1.7,10.8,3.5,16.4,6-10.2,17-19.4,33.3-27.2,51.3-1,2.4-1.6,4.9-.7,7.4,14.5-16.7,24.7-34.6,35.4-54.4,4.8,2.2,9.4,5.3,13.9,8.5-9,14.9-16.9,29.1-23.5,44.6l.3,3.2c0,.7,2.4-.7,2.8-1.1,10.7-12.8,19.2-26.4,27-41.2l14.1,11.2-8.7,16.7c-2.2,4.3-3.7,8.8-4.3,13.9,6.4-4.3,10.3-9.6,14.2-15.5l5.6-8.3,25.7,21.6h0Z"/>
    <path class="st4" d="M159.3,259.2l-25.7-21.6-5.6,8.3c-3.9,5.9-7.8,11.2-14.2,15.5.5-5.1,2-9.6,4.3-13.9l8.7-16.7-14.1-11.2c-7.8,14.8-16.4,28.4-27.1,41.2-.4.4-2.8,1.8-2.8,1.1l-.3-3.2c6.6-15.5,14.5-29.7,23.5-44.6-4.5-3.2-9.1-6.3-13.9-8.5-10.7,19.8-20.9,37.7-35.4,54.4-.9-2.5-.3-5.1.7-7.4,7.8-18,16.9-34.3,27.1-51.3-5.6-2.5-10.7-4.3-16.4-6-8,16.7-16.6,32.4-27.4,47.3-2.1,2.9-4.2,5.7-7.9,7.2,3-12,7.7-22.3,13.3-32.5l12.9-23.3c-17.5-2.4-37.9,3.8-48.2,17.3,3.5-15,19.8-25.4,35-27.2,34.2-4.2,65,17.6,88.4,41,8,8,15.1,15.8,21.8,24.8,1.9,2.6,3.2,6.6,3.2,9.4h0Z"/>
    <path class="st4" d="M139.9,271.5h-15.8c0,0-5.6.4-5.6.4l-7.8,1.3-5.7,1.1-7.5,1.6-4.4,1-8.1,1.6-6.4.9c-13.9,2-29,.1-42.5-5.4-21.7-8.8-34.3-31.8-27.9-54.5l.9,4.8c1.6,5.5,2.8,11.1,5.1,16.2,3.4,7.4,9.2,14.2,16,18.7,18.5,12.4,42.1,11.5,63.6,7.5,10.8-2,20.9.2,31.4,2.9,4,1,8.8.5,13.2.5l1.6,1.5h0Z"/>
  </g>
  <g>
    <polygon class="st0" points="222.9 439 214.6 439.3 201.1 416.1 201 439.3 192.5 439.4 192.5 401.8 200.5 401.6 214.4 425 214.8 401.7 222.9 401.7 222.9 439"/>
    <path class="st0" d="M63.6,439.3l-6.1-12.4c-.7-1.4-4.6-1.6-5.8-1v13.2c0,0-8.4,0-8.4,0l.2-37.4h16c5.7.2,10.5,3.2,11.7,8.4s-.5,10.9-6.1,13.5l8,15.6h-9.4s0,0,0,0ZM59.9,418.5c3.9-1.3,4-7.8.6-9.2-2.6-1.1-6-.8-8.8-.6l-.2,10.5c2.6,0,5.9.1,8.3-.7h0Z"/>
    <path class="st0" d="M103.8,435.3c-4.2,4.5-10.1,5.5-16.1,3.7-10.1-3-12.5-13.6-10.8-24.3,1.4-8.7,8.5-14.1,16.8-13.5s14,7,14.7,15.6c.5,6.5.3,13.3-4.5,18.5ZM99.5,414c-.9-4-3.8-5.9-7.4-5.7-7.1.3-8.3,10.4-6.4,19.3.8,3.5,4.1,5.6,7.2,5.4,7-.3,8.5-10.1,6.6-19h0Z"/>
    <polygon class="st0" points="169.5 423 155.1 423.2 155.1 432.5 172.1 432.7 172.1 439.2 146.6 439.2 146.8 401.8 172.1 401.8 172.1 408.6 155.2 408.7 155.2 416.3 169.3 416.6 169.5 423"/>
    <path class="st0" d="M395,437c-6.4,4.3-14.9,3.6-20.9-.6-3-2.1-4.2-5.8-4.2-9.2h8.3c.5,1.9,1,3.9,1.9,4.6,1.3,1,4.1,1.5,6,1.4,1.7,0,4-1.9,4.3-3.4.2-1.6-1.6-4-3.4-4.7l-10.9-4.5c-3.6-1.5-5.2-6-5-9.3.3-4,2.7-7.3,6.9-8.8,4.5-1.6,9.8-1.6,14.3.3s6.5,5.8,6.5,10.2h-8.2c-.3-3.7-3.2-5.7-7-4.7-1,.3-2.5,1-3.3,1.5-.9.6-.7,4.3.4,4.8l10.8,4.4c3.5,1.4,6.2,4.3,6.8,7.2.9,3.9.3,8.4-3.4,10.9h0Z"/>
    <path class="st0" d="M314.4,426.3l-.2,13h-8.4s.1-37.6.1-37.6l17.5.3c5.3,0,10,4,11.1,8,1.5,5.3.8,11.2-3.9,14s-9.5,2.6-16.1,2.3h0ZM324,419.3c1.5-.1,2.9-4.1,2.7-5.6s-1.9-4.7-3.5-4.8l-8.9-.4v11.5s9.7-.7,9.7-.7h0Z"/>
    <path class="st0" d="M356.4,431.8h-12.5c0-.1-2.6,7.4-2.6,7.4h-8.9c0-.1,14.1-37.5,14.1-37.5h7.5c0,0,13.8,37.4,13.8,37.4l-8.9.2-2.5-7.5h0ZM354.2,424.9l-4.2-12.7-4,12.9,8.1-.2Z"/>
    <path class="st0" d="M455.1,432l-12.9-.2-2.2,7.4h-9.1c0-.1,13.9-37.4,13.9-37.4h7.6c0-.1,13.8,37.4,13.8,37.4h-9.1c0,0-2-7.3-2-7.3h0ZM452.7,425l-4.2-12.6-3.6,12.5h7.8s0,0,0,0Z"/>
    <path class="st0" d="M17.4,426.3v12.9c0,0-8.5.1-8.5.1l.2-37.6,18,.4c6,.1,10.2,5.2,10.9,10,.9,6-2.1,11.8-8.3,13.3-3.6.9-7.2.8-12.3,1h0ZM27.3,419c1.5-.1,2.7-3.9,2.5-5.3s-1.6-4.5-3.1-4.6l-9.3-.6v11.2s9.9-.7,9.9-.7h0Z"/>
    <polygon class="st0" points="421.5 439.1 413.2 439.1 413.3 408.8 402.3 408.5 402.3 401.7 432.6 401.7 432.6 408.4 421.5 408.7 421.5 439.1"/>
    <polygon class="st0" points="130.8 439 122.5 439.2 122.6 408.7 111.7 408.4 111.7 401.8 142.1 401.8 142.1 408.5 130.8 408.7 130.8 439"/>
    <polygon class="st0" points="257.4 435.1 250.1 435.2 250.1 425.1 240.7 425.1 240.4 418.5 249.8 418.2 250.3 408.1 257.3 408.1 257.5 418.3 266.8 418.2 266.8 425 257.5 425 257.4 435.1"/>
    <rect class="st0" x="162.2" y="416.4" width="37.8" height="8.4" transform="translate(-240 600.5) rotate(-89.8)"/>
  </g>
  <g>
    <circle class="st3" cx="148" cy="193.9" r="6.6"/>
    <circle class="st3" cx="163.1" cy="200" r="6.5"/>
    <circle class="st3" cx="191.9" cy="204" r="6.5"/>
    <circle class="st3" cx="175.4" cy="216.4" r="6.6"/>
    <circle class="st3" cx="142.5" cy="210.7" r="6.6"/>
    <circle class="st3" cx="177" cy="194.4" r="6.4"/>
    <circle class="st3" cx="161.1" cy="179.3" r="6.5"/>
  </g>
  <g>
    <path class="st10" d="M96.1,147.9l-15.3-7.2-24.8-14.9-7-7.3,8.2-6.1c12.9-7.1,25.9-12.4,40-16.5,6.9-2,14.5-3.3,21.8-3.8,35.7-2.7,66.4,8.5,89.9,35.4.9,1,2,3.5,1.6,4.5-2.4,6.4-22,16.3-32.5,18.9-3.5-8.7-6-17.2-4.2-26.2l2.5-12c-9.4,10.9-9.4,26.4-1.1,39-26.6,9-47.9,4.4-72.4-1.9l-6.6-1.7h0ZM192.8,125.9c0-2.4-1.9-4.3-4.3-4.3s-4.3,1.9-4.3,4.3,1.9,4.3,4.3,4.3,4.3-1.9,4.3-4.3ZM151.2,134.7l9-9.2c-9.5-4.1-26-3.2-27.3,3.9,4.3,3.7,12.5,8.7,18.2,5.3h0Z"/>
    <path class="st12" d="M57.2,112.3l-8.2,6.2,7,7.3c-7.2,9.6-17.9,14.8-29.5,15.4.7-9.2,4.5-16.5,10.9-22.3-5.2-7.7-10.4-15.6-9.5-24.7,12.5,2.5,21.6,9.6,29.4,18.2h0Z"/>
    <path class="st12" d="M119,91.9c-7.3.6-14.8,1.8-21.8,3.8l-2.6-12.4c8.9-.8,17.7,2.7,24.3,8.6h0Z"/>
    <path class="st12" d="M96.1,147.9c-6.3,3.9-13.6,5.3-20.9,1.6l5.6-8.8,15.3,7.3h0Z"/>
    <path class="st12" d="M151.2,134.7c-5.8,3.3-14-1.6-18.2-5.3,1.2-7.2,17.8-8.1,27.3-3.9l-9,9.2h0Z"/>
    <circle class="st12" cx="188.5" cy="125.9" r="4.3"/>
  </g>
  <g>
    <path class="st6" d="M171.3,306.6c10.5,9.4,17.8,25.4,22.8,37.5-2.4,16-11.3,30.9-22.9,42-.9-16.8-9.6-32.6-20.7-45.9-.7-.8-2.9-2.9-3.6-2.1-.6.6-1.4,2.2-1.7,3.2,12.8,13.1,19.8,28.9,25.1,46l-15.2,14.8c-2.2-11.8-5.4-23.3-11.9-33.5l-4.6-4.9c3.1-2.9,2.9-9.4.2-12.7,1.1-3.9,2.9-6.4,6.1-10.1-13.4-10.8-32-12.9-49.3-15.7,18.5-3.8,36.6,2.4,52.1,11.6l11-14,4.8,4.4c9.6,12,15.9,25,20.4,40.5,2.1-4.7.3-9.4-1.2-13.8-4.3-13-10.9-24.7-20.4-34.4l-3.5,2.2c-13.8-8.9-30.1-12.9-46.9-14.1l-3.3-.9,1.3-1.1c18.1-1.1,36.5,2.9,51.9,13.2l9.7-12.3h0Z"/>
    <path class="st6" d="M117.7,373.6c-.8,2.9,0,5,1.7,7.5,8,11.2,13.7,23.4,14.6,37l-18.1,9.9c-1.1-11.7-3.2-25.6-13.7-33.7,4.5,12.2,11,21.8,12.3,34-4.7,2.6-14,6.3-20.5,4.5s-8.1-9-8.4-14.2l15.9-21.8c-10-5.4-21.4-7.3-32.3-6.5l.5-2.2c11.5-2.1,22.9-.7,33.9,6.2l13-16.5c-6.1-4-11.9-7-18.9-7.8l-22.7-2.2.6-1.8,21.2.6c7.5.2,14.8,4.1,21,7.2h0Z"/>
    <path class="st1" d="M180,294c-1.8,1.6-3.8,5.1-5.5,8.2-13.4-7.1-28-13.8-43.1-10.3,15,2.9,28.1,6.2,40,13.2v1.5c0,0-9.8,12.3-9.8,12.3-15.4-10.4-33.8-14.4-51.9-13.2,7.3-6.5,15.3-13.2,24.9-16.7,16.7-6.1,42.6-11.2,45.3,5.1h0Z"/>
    <path class="st1" d="M158.7,321.7v1.2c-.1,0-11.1,14-11.1,14-15.4-9.1-33.5-15.4-52.1-11.6,17.3,2.9,36,4.9,49.3,15.7-3.2,3.7-5,6.3-6.1,10.1-3.9-4.7-11.5-2.6-14.4,1.6-10.6-7.1-26.5-8.2-39.9-8.7,6.3-13.4,14.1-26.5,24.1-37.3l3.3.9c16.8,1.2,33.1,5.2,46.9,14.1h0Z"/>
    <path class="st6" d="M135.6,366.5l8.8,12.8c4.9,7.3,6.1,16.4,8.6,24.6l-16,12.1c-1.4-10.3-4-20-9.5-28.9l-8.1-13,6.5-9.8c2.2,1.8,6.7,2.2,9.7,2.1h0Z"/>
    <path class="st1" d="M123,355.9c-.3,2.2.7,6.7,2.9,8.5l-6.5,9.8-1.6-.6c-6.1-3-13.5-7-21-7.2l-21.2-.6,7.2-18.5c13.9-.4,27.7,2.7,40.2,8.6h0Z"/>
    <path class="st1" d="M69.7,387.8l5.4-20.2,22.7,2.2c6.9.7,12.7,3.8,18.9,7.8l-13,16.5c-11-6.9-22.4-8.3-33.9-6.2h0Z"/>
    <path class="st1" d="M85.7,418.4l-4.9.3c-6.6.4-12.5-3.9-13.1-11-.4-6,.4-12.2,1.5-17.7,10.9-.8,22.3,1.1,32.3,6.5l-15.9,21.8h0Z"/>
    <path class="st6" d="M180,294c12.8-1.8,17.6,21.3,16.1,35.8l-1.1,11c-.6-.3-1.7-2.4-1.9-3.4-2.5-11.7-7.9-22.9-15.9-31.9-1.6-1.7-4.1-1.9-5.8-.4-11.9-7-25-10.3-40-13.2,15.1-3.6,29.6,3.2,43.1,10.3,1.7-3.1,3.8-6.6,5.5-8.2h0Z"/>
    <path class="st4" d="M171.1,386.1l-.9,1.2c-5.3-17.1-12.3-32.9-25.1-46,.4-1,1.2-2.6,1.7-3.2.7-.7,2.9,1.3,3.6,2.2,11.2,13.2,19.8,29,20.7,45.9h0Z"/>
    <path class="st6" d="M124.3,352.7c-.5.7-1.2,2.5-1.3,3.2-12.5-6-26.2-9-40.2-8.6l1.6-3.3c13.3.5,29.3,1.6,39.9,8.7h0Z"/>
    <path class="st8" d="M155,402.1l-2.1,1.9c-2.4-8.3-3.7-17.3-8.6-24.6l-8.8-12.8,3-2.8,4.6,4.9c6.5,10.2,9.7,21.7,11.9,33.5h0Z"/>
    <path class="st4" d="M195,340.8l-.9,3.3c-4.9-12.1-12.2-28.1-22.8-37.6v-1.5c1.8-1.4,4.3-1.3,5.8.4,8,9,13.5,20.2,15.9,31.9.2,1,1.2,3.1,1.9,3.4h0Z"/>
    <path class="st4" d="M119.3,374.2l8.1,13c5.5,8.9,8,18.6,9.5,28.9l-2.8,1.9c-.9-13.6-6.6-25.8-14.6-37-1.7-2.4-2.5-4.6-1.7-7.5l1.6.6h0Z"/>
    <path class="st4" d="M116,427.9c-.1,0-1.1.2-1.3.3-1.3-12.2-7.8-21.9-12.3-34,10.5,8.2,12.5,22,13.7,33.7Z"/>
    <path class="st4" d="M158.6,322.9v-1.2c.1,0,3.6-2.2,3.6-2.2,9.4,9.8,16.1,21.4,20.4,34.4,1.5,4.4,3.3,9.1,1.2,13.8-4.6-15.5-10.8-28.5-20.4-40.5l-4.8-4.4h0Z"/>
    <path class="st5" d="M138.8,351.1c2.7,3.3,2.8,9.8-.2,12.7l-3,2.8c-3,0-7.5-.3-9.7-2.1s-3.2-6.3-2.9-8.5c.1-.8.8-2.5,1.3-3.2,2.9-4.1,10.6-6.3,14.4-1.6h0Z"/>
  </g>
  <g>
    <path class="st7" d="M327.1,193.3l-2.5,1.8-2.1.2c-1.1,0-2.9.7-4.1,1.1l-2.6-.6c-.7-.2-2.4-.2-2.7.5l-1.5,3.8c-1.3-2.2-2.1-4.1-5.6-5.5l3.5,7.1-4.2,1.5-4.5-9-3.2-2.4-.9,1.1,6.3,11.1,21.2,37.8,2.3,6.7c-1-.2-2.9-1.4-3.8-2.3l-32-56.9c-.6-1.8-1.3-4.8-.6-6,2.7-5.4,20.8-2.8,31.1,1.5,3,2.1,4.8,5.1,6,8.3h0ZM321.8,190.9c1.4-4.2-18.8-10.1-29-5.8,7.5,7.7,27.5,10,29,5.8ZM295.9,192.1l1.2-.7-1.2.7Z"/>
    <path class="st13" d="M322.5,195.3l2.7,6.6,12.4,21.7,16.8,27.9v1c.1,0-7.9-.6-7.9-.6l-.2-1.9-5.2-11-22.5-40.6v-2c1-.4,2.9-1,4-1.1h0Z"/>
    <path class="st13" d="M315.8,195.8l2.4,7,28,47.1-1.1,1.8-6-.3-1.6-4.7-12.2-20.4-13.6-26.1,1.5-3.8c.2-.7,2-.7,2.7-.5h0Z"/>
    <path class="st13" d="M309.5,201.7l12.6,22.4c.5.9,1.8,1.9,3.1,2.1-.3,0-.2,2.4.1,3.1l10.3,21.4-5.5-1.3-1.6-4.1-14.3-25.6-8.9-16.6,4.2-1.5h0Z"/>
    <path class="st13" d="M355.5,252.5l-1.2-1.1c.4-1.6-.4-4-1.2-5.5l-19.6-34.3-8.8-16.5,2.5-1.8,33.3,58.8-4.9.4h0Z"/>
    <polygon class="st2" points="305.3 203.2 314.2 219.8 328.5 245.4 330.1 249.5 326.5 248.7 324.1 241.9 302.9 204.1 296.7 193 295.9 192.1 297.1 191.4 297.6 191.8 300.8 194.2 305.3 203.2"/>
    <path class="st2" d="M339.1,251.4l-3.4-.6-10.3-21.4c-.4-.7-.4-3-.1-3.1l12.2,20.5s1.6,4.7,1.6,4.7Z"/>
    <path class="st2" d="M311.6,200.1l13.6,26.1c-1.2-.3-2.6-1.2-3.1-2.1l-12.6-22.4-3.5-7.1c3.5,1.5,4.4,3.4,5.6,5.5h0Z"/>
    <polygon class="st2" points="318.4 196.4 318.5 198.4 341.1 239 346.3 249.9 318.3 202.8 315.8 195.8 318.4 196.4"/>
    <polygon class="st2" points="346.4 251.8 345.1 251.7 346.3 249.9 346.4 251.8"/>
    <path class="st2" d="M324.6,195.1l8.8,16.5,19.6,34.3c.9,1.5,1.6,3.9,1.2,5.5l-16.8-27.9-12.4-21.7-2.7-6.6,2.1-.2Z"/>
    <polygon class="st2" points="355.5 252.5 354.4 252.4 354.3 251.5 355.5 252.5"/>
    <path class="st2" d="M321.8,190.9c-1.4,4.2-21.4,1.9-29-5.8,10.1-4.4,30.4,1.6,29,5.8Z"/>
  </g>
  <g>
    <path class="st7" d="M406.9,104.5l-46.7,2.7c-.7.9-1.4,1.9-1.6,2.6l-.8,4c-.2.8-1,2.3-1.4,3l-2.5,4.6-2.4,2.7,6.5.2v3.2c-.1,0-7.5,1.2-7.5,1.2-1.5.2-3.3.3-4.1.7-1.6.8-4.2,2.7-5,4.2-2.5.2-6.2-.2-7.5-1.6-1.2-1.2-1.7-5.3-.8-6.8,0,0,1.2-5.8,6.9-11.9s12.2-9.3,20.6-9.8l41.1-2.2c2-.1,4.7,1.9,5.2,3.1h0ZM355.8,107.4c-9-1.7-19.2,11.9-20.1,22.2,6.7,3.1,18.9-12,20.1-22.2Z"/>
    <polygon class="st13" points="415 113.4 417.4 117.7 353.9 121.4 356.5 116.8 415 113.4"/>
    <path class="st13" d="M421.2,124.4l-11.6.6-15,1-12.1.9-24.6.6v-3.2c.1,0,25.8-1.8,25.8-1.8l31-2.4c.9,0,3.1-.9,3.5-1.2l3,5.4h0Z"/>
    <path class="st13" d="M422.1,126.7l.6,1.6c.1.4-1.7.7-2.2.8l-79.2,4.7c.8-1.5,3.4-3.4,5-4.2l9.4.6,15.8-.7,14-1,12-.8,12-.7,12.6-.4h0Z"/>
    <polygon class="st13" points="410 107.1 413 110.7 382.6 113 357.8 113.8 358.6 109.8 410 107.1"/>
    <path class="st2" d="M417.4,117.7l.8,1.3c-.4.4-2.6,1.1-3.5,1.2l-56.6,4.2-6.5-.2,2.4-2.7,63.5-3.8h0Z"/>
    <path class="st2" d="M413,110.7l1.9,2.8-58.5,3.4c.4-.7,1.2-2.2,1.4-3l24.7-.8,30.5-2.3h0Z"/>
    <path class="st2" d="M406.9,104.5l3.1,2.6-51.4,2.7c.1-.7.8-1.7,1.6-2.6l46.7-2.7h0Z"/>
    <path class="st2" d="M421.2,124.4l1,2.3-12.6.4-12,.7-12,.8-14,1-15.8.7-9.4-.6c.8-.4,2.6-.5,4.1-.7l7.4-1.2,24.6-.6,12.1-.9,15-1,11.6-.6h0Z"/>
    <path class="st2" d="M355.8,107.4c-1.2,10.2-13.5,25.3-20.1,22.2.9-10.4,11.1-24,20.1-22.2Z"/>
  </g>
  <g>
    <path class="st7" d="M442.4,177l-3.9-.2-2.9-.5-2.9-.3-.9-1.3c-.2-.3-.6-.3-.9-.4-.7-1.8-2.4-3.8-4.1-4.5l-2.1-2.9-2.9-4-2.7-3.4-5.8,29.3-6.8,33.7c-1-1.1-2-4.1-1.7-5.8l4.5-23,7.9-43.1c1.4-1.8,6-.8,8,.8,9.2,6.9,19,15.9,17.1,25.7h0ZM421.2,153.6c1.3,10.1,14.7,22.7,17.4,20.2,3.5-3.3-7.5-18.3-17.4-20.2Z"/>
    <polygon class="st13" points="424.8 166.9 422.8 179.2 413.5 226 411.9 228 408.2 224.1 417.8 176.3 421.8 162.8 424.8 166.9"/>
    <path class="st13" d="M430.9,174.3l-6.1,27.1-6.5,33.9-4.9-5.3,1.7-1.5,8.1-43.7,3.6-15c1.7.8,3.3,2.7,4.1,4.5h0Z"/>
    <polygon class="st13" points="435.5 176.3 434.6 187.1 426.2 230.8 424.2 241.1 420.2 237.2 420.9 233.3 428.8 192.3 432.6 175.9 435.5 176.3"/>
    <path class="st13" d="M442.4,177l-13,68.1c-1.4-.7-3-1.9-4.1-3l13.2-65.4,3.9.2h0Z"/>
    <polygon class="st2" points="438.5 176.8 425.2 242.1 424.2 241.1 426.2 230.8 434.6 187.1 435.5 176.3 438.5 176.8"/>
    <polygon class="st2" points="426.9 169.8 423.3 184.8 415.1 228.5 413.4 230 411.9 228 413.5 226 422.8 179.2 424.8 166.9 426.9 169.8"/>
    <polygon class="st2" points="421.8 162.8 417.8 176.3 408.2 224.1 406.6 222.4 413.3 188.7 419.1 159.5 421.8 162.8"/>
    <path class="st2" d="M432.6,175.9l-3.9,16.4-7.9,41-.7,3.9-1.9-1.9,6.5-33.9,6.1-27.1c.2,0,.7.1.9.4l.9,1.3h0Z"/>
    <path class="st2" d="M421.2,153.6c9.9,1.8,21,16.9,17.4,20.2-2.7,2.5-16.1-10.1-17.4-20.2Z"/>
  </g>
  <g>
    <path class="st13" d="M507.4,265.2l.6,6.8-10.7-8-25.8-19.5-1.2,1,5,4.6,26.4,19.7,6.5,5.7-.2,4.5-7.1-3.5c2.3,3.3,4.2,4.7,6.9,6.8l-.2,5.1c-12.5-8.2-23.6-17.7-35.5-26.9l-10.8-8.8.7-4.3.3-1.7.3-5.6,4.7.8-4.8-3.1-1-6.9,15.9,11.2,29.9,22.2h0ZM470.7,244l-2.7-1.3c-.4-.2-.2,2.1.2,2.1h1.8c0,.1.8-.8.8-.8h0ZM465.1,247.8l-1.4,1.6,3.3,2.9,1.4-1.6-3.3-2.9ZM477.1,257.9c-2.3-2.4-4.9-4.5-8.9-6.5,1.9,3.8,4.9,5.6,7.8,7.5l1.1-1h0ZM477.5,258.3l-1,1.2,4.3,2.2c-.7-1.8-2-2.9-3.3-3.4h0ZM489.4,269.2c-1-4.9-4.3-6.5-8.3-6.3l8.3,6.3ZM498.3,274.2c-2.3-2.9-4.7-4.5-8-5.7,1.3,3.5,4.7,6.1,8,5.7ZM498.4,275.3c.6.8,1.6,1.9,1.8,1.5l.5-1.8c.1-.4-1.2-.1-2.3.3h0Z"/>
    <path class="st7" d="M461.1,223.7c-1.2-.2-1.3,2.1-1,2.9l.9,2.4.6,2.8,1,6.9v2.4s-.3,5.6-.3,5.6l-.3,1.7-.7,4.3-2,1.8-3,1.4c-8.5-6.6-10.2-17.7-7.7-28.1.9-3.8,1.8-6.6,5.1-9.6l7.4,5.6h0ZM457.7,252.1c3.3-10,2.7-27.2-4.1-30.4-5,11.3-5.1,25.4,4.1,30.4Z"/>
    <path class="st13" d="M506.9,262.2l-28.3-21.3-13.8-10.2-3.8-1.7-.9-2.4c-.3-.8-.2-3.1,1-2.9l43.2,32.3c1.7,1.3,2.4,4.3,2.5,6.1h0Z"/>
    <path class="st13" d="M459.4,254.3l8.1,6.5,27.9,22.1,12,8.5-.7,1.9c-.2.5-2.1-.2-2.6-.6l-14.5-11.1-33.3-26,3-1.4h0Z"/>
    <path class="st2" d="M461.3,252.6l10.8,8.8c11.9,9.3,23,18.8,35.5,26.9v3.1c-.1,0-12.2-8.5-12.2-8.5l-27.9-22.1-8.1-6.5,2-1.8h0Z"/>
    <polygon class="st2" points="506.9 262.2 507.4 265.2 477.4 243 461.5 231.8 461 228.9 464.8 230.6 478.6 240.8 506.9 262.2"/>
    <path class="st2" d="M508,272l.2,3.4-6.5-5.7-26.4-19.7-5-4.6c0,0-.1-.3-.3-.5h-1.8c-.4-.1-.6-2.5-.2-2.3l2.7,1.3.8.5,25.8,19.5,10.7,8h0Z"/>
    <path class="st2" d="M508,279.9l-.2,3.3c-2.7-2.1-4.6-3.5-6.9-6.8l7.1,3.5h0Z"/>
    <path class="st2" d="M476,258.8c-3-1.9-6-3.7-7.8-7.5,4,2,6.6,4.1,8.9,6.5l.4.4c1.3.5,2.7,1.6,3.3,3.4l-4.3-2.2c-.1,0-.2-.2-.5-.7h0Z"/>
    <path class="st2" d="M489.4,269.2l-8.3-6.3c3.9-.1,7.3,1.4,8.3,6.3Z"/>
    <path class="st2" d="M498.3,274.2c-3.4.4-6.8-2.2-8-5.7,3.3,1.2,5.7,2.9,8,5.7Z"/>
    <polygon class="st2" points="462.6 241 462.6 238.6 467.3 241.8 462.6 241"/>
    <rect class="st2" x="465" y="247.9" width="2.1" height="4.4" transform="translate(-29.7 434.6) rotate(-48.6)"/>
    <path class="st2" d="M498.4,275.3c1.1-.4,2.4-.7,2.3-.3l-.5,1.8c-.1.4-1.1-.7-1.8-1.5h0Z"/>
    <path class="st2" d="M462,248.3l.3-1.7-.3,1.7Z"/>
    <path class="st2" d="M457.7,252.1c-9.2-5.1-9.1-19.1-4.1-30.4,6.9,3.2,7.5,20.4,4.1,30.4Z"/>
  </g>
  <g>
    <path class="st11" d="M355.1,299.4l-1.5,9.9c-4.9.6-9.6,2.1-14.2,4.6-2.6,1.5-3.8,7.8-1.5,8.6l6.7,2.2-3.9,2.2c5.2,4,11.2,7.2,17.8,9.7,12.9,5.2,25.4,9.9,38.9,12.6l4.5-2.3c.9-.4.5-3,.3-3.9,4.8-1,7.9-2.8,11-5.3,3.5-2.9,6.3-5.9,9.4-10.4h-5.6c0,.1,1.8-2.1,1.8-2.1l2.9-3.1,6.1-5.8c3.5-3.3,7.8-3.8,12-1.9-.3,9.2-5,18.7-11.8,25.2l-13.6,13.6c-2.9,0-5.8,3.6-8.1,4.8-9.9,5.5-20.1,10.1-30.7,13.9-10.1,3.5-20.6,3.9-31.2,3.6-6-.2-12.2-1.6-18.5-3.4l-8.8-2,2.1-9.7c-.9-4.5-2.9-9.2-2.8-13.1l-.2-3.9,4.8-4.2,8.3,9.5c-4.4,7.9,10.4,15.5,19.4,16.3,4.9.4,10.5.1,15.1-1.4l19.6-6.3-21.4-6.7-6.3-2.6c-2.7-1.1-5.3-.8-7.1,1.1h-2.9c-.2-.7,0-1.5.5-1.8l3-2.1-9.5-4.5c-9.3-4.4-15.1-12.1-16.1-22.5,4.4-13.5,17.2-21.1,31.5-18.8h0Z"/>
    <path class="st2" d="M446.1,311.5c-.2,5-5.5,7.8-3.3,11.9.7,1.3,3.5,2,5,2,.3,8.1-3.7,19.4-8.6,25.9l-6.3,8.4c-2.5,1.6-6.1,4.9-8.3,7.2l1.1,6.4c-1.9-.2-3.3-1.2-5.8-3.1l-13.6,7.7-8.5,3.3-11.1,2.7c-10.7,1.2-20.2.4-31.5-3.9l-.6,23.1-4.1,2.2-6.9-1-.3-3.2,1-25.6c10.6.3,21.2,0,31.2-3.6,10.4,1.6,23.8-.8,33.7-7.5l-3-6.4c2.3-1.3,5.2-4.9,8.1-4.8h8.2c0,.1,9.4-12.8,9.4-12.8l-4-.8c6.8-6.5,11.5-16.1,11.8-25.2,1.5-1.5,4.2-3,6.3-3h0Z"/>
    <path class="st7" d="M439.8,303.4c-3-1.3-7.9-1.8-10.9-.7-5.7-11.3-18.4-16.4-31.2-15.6-11.8.7-23.3,3.6-28.3,13.4l-2.9.8c-8.3-.4-3.1,12.5-12.9,13.2v-5s1.5-9.9,1.5-9.9c13.9-25.6,52.5-31.4,74.2-13.9,5.7,4.6,9.4,11.2,10.4,17.8h0Z"/>
    <path class="st1" d="M469.5,335.8c1.1,16.2-16.1,36.4-32,40.4,0-5.6-1.9-11-4.7-16.5l6.3-8.4,5.5-2.3,5.2,3.3.6,1.8c.1.4,1.3-.6,1.4-.7,3.4-.5,4.2-4.1,5-7.1l2.1-8.9,5.6-8.7c1-1.6-.9-5.3-2.8-6.1-5-2.1-7.4,5.9-13,.7l-1,2.1c-1.5,0-4.3-.7-5-2-2.2-4.1,3.1-6.8,3.3-11.9l-.5-1c14.4-.3,23,12.5,24,25.3h0Z"/>
    <path class="st1" d="M305.6,381.2l-.5-6.8c-.2-2.7.2-6.3.7-9.2.7-3.8,2.6-8.8,5.1-11.7l5.6-6.2c0,4,1.9,8.6,2.8,13.1l-2.1,9.7-.7,17"/>
    <polyline class="st11" points="386.9 411.2 386.8 383.9 397.8 381.2 398.2 410.3"/>
    <polyline class="st13" points="343.7 404.3 350.6 405.4 354.7 403.2 354.8 406.3"/>
    <path class="st6" d="M339.7,340.7c0,3.5,2.9,6.6,5.9,8.4h2.9c1.7,2.7,5.7,4.5,8.9,5,.6,2.1,2.2,4.3,4,6.2l2.2,3.3c-4.6,1.5-10.2,1.8-15.1,1.4-3.6-5.5-13.5-9.5-19.4-16.3l-8.3-9.5c-1.8-2-2.4-7.3-2.1-9.9.4-4,2-8.7,4.7-11.1,1,10.5,6.8,18.1,16.1,22.5h0Z"/>
    <path class="st7" d="M318.8,329.3c-.2,2.6.4,7.9,2.1,9.9l-4.8,4.2c-1.7.6-4.3,2-5.7,3.5-1.2,1.4-.8,5,.3,6.6-2.5,2.9-4.4,7.9-5.1,11.7-4.4-3.7-7.8-9-7.5-14.7.4-7.5,4-15.2,11.5-18.1l9.1-3h0Z"/>
    <path class="st13" d="M439.8,303.4l5.8,7.1.5,1c-2.1,0-4.8,1.5-6.3,3-4.3-1.9-8.6-1.4-12,1.9l-6.1,5.8-2.9,3.1c.2-.9-.2-3.4-.6-4.4l-2.9-6.1-6.2,4.7-2.4-7.2-.2-2.9,8-.8,2.8,2.8c.5.5,1.6-1.3,2.1-1.8l5.5-5.2,1.9-.9,2.2-.8c3-1.1,7.9-.6,10.9.7h0Z"/>
    <path class="st2" d="M353.6,309.3v5c0,7.9,5.2,15.9,11.9,21.1l14-1.7-4.9-4.1,4.3-6.6,1-1.5c.4-.6,2.3.4,2.9.7l5.8,2.9,9.1,3.7,10.1-8.3,1.1-1,6.2-4.7,2.9,6.1c.5,1,.8,3.5.6,4.4l-1.8,2.3-10.9,9.4,7.1.8c-3.1,2.6-6.2,4.4-11,5.3.1.9.5,3.4-.3,3.9l-4.5,2.3c-13.5-2.7-26-7.4-38.9-12.6-6.6-2.5-12.6-5.7-17.8-9.7l3.9-2.2-6.7-2.2c-2.3-.8-1.1-7.1,1.5-8.6,4.6-2.5,9.4-4,14.2-4.6h0Z"/>
    <path class="st1" d="M406.3,358.1l3,6.4c-9.9,6.6-23.4,9.1-33.7,7.5,10.6-3.7,20.9-8.4,30.7-13.9h0Z"/>
    <path class="st1" d="M363.7,363.7l-2.2-3.3c-1.8-1.9-3.5-4-4-6.2l4.5-3.5,21.4,6.7-19.6,6.3h0Z"/>
    <path class="st13" d="M348.6,365c-9-.8-23.8-8.4-19.4-16.3,5.9,6.8,15.8,10.8,19.4,16.3h0Z"/>
    <polygon class="st7" points="428.1 339.7 432 340.5 422.7 353.4 414.4 353.3 428.1 339.7"/>
    <path class="st1" d="M413.1,337.8l-7.1-.8,10.9-9.4h5.6c-3.1,4.4-6,7.4-9.4,10.2h0Z"/>
    <path class="st13" d="M362,350.7l-4.5,3.5c-3.2-.5-7.2-2.3-8.9-5,1.8-1.9,4.5-2.2,7.1-1.1l6.3,2.6Z"/>
    <path class="st2" d="M345.6,349.2c-3-1.8-6-4.9-5.9-8.4l9.5,4.5-3,2.1c-.4.3-.6,1.1-.5,1.8h0Z"/>
    <path class="st11" d="M456.8,346.2l-5,7.1c-.1.1-1.2,1.1-1.4.7l-.6-1.8c1.1-.7.4-4.3-.9-5-1.1-.6-3.6.8-4.3,1.7l-5.5,2.3c4.9-6.5,8.9-17.8,8.6-25.9l1-2.1c5.6,5.2,8-2.8,13-.7,1.9.8,3.8,4.5,2.8,6.1l-5.6,8.7-2.1,8.9h0Z"/>
    <path class="st13" d="M378.3,294.9c2.6,4.5-1.5,11.2-5.4,16.5l1.3,5.9c0,1.5,0,3.5.5,4.6s3.2,1.5,4.2,1.2l-4.3,6.6,4.9,4.1-14,1.7c-6.8-5.2-11.8-13.2-11.9-21.1,9.8-.6,4.5-13.6,12.9-13.2-3.6,7.4-1,17,3.7,23.7-.6-5.7-3.1-10.4-1.2-15.1l3.7-9.5c.8-1.9,3.9-4.2,5.6-5.3h0Z"/>
    <path class="st2" d="M369.4,300.4l3.3-.2-3.7,9.5c-1.8,4.7.6,9.4,1.2,15.1-4.8-6.8-7.3-16.4-3.7-23.7l2.9-.8h0Z"/>
    <path class="st2" d="M449.8,352.2l-5.2-3.3c.7-.9,3.2-2.2,4.3-1.7,1.3.6,2,4.2.9,5h0Z"/>
    <path class="st2" d="M451.8,353.3l5-7.1c-.7,3-1.6,6.6-5,7.1Z"/>
    <path class="st7" d="M403.8,291l2.4,2.9,10.5,8.4,2.6,7.3c-.5.5-1.6,2.3-2.1,1.8l-2.8-2.8-8,.8c-3.5-3.9-7.9-7.9-13.6-8.2s-11,3.5-11.2,9l25,2.1,2.4,7.2-1.1,1c-1.6-1-6.1-3.4-8.1-3.1-4.1,1.1-8.3,4.7-11.2,7.8l-5.8-2.9c-.7-.3-2.6-1.2-2.9-.7l-1,1.5c-1,.3-3.8-.2-4.2-1.2s-.4-3-.5-4.6l-1.3-5.9c3.9-5.3,8-12.1,5.4-16.5,9.6-6.7,15-4.7,25.5-3.9h0Z"/>
    <path class="st2" d="M406.4,309.4l.2,2.9-25-2.1c.2-5.5,5.4-9.4,11.2-9s10.1,4.3,13.6,8.2h0Z"/>
    <path class="st11" d="M426.7,303.5l-1.9.9c-2.2-.5-6.5-.9-8.1-2.1l-10.5-8.4-2.4-2.9c9.1.6,17.8,4.6,22.9,12.5h0Z"/>
    <path class="st2" d="M424.8,304.4l-5.5,5.2-2.6-7.3c1.6,1.3,5.9,1.6,8.1,2.1h0Z"/>
    <path class="st1" d="M408.1,380.2l-1.8-2.3,13.6-7.7c2.5,1.9,3.9,2.9,5.8,3.1l.4,4.9-7.2,1.1"/>
    <path class="st11" d="M426.2,378.2l-.4-4.9-1.1-6.4c2.2-2.4,5.8-5.6,8.3-7.2,2.8,5.5,4.7,11,4.7,16.5"/>
  </g>
</svg>