<?xml version="1.0" encoding="UTF-8"?>
<svg xmlns="http://www.w3.org/2000/svg" viewBox="0 0 434.29 450.21">
  <defs>
    <style>
      .cls-1 {
        fill: #4b6276;
      }

      .cls-1, .cls-2, .cls-3, .cls-4, .cls-5, .cls-6, .cls-7, .cls-8, .cls-9, .cls-10, .cls-11, .cls-12, .cls-13, .cls-14, .cls-15, .cls-16, .cls-17, .cls-18, .cls-19 {
        stroke-width: 0px;
      }

      .cls-2 {
        fill: #4b6174;
      }

      .cls-3 {
        fill: #88d0ed;
      }

      .cls-4 {
        fill: #55badf;
      }

      .cls-5 {
        fill: #1b1305;
      }

      .cls-6 {
        fill: #3cb049;
      }

      .cls-7 {
        fill: #090707;
      }

      .cls-8 {
        fill: #0d0c0c;
      }

      .cls-9 {
        fill: #b16028;
      }

      .cls-10 {
        fill: #dfe8f0;
      }

      .cls-11 {
        fill: #da1c43;
      }

      .cls-12 {
        fill: #e0eaf3;
      }

      .cls-13 {
        fill: #b05f28;
      }

      .cls-14 {
        fill: #af5f27;
      }

      .cls-15 {
        fill: #6588c5;
      }

      .cls-16 {
        fill: #fff;
      }

      .cls-17 {
        fill: #eb965d;
      }

      .cls-18 {
        fill: #fff5f0;
      }

      .cls-19 {
        fill: #f4e05a;
      }
    </style>
  </defs>
  <g id="Layer_1" data-name="Layer 1">
    <g id="z89UPI.tif">
      <g>
        <path class="cls-7" d="M30.04,450.17l.04-59.96s-3.64,0-5.26,0c-13.16-.03-19.97-5.18-23.86-17.99-.11-.38-.63-.63-.96-.95,0-2.33,0-4.66,0-6.99.36-.65.86-1.26,1.06-1.96,3.04-10.85,10.35-16.68,21.59-17.07,2.42-.08,4.84-.01,7.23-.01v-14.93c-1.82,0-3.44,0-5.06,0-13.15-.03-23.92-6.87-23.92-22.46s12.54-22.32,23.92-22.48c2.26-.03,2.8,0,5.03,0v-119.71c-1.87,0-3.49,0-5.12,0-13.11-.04-23.83-7.47-23.83-22.47s10.8-22.25,22.15-22.47h7.04v-14.95h-3.97C10.19,105.78,0,97.21,0,83.31s9.56-22.47,26.11-22.47c1.87,0,3.98,0,3.98,0l.03-31.16C30.12,5.02,40.29,0,61.86,0c114.07,0,342.22,0,342.22,0v23.15h30.12v89.87h-29.51v14.69h29.61v89.91h-29.55v15.07h29.48v89.89h-29.38v14.83h29.45v89.75h-29.82v23.04l-374.43-.05ZM60.87,60.72h14.14v45.17h-29.4v14.72h29.4v45.17h-29.43v119.51h29.44v45.16h-29.56v14.67h29.54v45.21h-29.08v44.8l343.1.02v-14.99s.18-2.65.18-3.98c0-132.07-.24-401.2-.24-401.2,0,0-320.07,0-328.35,0s-15.97,45.75-15.97,45.75h16.23ZM404.71,38.13v59.33h14.12v-59.33h-14.12ZM418.68,411.93v-59.14h-14.06v59.14h14.06ZM404.41,202.35h14.56v-59.28h-14.56v59.28ZM418.88,307.13v-59.19h-14.37v59.19h14.37ZM59.76,360.29c-12.12,0-23.68-.03-35.24.01-5.95.02-8.56,2.22-8.68,7.12-.12,4.97,2.85,7.7,8.76,7.74,10.26.08,20.53.04,30.8,0,1.42,0,2.84-.22,4.37-.35v-14.54ZM59.75,300.41c-12.12,0-23.69-.04-35.25.02-5.95.03-8.57,2.28-8.66,7.17-.09,4.93,2.9,7.67,8.81,7.71,10.6.08,21.19.04,31.79,0,1.09,0,2.17.19,3.31,0v-14.9ZM59.66,135.82c-12.7,0-25.12-.21-37.53.13-3.75.1-6.26,2.7-6.33,7-.06,4.5,2.45,7.36,6.41,7.48,12.4.39,24.81.14,37.45.14v-14.75Z"/>
        <path class="cls-17" d="M60.82,165.78h14.19v-45.17c-4.71,0-9.43,0-14.14,0-.02-4.91-.03-9.81-.05-14.72h14.19v-45.17h-14.14s-.26-45.75-.26-45.75h328.35s.12,403.85.06,405.18c-109.24,0-328.22,0-328.22,0v-29.82h14.2v-45.21h-14.08s-.1-14.67-.1-14.67h14.19v-45.16c-4.72,0-9.43,0-14.14,0-.02-39.84-.03-79.67-.05-119.51ZM344.42,322.61v-44.55H120.08v44.55h224.34ZM150.05,382.44h164.38v-44.57h-164.38v44.57ZM135.09,45.67v-14.5h-14.77v14.5h14.77ZM90.34,31.18v14.36h14.87v-14.36h-14.87Z"/>
        <path class="cls-9" d="M60.8,390.33v29.82s218.98,0,328.22,0c0,4.78,0,14.99,0,14.99H45.92v-44.82h14.88Z"/>
        <path class="cls-13" d="M60.82,165.78c.02,39.84.03,79.67.05,119.51-4.96,0-9.93,0-15.29,0v-119.51h15.24Z"/>
        <path class="cls-11" d="M404.71,38.13h14.12v59.33h-14.12v-59.33Z"/>
        <rect class="cls-2" x="404.62" y="352.78" width="14.06" height="59.14"/>
        <rect class="cls-15" x="404.41" y="143.07" width="14.56" height="59.28"/>
        <rect class="cls-6" x="404.52" y="247.94" width="14.37" height="59.19"/>
        <path class="cls-1" d="M59.76,360.29v14.54c-1.52.13-2.94.34-4.37.35-10.27.03-20.53.07-30.8,0-5.91-.04-8.87-2.77-8.76-7.74.12-4.91,2.73-7.1,8.68-7.12,11.56-.04,23.12-.01,35.24-.01Z"/>
        <path class="cls-1" d="M59.75,300.41v14.9H24.66c-5.92-.05-8.9-2.78-8.81-7.71.09-4.89,2.71-7.14,8.66-7.17l35.25-.02Z"/>
        <path class="cls-1" d="M59.57,90.34l-36.36-.07c-4.71-.08-7.41-3.29-7.3-7.7.11-4.29,2.61-7.01,7.35-7.08l36.31-.06v14.89Z"/>
        <path class="cls-1" d="M59.66,135.82v14.75c-12.63,0-25.05.24-37.45-.14-3.96-.12-6.47-2.98-6.41-7.48.06-4.31,2.57-6.9,6.33-7,12.41-.34,24.83-.13,37.53-.13Z"/>
        <path class="cls-9" d="M60.62,14.98l.26,45.75h-16.23v-29.63c0-8.42,5.11-16.12,15.97-16.12Z"/>
        <path class="cls-14" d="M60.83,330.45c.03,4.89.06,9.78.1,14.67-5.06,0-10.12,0-15.46,0v-14.67h15.36Z"/>
        <path class="cls-13" d="M60.82,105.89c.02,4.91.03,9.81.05,14.72-4.94,0-9.88,0-15.26,0v-14.72h15.2Z"/>
        <path class="cls-5" d="M344.42,322.61H120.08v-44.55h224.34v44.55ZM329.26,293.19h-193.91v14.04h193.91v-14.04Z"/>
        <path class="cls-5" d="M150.05,382.44v-44.57h164.38v44.57h-164.38ZM165.18,367.26h134.1v-14.12h-134.1v14.12Z"/>
        <rect class="cls-18" x="120.32" y="31.18" width="14.77" height="14.5"/>
        <rect class="cls-18" x="90.34" y="31.18" width="14.87" height="14.36"/>
        <path class="cls-10" d="M218.52,86.08c-.39.21-.78.43-1.17.64.39-.21.78-.43,1.17-.64Z"/>
        <rect class="cls-19" x="135.35" y="293.19" width="193.91" height="14.04"/>
        <rect class="cls-19" x="165.18" y="353.14" width="134.1" height="14.12"/>
      </g>
    </g>
  </g>
  <g id="Layer_6" data-name="Layer 6">
    <path class="cls-8" d="M184.13,99.42c9.05-18.98,23.95-29.52,44.87-30.57,23.82-1.2,41.21,9.14,51.72,30.94,13.95-3.92,26.41-1.09,36.96,8.66,20.65,19.08,13.6,53.03-12.98,62.37-3.77,1.32-5.02,2.94-4.98,6.97l.11,69.99h-135.05l.06-70.42c.02-3.36-.6-5.11-4.31-6.34-16.84-5.55-27.93-23.15-25.41-39.48,2.94-19.15,18.23-33.15,36.89-33.47,3.92-.07,7.86.85,12.13,1.35Z"/>
  </g>
  <g id="Layer_4" data-name="Layer 4">
    <path class="cls-3" d="M202.34,210.58l15.12-.07v7.37h66.84s.26,10.07,0,14.77c-29.97,0-60.29,0-90.35,0v-14.71h8.39v-7.35Z"/>
  </g>
  <g id="Layer_5" data-name="Layer 5">
    <polygon class="cls-4" points="193.95 217.94 193.95 232.65 180.14 232.65 180.14 217.92 193.95 217.94"/>
  </g>
  <g id="Layer_3" data-name="Layer 3">
    <path class="cls-12" d="M163.55,115.66c-.97,3.94-2.35,7.82-2.84,11.82-1.33,10.84,7.45,15.9,15.82,16.22,3.98.15,7.99.32,11.94-.05,4.68-.44,6.37,1,6.21,5.95-.36,11.11.04,22.24-.19,33.36-.09,4.33,1.33,5.78,5.71,5.76l84.11-.1v14.49h-66.84s.13,4.98,0,7.41c-4.81.02-15.12.07-15.12.07v-7.48h-22.43v-45.25c-9.05.52-17.86.45-23.55-7.04-2.95-3.89-5.15-8.89-6.02-13.69-1.65-9.07,4.32-17.92,13.21-21.46Z"/>
    <path class="cls-10" d="M217.4,86.68c-2.75,6.58-5.95,13.01-8.11,19.78-2.25,7.02-3.5,14.36-5.39,22.45-3.94-2.38-7.62-4.6-11.3-6.83,1-3.04,2.01-6.08,3.01-9.12,3.8-11.64,9.42-21.76,21.8-26.28Z"/>
    <path class="cls-12" d="M284.3,157.83s-2.98-12.19-.68-14.25c2.67-2.39,24.88.11,29.35.1,0,8.13-8.49,14.26-22.16,14.26l-6.51-.11Z"/>
  </g>
  <g id="Layer_2" data-name="Layer 2">
    <path class="cls-16" d="M164.64,115.01c7.06-2.94,13.77-2.1,20.16,1.91,2.64,1.65,5.2,3.44,7.79,5.17,3.68,2.23,7.37,4.45,11.3,6.83,1.9-8.09,3.14-15.43,5.39-22.45,2.17-6.77,5.37-13.2,8.11-19.78,0,0-.05.03-.05.03.39-.21,6.83-3.79,15.97-3.79,17.18,0,30.61,13.34,38.11,39.26,2.99-1.86,5.82-3.65,8.68-5.4,8.53-5.2,18.74-4.51,26.37,1.77,7.56,6.22,6.49,18,6.49,25.13l-28.67.21v44.72l-84.11.1c-4.38.03-5.8-1.43-5.71-5.76.24-11.12-.17-22.25.19-33.36.16-4.95-1.53-6.38-6.21-5.95-3.95.37-7.96.2-11.94.05-8.37-.32-17.15-5.38-15.82-16.22.49-4,1.87-7.88,2.84-11.82,0,0-.05.04-.05.04.38-.23.76-.45,1.14-.68Z"/>
  </g>
</svg>