<?xml version="1.0" encoding="UTF-8"?>
<svg id="Layer_1" data-name="Layer 1" xmlns="http://www.w3.org/2000/svg" viewBox="0 0 800 800">
  <defs>
    <style>
      .cls-1 {
        fill: none;
      }

      .cls-2 {
        fill: #2d787a;
      }

      .cls-3 {
        fill: #468c4b;
      }

      .cls-4 {
        fill: #1263ac;
      }

      .cls-5 {
        fill: #3b4e9f;
      }

      .cls-6 {
        fill: #ee342e;
      }

      .cls-7 {
        fill: #f26822;
      }

      .cls-8 {
        fill: #663a8a;
      }

      .cls-9 {
        fill: #f8981d;
      }

      .cls-10 {
        fill: #ffcd05;
      }

      .cls-11 {
        fill: #b1335c;
      }

      .cls-12 {
        fill: #a0ab39;
      }

      .cls-13 {
        fill: #f04d23;
      }
    </style>
  </defs>
  <g>
    <polygon class="cls-4" points="402.98 532.03 402.98 394.09 163.34 257.14 163.34 532.03 402.98 532.03"/>
    <polygon class="cls-8" points="163.34 532.03 402.98 680.19 636.41 532.03 163.34 532.03"/>
    <polygon class="cls-10" points="402.98 394.09 163.34 257.14 402.98 122.97 639.64 257.14 402.98 394.09"/>
    <polygon class="cls-6" points="402.98 532.03 402.98 394.09 639.64 257.14 639.64 532.03 402.98 532.03"/>
    <polygon class="cls-7" points="639.64 532.03 639.64 257.14 402.98 122.97 639.64 532.03"/>
    <polygon class="cls-3" points="402.98 122.97 163.34 257.14 163.34 532.03 402.98 122.97"/>
    <polygon class="cls-1" points="402.98 402.52 402.98 402.52 402.98 402.52 402.98 402.52 402.98 402.52 402.98 402.52"/>
    <polygon class="cls-1" points="402.98 402.52 402.98 402.52 402.98 402.52 402.98 402.52"/>
  </g>
  <g>
    <path class="cls-5" d="M201.66,599.45l-78.62,78.62c48,48,108.39,83.6,175.94,101.66l28.78-107.42c-48.42-12.94-91.7-38.46-126.1-72.86Z"/>
    <path class="cls-4" d="M128.79,473.35l-107.42,28.78c18.06,67.56,53.66,127.94,101.66,175.94l78.62-78.62c-34.4-34.4-59.92-77.69-72.86-126.1Z"/>
    <path class="cls-8" d="M400.59,681.85c-25.19,0-49.6-3.33-72.83-9.54l-28.78,107.42c32.41,8.66,66.47,13.31,101.61,13.31s69.2-4.65,101.61-13.31l-28.78-107.42c-23.23,6.21-47.64,9.54-72.83,9.54Z"/>
    <path class="cls-11" d="M473.41,672.31l28.78,107.42c67.56-18.06,127.94-53.66,175.94-101.66l-78.62-78.62c-34.4,34.4-77.69,59.92-126.1,72.86Z"/>
    <path class="cls-6" d="M779.8,502.13l-107.42-28.78c-12.94,48.42-38.46,91.7-72.86,126.1l78.62,78.62c48-48,83.6-108.39,101.66-175.94Z"/>
    <path class="cls-3" d="M201.66,201.59l-78.62-78.62c-48,48-83.6,108.39-101.66,175.94l107.42,28.78c12.94-48.42,38.46-91.7,72.86-126.1Z"/>
    <path class="cls-9" d="M599.52,201.59l78.62-78.62c-48-48-108.39-83.6-175.94-101.66l-28.78,107.42c48.42,12.94,91.7,38.46,126.1,72.86Z"/>
    <path class="cls-7" d="M672.38,327.69l107.42-28.78c-18.06-67.56-53.66-127.94-101.66-175.94l-78.62,78.62c34.4,34.4,59.92,77.69,72.86,126.1Z"/>
    <path class="cls-2" d="M119.26,400.52c0-25.19,3.33-49.6,9.54-72.83l-107.42-28.78c-8.66,32.41-13.31,66.47-13.31,101.61s4.65,69.2,13.31,101.61l107.42-28.78c-6.21-23.23-9.54-47.64-9.54-72.83Z"/>
    <path class="cls-13" d="M681.92,400.52c0,25.19-3.33,49.6-9.54,72.83l107.42,28.78c8.66-32.41,13.31-66.47,13.31-101.61s-4.65-69.2-13.31-101.61l-107.42,28.78c6.21,23.23,9.54,47.64,9.54,72.83Z"/>
    <path class="cls-10" d="M400.59,119.19c25.19,0,49.6,3.33,72.83,9.54l28.78-107.42c-32.41-8.66-66.47-13.31-101.61-13.31s-69.2,4.64-101.61,13.31l28.78,107.42c23.23-6.21,47.64-9.54,72.83-9.54Z"/>
    <path class="cls-12" d="M327.76,128.73l-28.78-107.42c-67.56,18.06-127.94,53.66-175.94,101.66l78.62,78.62c34.4-34.4,77.69-59.92,126.1-72.86Z"/>
  </g>
</svg>