<?xml version="1.0" encoding="utf-8"?>
<!-- Generator: Adobe Illustrator 26.5.0, SVG Export Plug-In . SVG Version: 6.00 Build 0)  -->
<svg version="1.1" id="Layer_1" xmlns="http://www.w3.org/2000/svg" xmlns:xlink="http://www.w3.org/1999/xlink" x="0px" y="0px"
	 viewBox="0 0 820.4 718.4" style="enable-background:new 0 0 820.4 718.4;" xml:space="preserve">
<style type="text/css">
	.st0{fill:#7ED0F4;}
	.st1{fill:#FFFFFF;}
	.st2{fill:#34BDD6;}
	.st3{fill:#0C1212;}
	.st4{fill:#0B1010;}
	.st5{fill:#0A0F0D;}
</style>
<g id="Layer_5">
	<path class="st0" d="M379.6,690.5c-17.2,1.7-86.1,2.4-86.1,2.4c-19.9-1-39.9-1.2-59.6-5.3c-31.2-6.5-51.4-25.8-62.2-56
		c-7.5-21-11-42.9-13.9-64.9c-4.3-31.7-19-107.7-19-313.5c0-23.2-9.1-37.1-9.1-55.1s-12.7-26.8-16.9-27.4
		c-65-16.8-70.3-67.2-70.3-84.5c0-5.7,0.7-10.1,6.4-10.1l666.3-0.9c16.6,2.4,32.7,30.8,30.9,69.6s22.6,75.1,23.7,238.9
		c-2.2,20.1,3.8,102,3.8,102s-8.3,0.4-11.8,7.5c-3.4-23.4-52.3-267.3-56.7-282.3c-8.2-27.7-16.7-46.2-43.2-55.6
		c-12.9-4.6-59.5-4.9-59.2,3.6C602.5,307.4,578.7,491.1,379.6,690.5z"/>
	<path class="st0" d="M663.1,145"/>
	<path class="st0" d="M592.8,144"/>
	<polygon class="st1" points="725.1,168.2 675,173.2 710,495.3 751.2,510.4 783.6,473.7 	"/>
</g>
<g id="Reflection_Lines">
	<path class="st1" d="M161.6,427.2c1,15.6,8.1,97.9,12.4,123.2c0.9,5.7,4.2,10.2,10,11.9c14.1,4.2,27.2-7.8,24.5-22.8
		c-2.1-11.4-10.5-87-11.4-113.3c-1.1-30.8-1.3-111-1.3-120.4c0-4.6-1.7-8.3-5-11.5c-8.6-8.3-24.8-6.6-30.5,7
		C157.9,302.5,160.6,411.9,161.6,427.2z"/>
</g>
<g id="Layer_4">
	<path class="st2" d="M605.7,150.1c-36.8,219.7-45.8,247.2-89.3,332.9S359,687.7,358.9,688.9c1.3,0,50.5-3.2,73.6-6.1
		c29.5-3.6,106.2,23.5,143-31.2C622.8,581.6,607.7,163.2,605.7,150.1z"/>
</g>
<g id="Layer_3">
	<path class="st0" d="M26.2,49.5c-12.6,0-23.7,12.1-22.4,24.7c2.2,20.4,6,40.5,14.1,59.5c15.4,36,41.2,60.3,79.8,69.4
		c4.4,1,5,2.5,5,6.4c0,25.3,7.8,222.8,11,267.4c5.9,82.2,18.2,136.3,25,155.6c10.9,30.9,53.1,83.7,146.1,83.7c7.3,0,140.5,0,175.6,0
		c131.1,0,160.9-56.7,160.9-158.6c0-33.1,8.6-353.3,8.1-374.5c-0.1-3,0.4-4,3.6-3.9c4.8,0.2-1.2-5.8,3.6-4.9
		c24.5,4.7,16.9,16,23.6,39.8c4.9,17.5,25,272.2,32.5,289.5c8.9,20.6,26.3,31.1,48.1,29.6c36.7-2.5,57.8-29.5,58.4-63.6
		c0.1-6.5,0.2-12.9,0.4-19.4c0.4-19.9-2.1-128.1-4.7-155.8c-2.7-29-5.7-58-7.5-87.1c-1.4-23.2-2.5-46.4-7.2-69.2
		c-5.2-24.8-11.7-79.6-59.6-86.3 M724.1,478.3c-4.8-9.6-18.9-189.5-22.9-237.4c-5.5-65.8-11.5-86.6-38-95.9
		c-12.9-4.5-20.5-1.3-34.1-1.5c-5.1-0.1-36.2,0.5-36.2,0.5c-0.3,20.3-6.4,356.5-6.4,389.3c0,63.4,0.4,147.2-102.2,147.2
		c-29.3,0-139.1-0.6-156.4,0c-36.8,1.2-121.7,20-156.1-60.1c-8.6-20.1-11-41.9-13.9-63.4c-4.3-31-5.8-62.2-8.8-93.3
		c-2.9-29.1-5-58.3-6.5-87.5c-2.1-41.9-5.9-202.8-5.9-202.8c-25.5,0-75.5-27-86.9-55.9c-1.7-4.4-9.6-28.4-7.4-31.4
		c2-2.7,614.2-7.2,666.1,0.1c39.3,5.6,46.3,142.4,52.5,234.5c5,74.1,3.5,140.7,3.6,145.4c0.2,14.4-2,26.8-19.1,28.8
		C728.5,496.8,725.7,481.5,724.1,478.3z"/>
	<circle class="st1" cx="174.6" cy="238.9" r="20"/>
</g>
<g id="Layer_2_00000176750666214484254300000007060198099180728750_">
	<path class="st3" d="M504.5,425.6c10.4,1.2,20.8,0.4,31.2,0.6c8.3,0.2,14.2,3.9,16.6,10.9c2.8,8,0.5,16.8-5.7,21.6
		c-3.6,2.7-7.8,3.5-12.2,3.5c-4,0-8,0.1-11.9,0.2c-23.1,0-46.3-0.2-69.4-0.1c-28.1,0.1-56.3,0.2-84.4,0.5
		c-8.8,0.1-17.6,0.5-26.5,0.7c-8.6,0.1-14.5-4-16.7-11.2c-2.5-8.4,0.4-17.1,7-21.7c7-4.8,15-4.8,23-4.5c34.3,1.2,68.6-1,102.9-0.5
		C473.9,425.8,489.2,425.6,504.5,425.6z"/>
	<path class="st4" d="M352.1,341.3c-15.3,0-24.3-12.9-18.3-26.2c2.9-6.3,7.9-9.8,14.9-9.7c33.3,0.2,66.6-0.1,99.9,0.7
		c27,0.7,85.6,0.4,88,0.5c10.3,0.6,17.1,8,17,18.4c-0.2,10.5-7,17.5-17.6,17.5C505.4,342.5,382.8,341.4,352.1,341.3z"/>
	<path class="st5" d="M499.6,548.1c12,0.1,24,0.3,35.9,0.3c7.5,0,13.2,3.1,16.2,10.1c3.1,7.1,2.4,14-2.6,20.1
		c-3.5,4.3-8.3,5.8-13.7,5.8c-18.7,0-37.3,0.1-55.9,0.2c-36.3,0-72.5-0.1-108.8-0.2c-4.5,0-9,0-13.5,0c-10.6-0.1-17.7-7.4-17.7-18
		c0-10.7,7.1-17.9,17.7-17.9c45.3,0,90.5,0,135.8-0.1C495.3,548.3,497.4,548.2,499.6,548.1z"/>
	<path class="st3" d="M553.6,387.4c-0.9,2.3-1.8,4.7-2.7,7c-0.1,0.3-0.2,0.7-0.4,1l0-0.1c-2.3,2-4.6,3.9-7,5.9
		c-3.8,1.4-7.8,1.2-11.8,1.2c-21.2,0-42.5,0-63.7,0c-4.1,0-8.3,0.2-12.3-1.2c-9-5.9-12.1-13.7-9.2-22.8c2.5-7.8,8-12,16.3-12
		c24.1,0,48.3,0,72.5,0c11.1,0,18,6.8,18.3,17.9C553.6,385.4,553.6,386.4,553.6,387.4z"/>
	<path class="st3" d="M553.6,259c-0.9,2.3-1.8,4.7-2.7,7c-0.1,0.3-0.2,0.7-0.4,1l0-0.1c-2.3,2-4.6,3.9-7,5.9
		c-3.8,1.4-7.8,1.2-11.8,1.2c-21.2,0-42.5,0-63.7,0c-4.1,0-8.3,0.2-12.3-1.2c-9-5.9-12.1-13.7-9.2-22.8c2.5-7.8,8-12,16.3-12
		c24.1,0,48.3,0,72.5,0c11.1,0,18,6.8,18.3,17.9C553.6,257,553.6,258,553.6,259z"/>
	<path class="st3" d="M553.6,508.7c-0.9,2.3-1.8,4.7-2.7,7c-0.1,0.3-0.2,0.7-0.4,1l0-0.1c-2.3,2-4.6,3.9-7,5.9
		c-3.8,1.4-7.8,1.2-11.8,1.2c-21.2,0-42.5,0-63.7,0c-4.1,0-8.3,0.2-12.3-1.2c-9-5.9-12.1-13.7-9.2-22.8c2.5-7.8,8-12,16.3-12
		c24.1,0,48.3,0,72.5,0c11.1,0,18,6.8,18.3,17.9C553.6,506.7,553.6,507.7,553.6,508.7z"/>
	<path class="st4" d="M387.3,205.6c-13.8,0.3-27.6,0.1-41.4,1.1c-13.9,0.9-19.2-8-19.6-16.7c-0.4-11.1,8.8-20.9,19.7-20.9
		c30.4-0.1,60.9-0.1,91.3-0.1c30.8,0,61.5,0,92.2,0c3.7,0,7.4,0.1,10.9,0.8c7.6,1.4,12.6,8,13,16.6c0.5,8.5-3.9,15.5-11.2,18
		c-0.8,0.3-1.5,0.6-2.3,0.9c-12.2,0-24.3,0-36.5,0C464.9,205.5,426.1,205.6,387.3,205.6z"/>
</g>
</svg>
