<?xml version="1.0" encoding="utf-8"?>
<!-- Generator: Adobe Illustrator 28.0.0, SVG Export Plug-In . SVG Version: 6.00 Build 0)  -->
<svg version="1.1" id="Layer_1" xmlns="http://www.w3.org/2000/svg" xmlns:xlink="http://www.w3.org/1999/xlink" x="0px" y="0px"
	 viewBox="0 0 1225.8 713.8" style="enable-background:new 0 0 1225.8 713.8;" xml:space="preserve">
<style type="text/css">
	.st0{fill:#0B1B3C;}
	.st1{fill:none;stroke:#46334F;stroke-width:3.25;stroke-miterlimit:10;}
	.st2{fill:none;stroke:#253E87;stroke-width:3.25;stroke-miterlimit:10;}
	.st3{fill:none;stroke:#46334F;stroke-width:3;stroke-miterlimit:10;stroke-dasharray:4.98,4.98;}
	.st4{fill:none;stroke:#46334F;stroke-width:3;stroke-miterlimit:10;stroke-dasharray:4.68,4.68;}
	.st5{fill:none;stroke:#46334F;stroke-width:3;stroke-miterlimit:10;stroke-dasharray:4.84,4.84;}
	.st6{fill:none;stroke:#46334F;stroke-width:3;stroke-miterlimit:10;stroke-dasharray:5.08,5.08;}
	.st7{fill:#46334F;}
	.st8{fill:none;stroke:#647288;stroke-miterlimit:10;}
	.st9{fill:none;}
	.st10{fill:#647388;}
	.st11{font-family:'MyriadPro-Regular';}
	.st12{font-size:11.98px;}
	.st13{letter-spacing:4;}
	.st14{letter-spacing:2;}
	.st15{font-size:7.98px;}
	.st16{fill:none;stroke:#3A7486;stroke-width:2;stroke-miterlimit:10;}
	.st17{fill:none;stroke:#46334F;stroke-width:3;stroke-miterlimit:10;}
	.st18{fill:none;stroke:#46334F;stroke-width:3;stroke-miterlimit:10;stroke-dasharray:3.94,3.94;}
	.st19{fill:none;stroke:#46334F;stroke-width:3;stroke-miterlimit:10;stroke-dasharray:3.82,3.82;}
	.st20{fill:none;stroke:#46334F;stroke-width:3;stroke-miterlimit:10;stroke-dasharray:5.17,5.17;}
	.st21{fill:none;stroke:#3A7486;stroke-width:1.5;stroke-miterlimit:10;stroke-dasharray:5;}
	.st22{fill:none;stroke:#253E87;stroke-width:1.5;stroke-miterlimit:10;stroke-dasharray:5,2;}
	.st23{fill:none;stroke:#46334F;stroke-width:1.5;stroke-miterlimit:10;stroke-dasharray:5,3;}
</style>
<g id="Layer_2_00000000936547569924913080000007658514378672704435_">
</g>
<g id="Layer_1_00000060714924763572394870000010723562008827537036_">
	<rect class="st0" width="1225.8" height="713.8"/>
	<line class="st1" x1="675.1" y1="361.8" x2="698.1" y2="361.8"/>
	<line class="st2" x1="719.7" y1="238.9" x2="767.9" y2="238.9"/>
	<line class="st1" x1="768.3" y1="238.9" x2="798.9" y2="238.9"/>
	<path class="st3" d="M550.7,498.3c-93.2-3.9-167.5-79.2-170.1-172.5"/>
	<path class="st4" d="M557.8,286c-3.2,18.3-18,32.4-36.5,34.5"/>
	<path class="st5" d="M497.6,211.4c32.6,3.5,58,29.9,60.4,62.6"/>
	<path class="st6" d="M380.7,313.2c3.8-55.7,48.8-99.6,104.5-102.1"/>
	<rect x="378.8" y="119.6" class="st7" width="472.4" height="5.3"/>
	<line class="st8" x1="851.3" y1="102.1" x2="851.3" y2="124.8"/>
	<line class="st8" x1="859.2" y1="108" x2="371.1" y2="108"/>
	<line class="st8" x1="378.8" y1="102.5" x2="378.8" y2="124.8"/>
	<line class="st9" x1="644.7" y1="102.5" x2="644.7" y2="124.8"/>
	<text transform="matrix(1 0 0 1 706.65 99.54)" class="st10 st11 st12">b =</text>
	<text transform="matrix(1 0 0 1 723.27 99.54)" class="st10 st11 st12"> </text>
	<text transform="matrix(1 0 0 1 726.95 99.54)" class="st10 st11 st12">38.22</text>
	<text transform="matrix(1 0 0 1 445.21 99.54)" class="st10 st11 st12 st13">a</text>
	<text transform="matrix(1 0 0 1 457.28 99.54)" class="st10 st11 st12"> </text>
	<text transform="matrix(1 0 0 1 459.52 99.54)" class="st10 st11 st12 st14">=</text>
	<text transform="matrix(1 0 0 1 470.01 99.54)" class="st10 st11 st12"> 61.77</text>
	<text transform="matrix(1 0 0 1 674.16 160.48)" class="st10 st11 st12">61.77 / 38.22</text>
	<text transform="matrix(1 0 0 1 408.49 160.48)" class="st10 st11 st12">a</text>
	<text transform="matrix(1 0 0 1 408.49 175.88)" class="st10 st11 st12">b</text>
	<text transform="matrix(1 0 0 1 452.1 175.88)" class="st10 st11 st12">b</text>
	<text transform="matrix(1 0 0 1 444.82 160.48)" class="st10 st11 st12">a+b</text>
	<text transform="matrix(1 0 0 1 674.16 175.4)" class="st10 st11 st12">100 / 61.77</text>
	<text transform="matrix(1 0 0 1 724.06 247.71)" class="st10 st11 st15">A</text>
	<text transform="matrix(1 0 0 1 763.06 247.71)" class="st10 st11 st15">B</text>
	<text transform="matrix(1 0 0 1 788.84 247.71)" class="st10 st11 st15">C</text>
	<text transform="matrix(1 0 0 1 634.41 261.38)" class="st10 st11 st15">A</text>
	<text transform="matrix(1 0 0 1 672.41 261.38)" class="st10 st11 st15">B</text>
	<text transform="matrix(1 0 0 1 690.19 261.38)" class="st10 st11 st15">C</text>
	<text transform="matrix(1 0 0 1 751.82 166.16)" class="st10 st11 st12">= 1.618</text>
	<text transform="matrix(1 0 0 1 471.31 166.16)" class="st10 st11 st12">=</text>
	<text transform="matrix(1 0 0 1 478.45 166.16)" class="st10 st11 st12 st13"> </text>
	<text transform="matrix(1 0 0 1 486.2 166.16)" class="st10 st11 st12">1.618…</text>
	<text transform="matrix(1 0 0 1 426.94 166.16)" class="st10 st11 st12">=</text>
	<circle class="st16" cx="656.8" cy="253.9" r="42.4"/>
	<text transform="matrix(1 0 0 1 637.62 372.24)" class="st10 st11 st15">A</text>
	<text transform="matrix(1 0 0 1 669.48 372.24)" class="st10 st11 st15">B</text>
	<text transform="matrix(1 0 0 1 689.14 372.24)" class="st10 st11 st15">C</text>
	<text transform="matrix(1 0 0 1 695.44 498.25)" class="st10 st11 st15">D</text>
	<text transform="matrix(1 0 0 1 656 530.14)" class="st10 st11 st15">A</text>
	<text transform="matrix(1 0 0 1 713.15 530.14)" class="st10 st11 st15">S</text>
	<text transform="matrix(1 0 0 1 744.1 530.14)" class="st10 st11 st15">B</text>
	<text transform="matrix(1 0 0 1 744.1 480.22)" class="st10 st11 st15">C</text>
	<circle class="st16" cx="656.8" cy="372.2" r="42.4"/>
	<circle class="st16" cx="759.3" cy="253.9" r="42.4"/>
	<line class="st2" x1="638.6" y1="361.8" x2="674.2" y2="361.8"/>
	<line class="st2" x1="660.9" y1="521.2" x2="710.5" y2="521.2"/>
	<line class="st1" x1="710.5" y1="521.2" x2="743.6" y2="521.2"/>
	<line class="st16" x1="614.5" y1="253.9" x2="699" y2="253.9"/>
	<line class="st16" x1="637.9" y1="216" x2="637.9" y2="253.9"/>
	<line class="st16" x1="674.2" y1="216" x2="637.9" y2="216"/>
	<line class="st16" x1="674.2" y1="252.8" x2="674.2" y2="216"/>
	<polygon class="st16" points="759,211.8 719.2,240.8 734.4,287.6 783.6,287.6 798.8,240.8 	"/>
	<line class="st16" x1="759.3" y1="211.5" x2="734.4" y2="287.6"/>
	<line class="st16" x1="783.6" y1="287.6" x2="759.3" y2="211.5"/>
	<rect x="511.2" y="289.3" class="st16" width="5.2" height="5.2"/>
	<path class="st17" d="M516.5,289.3c0,0.8-0.2,1.7-0.6,2.4"/>
	<path class="st17" d="M513.7,294c-0.7,0.4-1.6,0.6-2.4,0.6"/>
	<rect x="516.5" y="278.8" class="st16" width="41.9" height="41.9"/>
	<path class="st17" d="M519,320.7c-0.8,0-1.7,0.1-2.5,0.1"/>
	<rect x="490.3" y="278.8" class="st16" width="15.7" height="15.7"/>
	<path class="st17" d="M490.3,294.6c0-0.8,0.1-1.7,0.2-2.5"/>
	<path class="st18" d="M491.6,288.3c1.9-4.3,5.5-7.5,10-8.8"/>
	<path class="st17" d="M503.5,279c0.8-0.1,1.7-0.2,2.5-0.2"/>
	<rect x="506" y="278.8" class="st16" width="10.5" height="10.5"/>
	<path class="st17" d="M506,278.8c0.8,0,1.7,0.1,2.5,0.3"/>
	<path class="st19" d="M512,280.7c1.6,1.1,2.8,2.6,3.6,4.4"/>
	<path class="st17" d="M516.2,286.9c0.2,0.8,0.3,1.6,0.3,2.5"/>
	<rect x="506" y="289.3" class="st16" width="5.2" height="5.2"/>
	<path class="st17" d="M511.2,294.6c-0.8,0-1.7-0.2-2.4-0.6"/>
	<path class="st17" d="M506.6,291.7c-0.4-0.7-0.6-1.6-0.6-2.4"/>
	<rect x="490.3" y="294.6" class="st16" width="26.2" height="26.2"/>
	<path class="st17" d="M516.5,320.8c-0.8,0-1.7,0-2.5-0.1"/>
	<path class="st20" d="M508.9,319.7c-9.3-2.8-16.3-10.5-18.2-20"/>
	<path class="st17" d="M490.4,297.1c-0.1-0.8-0.1-1.7-0.1-2.5"/>
	<rect x="490.3" y="211" class="st16" width="67.9" height="67.9"/>
	<path class="st17" d="M490.3,211c0.8,0,1.7,0,2.5,0"/>
	<rect x="380.5" y="211" class="st16" width="109.8" height="109.8"/>
	<path class="st17" d="M380.5,320.8c0-0.8,0-1.7,0-2.5"/>
	<path class="st17" d="M487.8,211c0.8,0,1.7,0,2.5,0"/>
	<rect x="380.5" y="320.8" class="st16" width="177.6" height="177.6"/>
	<path class="st17" d="M380.5,323.3c0-0.8,0-1.7,0-2.5"/>
	<polygon class="st16" points="656.8,331 621.1,392.9 692.6,392.9 	"/>
	<text transform="matrix(1 0 0 1 709.65 370.61)" class="st10 st11 st15">a</text>
	<text transform="matrix(1 0 0 1 748.46 328.81)" class="st10 st11 st15">a</text>
	<text transform="matrix(1 0 0 1 804.72 328.81)" class="st10 st11 st15">b</text>
	<rect x="793.5" y="380.2" class="st16" width="11.2" height="11.2"/>
	<rect x="804.7" y="380.2" class="st16" width="6.9" height="6.9"/>
	<rect x="804.7" y="387.1" class="st16" width="3.4" height="4.3"/>
	<rect x="808.2" y="387.1" class="st16" width="3.4" height="4.3"/>
	<rect x="793.5" y="391.4" class="st16" width="18.1" height="18.1"/>
	<rect x="811.6" y="380.2" class="st16" width="29.3" height="29.3"/>
	<rect x="793.5" y="332.8" class="st16" width="47.4" height="47.4"/>
	<rect x="716.7" y="332.8" class="st16" width="76.7" height="76.7"/>
	<circle class="st21" cx="668.4" cy="518.9" r="42.4"/>
	<line class="st22" x1="650.2" y1="508.4" x2="685.8" y2="508.4"/>
	<line class="st21" x1="702.7" y1="489.2" x2="761.1" y2="489.2"/>
	<line class="st23" x1="686.7" y1="508.4" x2="709.7" y2="508.4"/>
	<polygon class="st21" points="668.4,477.6 632.7,539.5 704.2,539.5 	"/>
	<circle class="st21" cx="743.6" cy="478.9" r="42.4"/>
	<polygon class="st21" points="743.6,520.1 779.4,458.2 707.9,458.2 	"/>
</g>
</svg>
