<?xml version="1.0" encoding="utf-8"?>
<!-- Generator: Adobe Illustrator 26.0.3, SVG Export Plug-In . SVG Version: 6.00 Build 0)  -->
<svg version="1.1" id="Layer_1" xmlns="http://www.w3.org/2000/svg" xmlns:xlink="http://www.w3.org/1999/xlink" x="0px" y="0px"
	 viewBox="0 0 480 480" style="enable-background:new 0 0 480 480;" xml:space="preserve">
<style type="text/css">
	.st0{fill:#FFFFFF;}
	.st1{fill:#131211;}
	.st2{fill:#D4CFC1;}
	.st3{fill:#A9A396;}
	.st4{fill:#9AD7D6;}
	.st5{fill:none;}
	.st6{fill:#B8DFDB;}
</style>
<polygon class="st0" points="109.7,240.4 252,42.7 332,20.7 349.9,27 453.5,128.5 456.3,144.4 438.5,223.5 414.2,242.7 229.6,368.5 
	"/>
<g id="_x32_105gK.tif">
	<g>
		<g>
			<path class="st1" d="M96.1,356.6c-10.8-12.3-19.6-25.9-26.4-40.7c-5.8-12.6-9.8-25.8-10.2-39.8c-0.3-10.6,1.9-20.6,7.9-29.6
				c7.2-10.8,20-15.8,32.2-12.2c2.3,0.7,5.1,2.8,6.7,2.1c2-0.8,3.1-3.9,4.6-6.1c0,0,132.2-189.3,134.4-191.4
				c4.8-4.8,12.2-7,17.8-8.4c6.1-1.6,62.6-15,62.6-15c13.4-2.8,25.3,1,34.9,10.7c0,0,93.1,93.1,94.2,94.7c6.1,7.7,9.2,21.9,6.2,34.3
				c-4.8,19.5-9.4,39.1-14.1,58.6c-2.7,11.5-9,20.3-18.9,26.7c-7.1,4.6-172.8,120.3-185.2,128.6c-2.2,1.5-2.4,2.6-1.3,4.8
				c5.2,10.7,2.1,24.2-5.8,31.8c-7.4,7-16.1,10.6-26,11.8c-11.6,1.4-22.9-0.7-33.9-4.2c-20.7-6.7-38.7-18-55.2-32
				c-0.6-0.5-1.2-1.1-1.8-1.6L96.1,356.6z M427.3,135.9c-3.6,5.3-7.2,10.6-10.8,15.9c-4.2,6.4-8.4,12.7-12.7,19.1
				c-2.3,3.4-4.6,6.8-7.2,9.9c-1.9,2.2-4.8,2.4-7.1,1c-2.6-1.7-3.7-4.6-2.6-7.5c0.4-1.1,1.1-2.2,1.8-3.2
				c6.3-9.6,12.6-19.1,18.9-28.7c3.5-5.3,6.9-10.6,10.4-15.9c3-4.4,5.9-8.9,9-13.1c1.3-1.8,0.8-2.7-0.5-4c-6.1-5.9-12-12-18-18
				c-13.5-13.5-27-26.9-40.4-40.4c-1.6-1.6-2.6-2.1-4.7-0.6c-4.1,3.1-8.5,5.9-12.8,8.8c-7,4.7-13.9,9.4-20.9,14.1
				c-4.8,3.1-9.5,6.4-14.4,9.3c-3.9,2.3-8.1,0.7-9.2-3.3c-0.8-3,0.5-5.3,2.6-7.3c10.9-7.3,21.7-14.7,32.6-22
				c4.8-3.1,9.5-6.3,14.3-9.4c1-0.7,0.9-1.1,0.2-1.8c-7.8-8.9-17.3-13.9-29.4-11c-20.5,4.8-40.9,9.9-61.3,14.9
				c-6.1,1.5-11.4,4.5-15.2,9.8c-3.5,4.9-7.1,9.7-10.5,14.6c-9.4,13.4-18.7,26.9-28,40.4c-6,8.6-11.9,17.3-18,25.9
				c-0.9,1.2-1.1,2,0.1,3.1c4,3.9,8,7.8,12.1,11.7c4.4,4.5,8.9,8.9,13.3,13.4c1,1.1,1.9,2.3,3,3.3c34.2,34.2,68.4,68.4,102.6,102.6
				c1.4,1.4,2.6,2.8,3.9,4.2c0.2,0.4,0.4,0.7,0.6,1.1c1,3.2,0.3,5.6-1.9,7.3c-2.2,1.7-4.9,1.7-7.6-0.3c-1.3-1-2.5-2.1-3.7-3.3
				c-38.1-38-76.1-76.1-114.2-114.1c-1.2-1.2-2.4-2.2-3.6-3.3c-3.9-4-7.8-8-11.7-12.1c-1.1-1.2-1.8-1.1-2.8,0.3
				c-7.8,11.4-15.7,22.7-23.6,34c-10.3,14.8-20.6,29.6-30.9,44.4c-3.8,5.5-7.7,10.9-11.4,16.5c-0.8,1.1-2.4,2.3-0.4,4.1
				c4.1,3.8,7.9,8,11.9,11.9c2.6,2.7,5.3,5.2,7.8,7.8c1,1,1.6,1,2.5-0.2c5.7-6.9,11.5-13.6,17.2-20.5c7.1-8.5,14.2-17.1,21.3-25.6
				c4.9-5.9,9.8-11.8,14.7-17.7c3.5-4.2,7-8.4,10.8-12.4c2.1-2.2,5-2.2,7.4-0.5s3.3,4.5,2.1,7.2c-0.4,1-1,1.9-1.7,2.8
				c-6.5,7.8-13.1,15.5-19.6,23.3c-11.7,14-23.4,28-35,42c-2.7,3.3-5.3,6.6-8.1,9.9c-1.2,1.4-1.3,2.3,0.1,3.7
				c16.7,16.6,33.4,33.3,50,50c1.3,1.4,2.2,1.5,3.7,0.2c6.1-5.1,12.2-10.2,18.3-15.2c6.5-5.4,13-10.9,19.6-16.2
				c3.1-2.5,6.5-2.2,8.8,0.4c2.2,2.5,2,6.3-0.7,8.9c-1.4,1.3-3,2.4-4.5,3.6c-10.8,9.1-21.5,18.2-32.4,27.2c-1.8,1.5-1.8,2.2-0.3,3.7
				c6,5.9,11.8,11.8,17.8,17.7c2.9,2.9,2.9,2.9,6.3,0.5c19.6-13.7,39.2-27.4,58.8-41.1c21-14.6,42-29.1,63-43.6
				c21.5-14.9,42.9-29.8,64.3-44.7c6.7-4.6,11.1-10.7,12.9-18.7c1.9-8.5,4.1-17,6.1-25.5c2.3-9.7,4.5-19.4,6.8-29.1
				c0.4-1.3,0.8-2.6,1.1-3.9c3.4-12.4-0.7-22.4-10-30.7c-0.7-0.6-1.2-1.5-2.1,0C433.6,126.4,430.4,131.1,427.3,135.9z M89.4,325.8
				c0.4,0.5,0.8,1,1.1,1.5c0-0.5,0.1-1,0.1-1.5c0.2-0.9,1.2,3.7,0.7,3.5c0.2,0.3,0.4,0.7,0.6,1c6.2,8,11.9,16.4,18.6,23.9
				c11.5,13.1,25,24.1,39.9,33.2c12.9,7.9,26.5,14.2,41.5,16.7c7,1.2,14.1,1.9,21.1-0.5c4.5-0.4,8.2-2.7,11.7-5.3
				c5.5-4.1,7.5-9.6,6.4-16.2c-0.6-3.8-2.9-6.7-5.6-9.3c-40.5-40.5-81-81-121.5-121.4c-0.9-0.9-1.8-1.7-2.7-2.5
				c-6.3-5.1-16.4-4.2-21.5,1.9c-3.9,4.6-6.3,9.8-7.3,15.8c-1.2,7.4-0.6,14.7,1,22c1.9,8.3,4.3,16.3,8.6,23.7
				C84.7,316.8,87,321.3,89.4,325.8z"/>
			<path class="st2" d="M89.4,325.8c-2.4-4.5-4.7-9-7.1-13.4c1.9-4,3.3-8.4,5.7-12c3-5,3.2-10.8,16-10.8c7.7-0.5,14.8,2.3,19,6.5
				c28.6,28.8,57.3,57.4,86,86.1c5.4,5.4,7.7,11.5,4.6,18.9c-0.3,0.8-0.3,1.8-0.5,2.7c-7,2.4-14.1,1.7-21.1,0.5
				c-15-2.6-28.6-8.8-41.5-16.7c-14.9-9.2-28.4-20.1-39.9-33.2c-6.6-7.6-12.4-15.9-18.6-23.9c-0.4-0.5-0.4-0.7-0.6-1 M150.6,352.8
				c2.3,2.3,6.2,2.3,8.6,0c2.5-2.4,2.5-6.5,0.1-8.9c-2.3-2.3-6.2-2.3-8.6-0.1C148.2,346.3,148.2,350.4,150.6,352.8z M176.7,370.2
				c-2.3,2.3-2.3,6.2-0.1,8.6c2.3,2.5,6.5,2.5,8.9,0.1c2.3-2.3,2.4-6.2,0.1-8.6C183.3,367.9,179.1,367.8,176.7,370.2z M118.7,346.8
				c-2.4,2.2-2.6,6.1-0.4,8.6c2.2,2.6,6.3,2.8,8.8,0.4c2.4-2.2,2.6-6.1,0.4-8.6C125.4,344.7,121.2,344.5,118.7,346.8z M124.4,317.9
				c-2.3,2.3-2.3,6.2-0.1,8.6c2.3,2.5,6.5,2.5,8.9,0.1c2.3-2.3,2.3-6.2,0.1-8.6C131,315.6,126.8,315.5,124.4,317.9z M144.9,373
				c-2.4,2.2-2.6,6.1-0.4,8.6c2.2,2.6,6.3,2.8,8.8,0.4c2.4-2.2,2.6-6.1,0.4-8.6C151.5,370.9,147.4,370.7,144.9,373z"/>
			<path class="st3" d="M88.1,300.3c-2.4,3.6-3.9,8-5.7,12c-4.3-7.4-6.8-15.4-8.6-23.7c-1.6-7.3-2.2-14.6-1-22
				c0.9-6,3.4-11.2,7.3-15.8c5.2-6.1,15.3-7,21.5-1.9c1,0.8,2.7,2.5,2.7,2.5l121.5,121.4c2.7,2.7,4.9,5.6,5.6,9.3
				c1.1,6.6-0.9,12.1-6.4,16.2c-3.5,2.6-7.2,4.9-11.7,5.3c0.2-0.9,0.1-1.9,0.5-2.7c3-7.4,0.8-13.5-4.6-18.9l-86.6-85.7
				c-4.1-4.2-8.3-6.1-19-6.1C94.3,290.2,90.3,297,88.1,300.3z"/>
			<path class="st2" d="M227.4,124.2c-2.3,2.5-2.2,6.6,0.4,8.9c2.5,2.2,6.3,2,8.6-0.4c2.2-2.4,2.2-6.3-0.1-8.6
				C233.9,121.7,229.7,121.7,227.4,124.2z"/>
			<path class="st4" d="M129.3,258.4l-11.9-11.9c-2-1.8-0.4-3,0.4-4.1c3.7-5.6,7.6-11,11.4-16.5c10.3-14.8,20.6-29.6,30.9-44.4
				c7.9-11.3,15.8-22.6,23.6-34c1-1.4,1.6-1.5,2.8-0.3c3.9,4,7.8,8,11.7,12.1L129.3,258.4z"/>
			<path class="st1" d="M301.9,207.2c2.3,2.2,2.4,6.1,0.3,8.6c-2.2,2.5-6.4,2.7-8.9,0.3c-2.3-2.2-2.4-6.2-0.3-8.6
				C295.2,205,299.4,204.8,301.9,207.2z"/>
			<path class="st1" d="M345.7,242c2.5-2.3,6.6-2.1,8.9,0.4c2.1,2.4,1.9,6.4-0.4,8.6c-2.4,2.2-6.3,2.2-8.6-0.1
				C343.2,248.5,343.3,244.3,345.7,242z"/>
			<path class="st1" d="M328.2,181.1c2.2,2.3,2.2,6.3,0,8.6c-2.4,2.4-6.5,2.4-8.9,0c-2.2-2.3-2.2-6.3,0-8.6
				C321.7,178.7,325.9,178.7,328.2,181.1z"/>
			<path class="st1" d="M284.5,128.8c2.3-2.4,6.5-2.4,8.9,0c2.2,2.3,2.2,6.3,0,8.6s-6.2,2.5-8.6,0.3
				C282.3,135.4,282.1,131.2,284.5,128.8z"/>
			<path class="st1" d="M386.3,221.7c-2.4-2.4-2.3-6.6,0.2-8.9c2.4-2.2,6.3-2.1,8.6,0.2c2.4,2.4,2.3,6.6-0.2,8.9
				C392.5,224.1,388.5,224,386.3,221.7z"/>
			<path class="st1" d="M319.5,146.1c2.4-2.3,6.6-2.2,8.9,0.3c2.2,2.4,2,6.3-0.3,8.6c-2.3,2.2-6.3,2.3-8.6,0
				C317.1,152.6,317.1,148.4,319.5,146.1z"/>
			<path class="st1" d="M412.4,169.5c2.3-2.4,6.5-2.5,8.9-0.1c2.3,2.3,2.3,6.2,0.1,8.6c-2.2,2.3-6.1,2.5-8.6,0.4
				C410.3,176.1,410.1,171.9,412.4,169.5z"/>
			<path class="st1" d="M371.8,119.9c2.3,2.3,2.3,6.2,0.1,8.6c-2.3,2.5-6.5,2.5-8.9,0.1c-2.2-2.3-2.3-6.2-0.1-8.6
				C365.3,117.6,369.5,117.6,371.8,119.9z"/>
			<path class="st1" d="M336.9,102.5c-2.4-2.4-2.3-6.6,0.2-8.9c2.4-2.2,6.3-2.1,8.6,0.1c2.4,2.4,2.3,6.6-0.2,8.9
				C343.1,104.8,339.2,104.8,336.9,102.5z"/>
			<path class="st1" d="M275.9,172.3c2.4-2.3,6.6-2.2,8.9,0.3c2.1,2.4,2,6.3-0.3,8.6c-2.3,2.2-6.3,2.2-8.6,0
				C273.5,178.8,273.5,174.6,275.9,172.3z"/>
			<path class="st1" d="M105.9,301.6c3.5,0,4.6,1.4,5.1,2.2c1.8,2.3,1.8,5.4,0,7.6c-1.6,2.1-4.4,2.9-7,1.9c-2.7-1-4.2-3.4-3.9-6.5
				C100.2,306,102.3,301.6,105.9,301.6z"/>
			<path class="st1" d="M150.6,352.8c-2.4-2.4-2.4-6.5,0.1-8.9c2.4-2.2,6.3-2.2,8.6,0.1c2.4,2.4,2.4,6.5-0.1,8.9
				C156.8,355.1,153,355.1,150.6,352.8z"/>
			<path class="st1" d="M176.7,370.2c2.4-2.4,6.6-2.3,8.9,0.1c2.2,2.4,2.2,6.3-0.1,8.6c-2.4,2.4-6.5,2.4-8.9-0.1
				C174.4,376.4,174.5,372.5,176.7,370.2z"/>
			<path class="st1" d="M118.7,346.8c2.5-2.3,6.6-2.1,8.9,0.4c2.1,2.5,2,6.3-0.4,8.6c-2.5,2.3-6.6,2.2-8.8-0.4
				C116.2,353,116.4,349.1,118.7,346.8z"/>
			<path class="st1" d="M94.8,322.9c2.5-2.3,6.6-2.1,8.9,0.4c2.1,2.5,2,6.3-0.4,8.6c-2.5,2.3-6.6,2.2-8.8-0.4
				C92.3,329.1,92.5,325.2,94.8,322.9z"/>
			<path class="st1" d="M124.4,317.9c2.4-2.4,6.5-2.4,8.9,0.1c2.2,2.4,2.2,6.3-0.1,8.6c-2.4,2.4-6.5,2.4-8.9-0.1
				C122.1,324.1,122.1,320.2,124.4,317.9z"/>
			<path class="st1" d="M144.9,373c2.5-2.3,6.6-2.1,8.9,0.4c2.1,2.5,2,6.3-0.4,8.6c-2.5,2.3-6.6,2.1-8.8-0.4
				C142.3,379.1,142.5,375.2,144.9,373z"/>
			<path class="st0" d="M84.67,372.28c-2.42-2.42-2.42-6.58,0.13-8.99c2.42-2.21,6.38-2.21,8.66,0.07c2.42,2.42,2.42,6.58-0.13,8.99
				C90.91,374.63,86.95,374.63,84.67,372.28z"/>
			<path class="st0" d="M63.26,365.23c2.55-2.28,6.64-2.08,8.99,0.4c2.08,2.55,2.01,6.31-0.4,8.66c-2.48,2.28-6.64,2.21-8.86-0.4
				C60.78,371.41,60.98,367.45,63.26,365.23z"/>
			<path class="st0" d="M67.09,345.9c2.42-2.42,6.58-2.42,8.99,0.13c2.21,2.42,2.21,6.31-0.13,8.66c-2.42,2.42-6.58,2.42-8.99-0.13
				C64.74,352.14,64.74,348.25,67.09,345.9z"/>
			<path class="st5" d="M80.85,382.88c2.55-2.28,6.64-2.15,8.93,0.4c2.15,2.55,2.01,6.38-0.4,8.66c-2.55,2.28-6.64,2.15-8.86-0.4
				C78.23,388.99,78.43,385.1,80.85,382.88z"/>
			<path class="st0" d="M102.39,389.86c-2.42-2.42-2.42-6.58,0.13-8.99c2.42-2.21,6.38-2.21,8.66,0.13
				c2.42,2.42,2.42,6.58-0.13,8.93C108.63,392.21,104.67,392.08,102.39,389.86z"/>
			<path class="st0" d="M98.5,400.4c2.55-2.28,6.64-2.08,8.93,0.4c2.15,2.55,2.01,6.31-0.4,8.66c-2.55,2.28-6.64,2.08-8.86-0.4
				C96.01,406.57,96.22,402.68,98.5,400.4z"/>
			<path class="st0" d="M120.04,407.38c-2.42-2.42-2.42-6.58,0.13-8.99c2.42-2.21,6.38-2.21,8.66,0.13
				c2.42,2.42,2.42,6.58-0.13,8.93C126.28,409.73,122.32,409.73,120.04,407.38z"/>
			<path class="st0" d="M116.15,417.92c2.55-2.28,6.64-2.15,8.93,0.4c2.15,2.55,2.01,6.38-0.4,8.66c-2.55,2.28-6.64,2.15-8.86-0.4
				C113.67,424.09,113.87,420.2,116.15,417.92z"/>
			<path class="st0" d="M60.04,384.76c2.55-2.28,6.64-2.08,8.99,0.4c2.08,2.55,2.01,6.31-0.4,8.66c-2.55,2.28-6.64,2.21-8.86-0.4
				C57.56,390.94,57.76,386.98,60.04,384.76z"/>
			<path class="st0" d="M77.62,402.41c2.55-2.28,6.64-2.08,8.93,0.4c2.15,2.55,2.01,6.31-0.4,8.66c-2.55,2.28-6.64,2.08-8.86-0.4
				C75.01,408.52,75.21,404.56,77.62,402.41z"/>
			<path class="st5" d="M95.28,419.93c2.55-2.28,6.64-2.15,8.93,0.4c2.15,2.55,2.01,6.38-0.4,8.66c-2.55,2.28-6.64,2.15-8.86-0.4
				C92.79,426.1,92.99,422.08,95.28,419.93z"/>
			<path class="st0" d="M39.17,386.71c2.55-2.28,6.64-2.08,8.99,0.4c2.08,2.55,2.01,6.31-0.4,8.66c-2.55,2.28-6.64,2.21-8.86-0.4
				C36.55,392.95,36.75,388.92,39.17,386.71z"/>
			<path class="st5" d="M42.99,367.38c2.42-2.42,6.51-2.42,8.99,0.13c2.21,2.42,2.21,6.31-0.07,8.66c-2.42,2.42-6.51,2.42-8.99-0.13
				C40.58,373.62,40.64,369.73,42.99,367.38z"/>
			<path class="st5" d="M56.75,404.36c2.55-2.28,6.64-2.15,8.99,0.4c2.08,2.55,2.01,6.38-0.4,8.66c-2.55,2.28-6.64,2.15-8.86-0.4
				C54.13,410.47,54.34,406.57,56.75,404.36z"/>
			<path class="st0" d="M74.4,421.94c2.55-2.28,6.64-2.15,8.93,0.4c2.15,2.55,2.01,6.38-0.4,8.66c-2.55,2.28-6.64,2.15-8.86-0.4
				C71.79,428.05,71.99,424.09,74.4,421.94z"/>
			<path class="st0" d="M92.05,439.39c2.55-2.28,6.64-2.15,8.93,0.4c2.15,2.55,2.01,6.38-0.4,8.66c-2.55,2.28-6.64,2.15-8.86-0.4
				C89.5,445.5,89.77,441.68,92.05,439.39z"/>
			<path class="st5" d="M18.29,388.72c2.55-2.28,6.64-2.08,8.99,0.4c2.08,2.55,2.01,6.31-0.4,8.66c-2.55,2.28-6.64,2.21-8.86-0.4
				C15.68,394.9,15.88,390.94,18.29,388.72z"/>
			<path class="st0" d="M35.81,406.24c2.55-2.28,6.64-2.08,8.99,0.4c2.08,2.55,2.01,6.31-0.4,8.66c-2.55,2.28-6.64,2.08-8.86-0.4
				S33.53,408.52,35.81,406.24z"/>
			<path class="st0" d="M53.53,423.89c2.55-2.28,6.64-2.08,8.99,0.4c2.08,2.55,2.01,6.31-0.4,8.66c-2.55,2.28-6.64,2.08-8.86-0.4
				C50.91,430,51.11,426.04,53.53,423.89z"/>
			<path class="st5" d="M14.94,408.25c2.48-2.28,6.64-2.08,8.99,0.4c2.08,2.55,2.01,6.31-0.4,8.66c-2.55,2.28-6.64,2.08-8.86-0.4
				S12.66,410.53,14.94,408.25z"/>
			<path class="st0" d="M32.59,425.84c2.55-2.28,6.64-2.15,8.99,0.4c2.08,2.55,2.01,6.38-0.4,8.66c-2.55,2.28-6.64,2.15-8.86-0.4
				C30.11,431.94,30.31,428.05,32.59,425.84z"/>
			<path class="st0" d="M50.31,443.42c2.55-2.28,6.64-2.15,8.99,0.4c2.08,2.55,2.01,6.38-0.4,8.66c-2.55,2.28-6.64,2.15-8.86-0.4
				C47.69,449.53,47.89,445.57,50.31,443.42z"/>
			<path class="st0" d="M11.72,427.72c2.55-2.28,6.64-2.08,8.99,0.4c2.08,2.55,2.01,6.31-0.4,8.66c-2.55,2.28-6.64,2.08-8.86-0.4
				C9.23,434.02,9.43,430.06,11.72,427.72z"/>
			<path class="st5" d="M29.37,445.37c2.48-2.28,6.64-2.08,8.99,0.4c2.08,2.55,2.01,6.31-0.4,8.66c-2.55,2.28-6.64,2.08-8.86-0.4
				C26.88,451.47,27.09,447.51,29.37,445.37z"/>
			<path class="st5" d="M8.49,447.31c2.55-2.28,6.64-2.15,8.93,0.4c2.08,2.55,2.01,6.38-0.4,8.66c-2.55,2.28-6.64,2.15-8.86-0.4
				C6.01,453.56,6.21,449.6,8.49,447.31z"/>
			<path class="st0" d="M133.4,435.64c2.55-2.28,6.64-2.08,8.93,0.4c2.15,2.55,2.01,6.31-0.4,8.66c-2.55,2.28-6.64,2.08-8.86-0.4
				C130.91,441.74,131.12,437.78,133.4,435.64z"/>
			<path class="st0" d="M112.52,437.51c2.55-2.28,6.64-2.15,8.93,0.4c2.15,2.55,2.01,6.38-0.4,8.66c-2.55,2.28-6.64,2.15-8.86-0.4
				C109.91,443.69,110.11,439.8,112.52,437.51z"/>
			<path class="st0" d="M130.18,455.17c2.55-2.28,6.64-2.08,8.93,0.4c2.15,2.55,2.01,6.38-0.4,8.66c-2.55,2.35-6.64,2.08-8.86-0.4
				C127.69,461.27,127.89,457.38,130.18,455.17z"/>
			<path class="st0" d="M109.3,457.11c2.55-2.28,6.64-2.08,8.93,0.4c2.15,2.55,2.01,6.31-0.4,8.66c-2.55,2.28-6.64,2.08-8.86-0.4
				C106.69,463.22,106.89,459.26,109.3,457.11z"/>
			<path class="st0" d="M67.49,461.01c2.48-2.28,6.64-2.08,8.93,0.4c2.15,2.55,2.01,6.38-0.4,8.66c-2.55,2.28-6.64,2.08-8.86-0.4
				C65.01,467.18,65.21,463.29,67.49,461.01z"/>
			<path class="st0" d="M46.62,463.02c2.55-2.28,6.64-2.08,8.99,0.4c2.08,2.55,2.01,6.38-0.4,8.66c-2.55,2.28-6.64,2.08-8.86-0.4
				C44.13,469.13,44.33,465.17,46.62,463.02z"/>
			<path class="st5" d="M25.74,464.9c2.55-2.35,6.64-2.08,8.99,0.4c2.08,2.55,2.01,6.31-0.4,8.66c-2.55,2.35-6.64,2.08-8.86-0.4
				C23.13,471.07,23.33,467.11,25.74,464.9z"/>
			<path class="st0" d="M4.87,466.91c2.55-2.35,6.64-2.08,8.99,0.4c2.08,2.55,2.01,6.31-0.4,8.66c-2.55,2.35-6.64,2.08-8.86-0.4
				C2.25,473.02,2.45,469.06,4.87,466.91z"/>
			<path class="st1" d="M252.3,82.1c0.6-0.7,1.2-1.5,2-2.1c2.3-1.8,5.5-1.7,7.6,0c2.2,1.7,2.9,4.8,1.7,7.4c-1.1,2.6-4,4-6.8,3.4
				S252.1,88,252,85C252,84,252.2,83.1,252.3,82.1L252.3,82.1z"/>
			<path class="st1" d="M304.1,52.2c0.5,0.6,1.2,1.2,1.6,1.8c1.5,2.4,1.3,5.2-0.3,7.2c-1.5,1.9-4.1,2.8-6.6,2.1
				c-2.6-0.7-4.2-2.8-4.4-5.7c0-0.8,0.1-1.6,0.2-2.4C297.6,51.1,299,50.6,304.1,52.2z"/>
			<path class="st1" d="M227.4,124.2c2.3-2.5,6.5-2.5,8.9-0.1c2.3,2.3,2.3,6.2,0.1,8.6s-6.1,2.6-8.6,0.4
				C225.3,130.8,225.1,126.7,227.4,124.2z"/>
			<path class="st1" d="M363.2,84.9c2.5-2.4,6.6-2.2,8.9,0.3c2.2,2.4,2,6.3-0.3,8.6c-2.5,2.4-6.6,2.2-8.9-0.3
				C360.7,91.1,360.9,87.2,363.2,84.9z"/>
			<path class="st6" d="M430.3,139.9c-0.2-0.6-0.4-1.1-0.7-1.7C429.9,138.8,430.1,139.4,430.3,139.9z"/>
		</g>
	</g>
</g>
</svg>
