<?xml version="1.0" encoding="utf-8"?>
<!-- Generator: Adobe Illustrator 26.0.2, SVG Export Plug-In . SVG Version: 6.00 Build 0)  -->
<svg version="1.1" id="Layer_1" xmlns="http://www.w3.org/2000/svg" xmlns:xlink="http://www.w3.org/1999/xlink" x="0px" y="0px"
	 viewBox="0 0 1641.1 1641.1" style="enable-background:new 0 0 1641.1 1641.1;" xml:space="preserve">
<style type="text/css">
	.st0{fill:#000000;}
	.st1{fill:#F30000;}
	.st2{fill:#FFFFFF;}
</style>
<g id="Face_Increments">
	<rect x="792" class="st0" width="58.1" height="201.9"/>
	<rect x="432.1" y="96.1" transform="matrix(0.866 -0.5 0.5 0.866 -36.7577 256.9617)" class="st0" width="58.1" height="201.9"/>
	<rect x="168.5" y="359.3" transform="matrix(0.5 -0.866 0.866 0.5 -299.8247 401.2227)" class="st0" width="58.1" height="201.9"/>
	<rect y="791" class="st0" width="202" height="58.1"/>
	<rect x="96.2" y="1150.8" transform="matrix(0.866 -0.5 0.5 0.866 -563.5085 256.6376)" class="st0" width="201.9" height="58.1"/>
	
		<rect x="359.3" y="1414.5" transform="matrix(0.5 -0.866 0.866 0.5 -1019.9875 1120.3348)" class="st0" width="201.9" height="58.1"/>
	<rect x="791" y="1439.1" class="st0" width="58.1" height="201.9"/>
	<rect x="1150.8" y="1343" transform="matrix(0.866 -0.5 0.5 0.866 -563.904 783.386)" class="st0" width="58.1" height="201.9"/>
	
		<rect x="1414.4" y="1079.8" transform="matrix(0.5 -0.866 0.866 0.5 -300.8837 1840.4042)" class="st0" width="58.1" height="201.9"/>
	<rect x="1439.1" y="792" class="st0" width="202" height="58.1"/>
	<rect x="1343" y="432.2" transform="matrix(0.866 -0.5 0.5 0.866 -37.1575 783.7839)" class="st0" width="201.9" height="58.1"/>
	<rect x="1079.8" y="168.6" transform="matrix(0.5 -0.866 0.866 0.5 419.194 1121.3937)" class="st0" width="201.9" height="58.1"/>
	
		<rect x="727.3" y="13" transform="matrix(0.9945 -0.1045 0.1045 0.9945 -0.2315 77.4127)" class="st0" width="22.7" height="55.8"/>
	
		<rect x="646.2" y="25.8" transform="matrix(0.9781 -0.2079 0.2079 0.9781 3.2018 137.8756)" class="st0" width="22.7" height="55.8"/>
	<rect x="567" y="47.1" transform="matrix(0.9511 -0.309 0.309 0.9511 5.1287 182.3808)" class="st0" width="22.7" height="55.8"/>
	
		<rect x="490.3" y="76.5" transform="matrix(0.9136 -0.4067 0.4067 0.9136 0.8909 213.0512)" class="st0" width="22.7" height="55.8"/>
	
		<rect x="348.4" y="158.4" transform="matrix(0.809 -0.5878 0.5878 0.809 -40.8082 247.0313)" class="st0" width="22.7" height="55.8"/>
	
		<rect x="284.7" y="210.1" transform="matrix(0.7431 -0.6691 0.6691 0.7431 -83.1898 259.2065)" class="st0" width="22.7" height="55.8"/>
	
		<rect x="226.6" y="268.1" transform="matrix(0.6691 -0.7431 0.7431 0.6691 -141.2614 274.7666)" class="st0" width="22.7" height="55.8"/>
	
		<rect x="174.9" y="331.8" transform="matrix(0.5878 -0.809 0.809 0.5878 -214.2408 298.9959)" class="st0" width="22.7" height="55.8"/>
	
		<rect x="93.1" y="473.7" transform="matrix(0.4067 -0.9136 0.9136 0.4067 -396.3232 392.9937)" class="st0" width="22.7" height="55.8"/>
	
		<rect x="63.7" y="550.3" transform="matrix(0.309 -0.9511 0.9511 0.309 -498.0772 470.9309)" class="st0" width="22.7" height="55.8"/>
	
		<rect x="42.3" y="629.6" transform="matrix(0.2079 -0.9781 0.9781 0.2079 -600.669 573.3332)" class="st0" width="22.7" height="55.8"/>
	
		<rect x="29.6" y="710.6" transform="matrix(0.1045 -0.9945 0.9945 0.1045 -697.8542 702.0577)" class="st0" width="22.7" height="55.8"/>
	
		<rect x="13" y="891.1" transform="matrix(0.9945 -0.1045 0.1045 0.9945 -94.0828 9.2123)" class="st0" width="55.8" height="22.7"/>
	
		<rect x="25.9" y="972.1" transform="matrix(0.9781 -0.2079 0.2079 0.9781 -203.3036 32.6753)" class="st0" width="55.8" height="22.7"/>
	
		<rect x="47.1" y="1051.4" transform="matrix(0.9511 -0.309 0.309 0.9511 -324.7238 75.1743)" class="st0" width="55.8" height="22.7"/>
	
		<rect x="76.4" y="1128" transform="matrix(0.9136 -0.4067 0.4067 0.9136 -454.3617 140.9314)" class="st0" width="55.8" height="22.7"/>
	
		<rect x="158.5" y="1270" transform="matrix(0.809 -0.5878 0.5878 0.809 -717.5825 354.2691)" class="st0" width="55.8" height="22.7"/>
	
		<rect x="210" y="1333.6" transform="matrix(0.7431 -0.6691 0.6691 0.7431 -838.8661 504.6823)" class="st0" width="55.8" height="22.7"/>
	
		<rect x="268" y="1391.7" transform="matrix(0.6691 -0.7431 0.7431 0.6691 -944.7473 684.1077)" class="st0" width="55.8" height="22.7"/>
	
		<rect x="331.8" y="1443.5" transform="matrix(0.5878 -0.809 0.809 0.5878 -1028.6785 890.69)" class="st0" width="55.8" height="22.7"/>
	
		<rect x="480.6" y="1529.3" transform="matrix(0.4108 -0.9117 0.9117 0.4108 -1105.0012 1371.2423)" class="st0" width="55.7" height="22.6"/>
	
		<rect x="550.4" y="1554.7" transform="matrix(0.309 -0.9511 0.9511 0.309 -1089.7455 1632.1636)" class="st0" width="55.8" height="22.7"/>
	
		<rect x="629.6" y="1576" transform="matrix(0.2079 -0.9781 0.9781 0.2079 -1031.8907 1900.4917)" class="st0" width="55.8" height="22.7"/>
	
		<rect x="710.6" y="1588.7" transform="matrix(0.1045 -0.9945 0.9945 0.1045 -929.9764 2167.3813)" class="st0" width="55.8" height="22.7"/>
	
		<rect x="891" y="1572.2" transform="matrix(0.9945 -0.1045 0.1045 0.9945 -162.273 103.0621)" class="st0" width="22.7" height="55.8"/>
	
		<rect x="972.1" y="1559.3" transform="matrix(0.9781 -0.2079 0.2079 0.9781 -308.5097 239.1605)" class="st0" width="22.7" height="55.8"/>
	
		<rect x="1051.4" y="1538.3" transform="matrix(0.9511 -0.309 0.309 0.9511 -431.9287 405.0269)" class="st0" width="22.7" height="55.8"/>
	
		<rect x="1127.9" y="1508.7" transform="matrix(0.9136 -0.4067 0.4067 0.9136 -526.4827 596.1812)" class="st0" width="22.7" height="55.8"/>
	
		<rect x="1270" y="1426.7" transform="matrix(0.809 -0.5878 0.5878 0.809 -610.3103 1030.9961)" class="st0" width="22.7" height="55.8"/>
	
		<rect x="1333.6" y="1375.2" transform="matrix(0.7431 -0.6691 0.6691 0.7431 -593.39 1260.3574)" class="st0" width="22.7" height="55.8"/>
	
		<rect x="1391.6" y="1317.2" transform="matrix(0.6691 -0.7431 0.7431 0.6691 -535.4319 1487.6693)" class="st0" width="22.7" height="55.8"/>
	
		<rect x="1438.9" y="1251.9" transform="matrix(0.5888 -0.8083 0.8083 0.5888 -438.1852 1698.5828)" class="st0" width="22.7" height="56"/>
	
		<rect x="1525.2" y="1111.5" transform="matrix(0.4067 -0.9136 0.9136 0.4067 -129.3169 2079.7322)" class="st0" width="22.7" height="55.8"/>
	
		<rect x="1554.8" y="1034.8" transform="matrix(0.309 -0.9511 0.9511 0.309 71.4808 2223.8228)" class="st0" width="22.7" height="55.8"/>
	
		<rect x="1575.9" y="955.6" transform="matrix(0.2079 -0.9781 0.9781 0.2079 295.1884 2331.5898)" class="st0" width="22.7" height="55.8"/>
	
		<rect x="1588.8" y="874.6" transform="matrix(0.1045 -0.9945 0.9945 0.1045 535.3577 2399.5125)" class="st0" width="22.7" height="55.8"/>
	
		<rect x="1572.1" y="727.2" transform="matrix(0.9945 -0.1045 0.1045 0.9945 -68.4231 171.2524)" class="st0" width="55.8" height="22.7"/>
	
		<rect x="1559.3" y="646.2" transform="matrix(0.9781 -0.2079 0.2079 0.9781 -102.0252 344.3669)" class="st0" width="55.8" height="22.7"/>
	
		<rect x="1538.3" y="567" transform="matrix(0.9511 -0.309 0.309 0.9511 -102.0768 512.2337)" class="st0" width="55.8" height="22.7"/>
	
		<rect x="1508.7" y="490.4" transform="matrix(0.9136 -0.4067 0.4067 0.9136 -71.241 668.3607)" class="st0" width="55.8" height="22.7"/>
	
		<rect x="1426.8" y="348.4" transform="matrix(0.809 -0.5878 0.5878 0.809 66.3791 923.7717)" class="st0" width="55.8" height="22.7"/>
	
		<rect x="1375.2" y="284.7" transform="matrix(0.7431 -0.6691 0.6691 0.7431 162.2848 1014.8825)" class="st0" width="55.8" height="22.7"/>
	
		<rect x="1317.1" y="226.6" transform="matrix(0.6691 -0.7431 0.7431 0.6691 268.1555 1078.2782)" class="st0" width="55.8" height="22.7"/>
	
		<rect x="1253.4" y="175" transform="matrix(0.5878 -0.809 0.809 0.5878 377.3798 1113.4205)" class="st0" width="55.8" height="22.7"/>
	
		<rect x="1111.5" y="93.1" transform="matrix(0.4067 -0.9136 0.9136 0.4067 580.5489 1102.8583)" class="st0" width="55.8" height="22.7"/>
	
		<rect x="1034.9" y="63.6" transform="matrix(0.309 -0.9511 0.9511 0.309 663.1312 1062.5952)" class="st0" width="55.8" height="22.7"/>
	
		<rect x="955.6" y="42.5" transform="matrix(0.2079 -0.9781 0.9781 0.2079 726.3655 1004.6343)" class="st0" width="55.8" height="22.7"/>
	
		<rect x="874.6" y="29.6" transform="matrix(0.1045 -0.9945 0.9945 0.1045 767.4569 934.1835)" class="st0" width="55.8" height="22.7"/>
</g>
<rect x="591.5" y="523.7" class="st1" width="139.1" height="54.6"/>
<polygon class="st2" points="704.5,530.3 692.9,530.3 707.7,545.8 686.3,545.8 686.3,530.3 686.3,530.3 675.2,530.3 675.1,530.3 
	675.1,545.8 653.7,545.8 668.5,530.3 657,530.3 636.8,550.5 657.8,571.5 670,571.5 653.7,555.2 674.7,555.2 674.7,571.5 
	675.1,571.5 686.3,571.5 686.7,571.5 686.7,555.2 707.8,555.2 691.4,571.5 703.6,571.5 724.7,550.5 "/>
<g>
	<path d="M790.4,539.5l-4.7,2.8c-0.9-1.5-1.7-2.5-2.5-3c-0.8-0.5-1.9-0.8-3.2-0.8c-1.6,0-3,0.5-4,1.4c-1.1,0.9-1.6,2-1.6,3.4
		c0,1.9,1.4,3.4,4.2,4.5l3.8,1.6c3.1,1.3,5.4,2.8,6.9,4.6s2.2,4.1,2.2,6.7c0,3.5-1.2,6.5-3.5,8.8c-2.4,2.3-5.3,3.5-8.9,3.5
		c-3.3,0-6.1-1-8.3-3c-2.1-2-3.5-4.8-4-8.4l5.9-1.3c0.3,2.3,0.7,3.8,1.4,4.7c1.2,1.7,2.9,2.5,5.2,2.5c1.8,0,3.3-0.6,4.5-1.8
		c1.2-1.2,1.8-2.8,1.8-4.6c0-0.8-0.1-1.4-0.3-2.1c-0.2-0.6-0.5-1.2-1-1.7c-0.4-0.5-1-1-1.7-1.5c-0.7-0.5-1.5-0.9-2.5-1.3l-3.7-1.5
		c-5.3-2.2-7.9-5.5-7.9-9.8c0-2.9,1.1-5.3,3.3-7.3c2.2-2,5-2.9,8.3-2.9C784.4,533,787.9,535.2,790.4,539.5z"/>
	<path d="M799.4,572.4v-38.6h5.8c2.6,0,4.6,0.2,6.2,0.6c1.5,0.4,2.9,1.1,3.9,2c1.1,1,1.9,2.2,2.6,3.7c0.6,1.5,1,3,1,4.5
		c0,2.8-1.1,5.1-3.2,7c2,0.7,3.7,1.9,4.8,3.7c1.2,1.7,1.8,3.7,1.8,6c0,3-1.1,5.6-3.2,7.6c-1.3,1.3-2.7,2.2-4.3,2.7
		c-1.7,0.5-3.9,0.7-6.6,0.7H799.4z M805.2,550.3h1.8c2.2,0,3.8-0.5,4.8-1.4c1-1,1.5-2.4,1.5-4.2c0-1.8-0.5-3.2-1.5-4.1
		c-1-0.9-2.5-1.4-4.5-1.4h-2V550.3z M805.2,566.9h3.6c2.6,0,4.6-0.5,5.8-1.5c1.3-1.1,1.9-2.5,1.9-4.2c0-1.7-0.6-3.1-1.9-4.2
		c-1.2-1.1-3.4-1.7-6.5-1.7h-2.9V566.9z"/>
	<path d="M830.7,572.4v-38.6h5.8c2.6,0,4.6,0.2,6.2,0.6c1.5,0.4,2.9,1.1,3.9,2c1.1,1,1.9,2.2,2.6,3.7c0.6,1.5,1,3,1,4.5
		c0,2.8-1.1,5.1-3.2,7c2,0.7,3.7,1.9,4.8,3.7c1.2,1.7,1.8,3.7,1.8,6c0,3-1.1,5.6-3.2,7.6c-1.3,1.3-2.7,2.2-4.3,2.7
		c-1.7,0.5-3.9,0.7-6.6,0.7H830.7z M836.5,550.3h1.8c2.2,0,3.8-0.5,4.8-1.4c1-1,1.5-2.4,1.5-4.2c0-1.8-0.5-3.2-1.5-4.1
		c-1-0.9-2.5-1.4-4.5-1.4h-2V550.3z M836.5,566.9h3.6c2.6,0,4.6-0.5,5.8-1.5c1.3-1.1,1.9-2.5,1.9-4.2c0-1.7-0.6-3.1-1.9-4.2
		c-1.2-1.1-3.4-1.7-6.5-1.7h-2.9V566.9z"/>
	<path d="M907.3,535.9v6.9c-3.4-2.8-6.8-4.2-10.4-4.2c-4,0-7.3,1.4-10,4.3c-2.7,2.8-4.1,6.3-4.1,10.4c0,4,1.4,7.5,4.1,10.2
		c2.7,2.8,6.1,4.2,10,4.2c2,0,3.8-0.3,5.2-1c0.8-0.3,1.6-0.8,2.5-1.3c0.9-0.6,1.8-1.2,2.7-2v7c-3.3,1.9-6.8,2.8-10.5,2.8
		c-5.5,0-10.2-1.9-14.1-5.8c-3.9-3.9-5.8-8.6-5.8-14c0-4.9,1.6-9.3,4.9-13.1c4-4.7,9.2-7.1,15.5-7.1
		C900.7,533,904.1,534,907.3,535.9z"/>
	<path d="M934.9,539.3h-13.4v9.3h13v5.5h-13v18.4h-5.8v-38.6h19.3V539.3z"/>
	<path d="M962,539.3h-13.4v9.3h13v5.5h-13v18.4h-5.8v-38.6H962V539.3z"/>
	<path d="M1005.8,539.3h-13.4v9.3h13v5.5h-13v18.4h-5.8v-38.6h19.3V539.3z"/>
	<path d="M1032.9,539.3h-13.4v9.3h13v5.5h-13v18.4h-5.8v-38.6h19.3V539.3z"/>
	<path d="M1062.4,539.5l-4.7,2.8c-0.9-1.5-1.7-2.5-2.5-3c-0.8-0.5-1.9-0.8-3.2-0.8c-1.6,0-3,0.5-4,1.4c-1.1,0.9-1.6,2-1.6,3.4
		c0,1.9,1.4,3.4,4.2,4.5l3.8,1.6c3.1,1.3,5.4,2.8,6.9,4.6s2.2,4.1,2.2,6.7c0,3.5-1.2,6.5-3.5,8.8c-2.4,2.3-5.3,3.5-8.9,3.5
		c-3.3,0-6.1-1-8.3-3c-2.1-2-3.5-4.8-4-8.4l5.9-1.3c0.3,2.3,0.7,3.8,1.4,4.7c1.2,1.7,2.9,2.5,5.2,2.5c1.8,0,3.3-0.6,4.5-1.8
		s1.8-2.8,1.8-4.6c0-0.8-0.1-1.4-0.3-2.1c-0.2-0.6-0.5-1.2-1-1.7s-1-1-1.7-1.5c-0.7-0.5-1.5-0.9-2.5-1.3l-3.7-1.5
		c-5.3-2.2-7.9-5.5-7.9-9.8c0-2.9,1.1-5.3,3.3-7.3c2.2-2,5-2.9,8.3-2.9C1056.5,533,1059.9,535.2,1062.4,539.5z"/>
</g>
<g>
	<path d="M562.5,488.1l13.5-69l22,49.9l22.8-49.9l12.1,69h-9.9l-6.2-38.8l-19,41.7l-18.5-41.8l-6.9,38.8H562.5z"/>
	<path d="M651.9,455.7c0-9,3.3-16.8,9.9-23.3c6.6-6.5,14.5-9.7,23.8-9.7c9.1,0,17,3.3,23.5,9.8c6.6,6.5,9.9,14.4,9.9,23.6
		c0,9.2-3.3,17.1-9.9,23.5c-6.6,6.5-14.6,9.7-24,9.7c-8.3,0-15.7-2.9-22.3-8.6C655.6,474.3,651.9,465.9,651.9,455.7z M661.7,455.8
		c0,7.1,2.4,12.9,7.2,17.5c4.7,4.6,10.2,6.9,16.4,6.9c6.7,0,12.4-2.3,17-7c4.6-4.7,6.9-10.5,6.9-17.2c0-6.8-2.3-12.6-6.9-17.2
		c-4.5-4.7-10.2-7-16.9-7c-6.7,0-12.3,2.3-16.9,7C664,443.3,661.7,449,661.7,455.8z"/>
	<path d="M739.8,488.1v-68.6l46.8,49v-44.6h9.7V492l-46.8-48.9v45H739.8z"/>
	<path d="M820.2,488.1v-64.2h13.5c6.5,0,11.6,0.6,15.3,1.9c4,1.2,7.7,3.4,10.9,6.4c6.6,6,9.9,14,9.9,23.8c0,9.9-3.5,17.9-10.4,24
		c-3.5,3.1-7.1,5.2-10.9,6.4c-3.5,1.2-8.6,1.8-15.1,1.8H820.2z M829.9,478.9h4.4c4.4,0,8-0.5,10.9-1.4c2.9-1,5.5-2.5,7.8-4.6
		c4.8-4.4,7.2-10,7.2-17c0-7-2.4-12.8-7.1-17.1c-4.2-3.9-10.5-5.9-18.8-5.9h-4.4V478.9z"/>
	<path d="M925.1,472.5h-27.5l-7.2,15.6H880l31.8-68.2l30.6,68.2h-10.6L925.1,472.5z M921.1,463.4l-9.5-21.8l-10,21.8H921.1z"/>
	<path d="M968.7,423.8v64.2H959v-64.2H968.7z"/>
	<path d="M992.6,488.1v-68.6l46.8,49v-44.6h9.7V492l-46.8-48.9v45H992.6z"/>
	<path d="M1108.5,433h-25.7v15.4h25v9.1h-25v21.5h25.7v9.1H1073v-64.2h35.4V433z"/>
</g>
</svg>
