<?xml version="1.0" encoding="utf-8"?>
<!-- Generator: Adobe Illustrator 27.0.1, SVG Export Plug-In . SVG Version: 6.00 Build 0)  -->
<svg version="1.1" id="Layer_1" xmlns="http://www.w3.org/2000/svg" xmlns:xlink="http://www.w3.org/1999/xlink" x="0px" y="0px"
	 viewBox="0 0 384 384" style="enable-background:new 0 0 384 384;" xml:space="preserve">
<style type="text/css">
	.backRedCircle{fill:#F85D48;}
	.clockFace{fill:#E3EDF8;}
	.someHand{fill:#E64A5E;}
	.minuteHand{fill:#00ff00;}
	.hourHand{fill:#FF0000;}
	.secondHand{fill:#0000FF;}
	.tickMarks{fill:#00AADF;}
	.yellowCenter{fill:#FEDB65;}
</style>
<circle class="backRedCircle" cx="192" cy="192" r="182"/>
<circle class="clockFace" cx="192" cy="192" r="158"/>
<path class="tickMarks" d="M197.4,70c0,0.2,0,0.5,0,0.7c-0.3,3.9-2.5,6.2-6,6.1c-3.3-0.1-5.6-2.3-5.7-6c-0.1-5.7-0.1-11.4,0-17
	c0.1-3.9,2.5-6.2,6-6.1c3.3,0.1,5.5,2.4,5.7,6c0.1,2.8,0,5.7,0,8.5C197.4,64.8,197.4,67.4,197.4,70z"/>
<path class="tickMarks" d="M312.7,197.8c-3.7-0.2-6-2.4-6-5.7c-0.1-3.5,2.2-5.9,6.1-5.9c5.7-0.1,11.4-0.1,17,0c3.7,0.1,6,2.4,6,5.6
	c0.1,3.5-2.3,5.8-6.1,6c-2.8,0.1-5.7,0-8.5,0S315.6,197.9,312.7,197.8z"/>
<path class="tickMarks" d="M185.8,328.7c-0.4-5.1-0.2-10.4-0.1-15.5c0-4.3,2.1-6.7,5.6-6.8c3.7-0.1,6,2.4,6,6.8c0.1,5.2,0.3,10.4-0.1,15.5
	c-0.2,2.2,0.2,7.1-5.7,7.1C185.6,335.8,186,330.9,185.8,328.7z"/>
<path class="tickMarks" d="M70.3,186.2c3.9,0.2,6.2,2.5,6.1,5.9c-0.1,3.3-2.3,5.6-6,5.7c-5.7,0.1-11.4,0.1-17,0c-3.9-0.1-6.2-2.5-6.1-5.9
	c0.1-3.3,2.4-5.5,6-5.7c2.8-0.1,5.7,0,8.5,0C64.6,186.2,67.4,186.1,70.3,186.2z"/>
<!-- <path class="someHand" d="M382,195.7c0-0.5,0-1,0-1.5C382,194.7,382,195.2,382,195.7z"/> -->
<path class="minuteHand" id="minuteHand" d="M202.85,192.4h-22.56c0.45-26.98-0.48-87.04,0.04-114.09c0.12-7.93,4.96-12.86,11.97-12.63
	c6.73,0.24,11.18,5.59,10.98,13.17L202.85,192.4z"/>
<path class="hourHand" id="hourHand" d="M180.43,192.4c0.11-13.51-0.39-70.14-0.14-83.64c0.16-6.22,5.47-10.8,11.55-10.79
	c6.15,0.09,11.3,4.98,11.28,11.48c-0.03,13.15,0,82.94,0,82.94L180.43,192.4L180.43,192.4z"/>
<path class="secondHand" id="secondHand" d="M197.42,87.83c0,3.19-0.2,86.04-0.2,86.04c-3.64-0.18-7.34-0.27-11.02-0.23l-0.27-85.81
	c0.06-1.78,1.25-6.54,6.07-6.54C196.18,81.29,197.42,85.9,197.42,87.83z"/>

<circle class="yellowCenter" cx="192" cy="192" r="20"/>
</svg>
